<svg xmlns="http://www.w3.org/2000/svg" viewBox="0 0 320 180" preserveAspectRatio="xMidYMid slice" role="img" aria-label="Stocks placeholder">
  <defs>
    <linearGradient id="bg-stocks" x1="0" y1="0" x2="1" y2="1">
      <stop offset="0%" stop-color="#0f172a" />
      <stop offset="100%" stop-color="#1e3a8a" />
    </linearGradient>
    <linearGradient id="line-stocks" x1="0" y1="0" x2="1" y2="0">
      <stop offset="0%" stop-color="#22c55e" />
      <stop offset="100%" stop-color="#86efac" />
    </linearGradient>
    <linearGradient id="fill-stocks" x1="0" y1="0" x2="0" y2="1">
      <stop offset="0%" stop-color="#22c55e" stop-opacity="0.35" />
      <stop offset="100%" stop-color="#22c55e" stop-opacity="0" />
    </linearGradient>
  </defs>
  <rect width="320" height="180" fill="url(#bg-stocks)" />
  <g stroke="rgba(255,255,255,0.06)" stroke-width="1">
    <line x1="0" y1="45" x2="320" y2="45" />
    <line x1="0" y1="90" x2="320" y2="90" />
    <line x1="0" y1="135" x2="320" y2="135" />
    <line x1="80" y1="0" x2="80" y2="180" />
    <line x1="160" y1="0" x2="160" y2="180" />
    <line x1="240" y1="0" x2="240" y2="180" />
  </g>
  <path
    d="M0 130 L40 120 L80 135 L120 95 L160 110 L200 70 L240 85 L280 50 L320 40 L320 180 L0 180 Z"
    fill="url(#fill-stocks)"
  />
  <path
    d="M0 130 L40 120 L80 135 L120 95 L160 110 L200 70 L240 85 L280 50 L320 40"
    fill="none"
    stroke="url(#line-stocks)"
    stroke-width="2.5"
    stroke-linecap="round"
    stroke-linejoin="round"
  />
  <text x="20" y="32" font-family="system-ui, sans-serif" font-size="11" font-weight="600" fill="rgba(255,255,255,0.7)" letter-spacing="1.5">STOCKS</text>
</svg>
