<svg width="292" height="52" viewBox="0 0 292 52" fill="none" xmlns="http://www.w3.org/2000/svg">
<path d="M0 4C0 1.79086 1.79086 0 4 0H136C138.209 0 140 1.79086 140 4V48C140 50.2091 138.209 52 136 52H4C1.79086 52 0 50.2091 0 48V4Z" fill="#F3F3F3"/>
<path d="M63.257 22.2773C63.257 23.4395 64.3508 24.4375 66.1418 24.8203L65.6086 25.832C64.2004 25.5176 63.1682 24.8135 62.6281 23.877C62.1018 24.8955 61.049 25.6611 59.593 25.9961L59.0461 24.9844C60.8508 24.6016 61.9582 23.4941 61.9582 22.2773H59.3195V21.252H61.9582V19.9395H63.257V21.252H65.882V22.2773H63.257ZM68.7121 19.9258V32.1621H67.427V19.9258H68.7121ZM58.5129 26.748C60.8371 26.748 63.9133 26.7344 66.5793 26.3926L66.675 27.3359C65.5539 27.5205 64.3986 27.6367 63.2707 27.7051V31.793H61.9719V27.7734C60.7961 27.8213 59.675 27.8281 58.6906 27.8281L58.5129 26.748ZM81.4871 29.5371V30.6035H70.2762V29.5371H75.1844V26.625H76.4695V29.5371H81.4871ZM76.4969 21.6211C76.4969 23.5625 78.6297 25.3809 80.9949 25.7773L80.4344 26.8438C78.452 26.4473 76.6268 25.2236 75.8133 23.5352C75.0066 25.2168 73.202 26.4609 71.2332 26.8438L70.659 25.7773C73.0105 25.3809 75.1297 23.5625 75.1297 21.6211V20.6914H76.4969V21.6211Z" fill="#505050"/>
<path d="M152 4C152 1.79086 153.791 0 156 0H288C290.209 0 292 1.79086 292 4V48C292 50.2091 290.209 52 288 52H156C153.791 52 152 50.2091 152 48V4Z" fill="#3086F5"/>
<path d="M220.07 19.9121V24.6562H222.038V25.7227H220.07V32.1895H218.771V19.9121H220.07ZM216.775 21.0879V22.1406H212.345V28.0605C214.403 28.0537 215.947 27.9648 217.691 27.6504L217.855 28.7441C215.941 29.0859 214.314 29.1543 212.03 29.1406H211.046V21.0879H216.775ZM227.854 20.1719C230.548 20.1719 232.229 21.0469 232.229 22.5234C232.229 23.9727 230.548 24.834 227.854 24.834C225.175 24.834 223.479 23.9727 223.479 22.5234C223.479 21.0469 225.175 20.1719 227.854 20.1719ZM227.854 21.1973C225.968 21.1973 224.805 21.6758 224.819 22.5234C224.805 23.3438 225.968 23.8086 227.854 23.8223C229.727 23.8086 230.889 23.3438 230.889 22.5234C230.889 21.6758 229.727 21.1973 227.854 21.1973ZM232.079 27.9238V32.0117H223.616V27.9238H232.079ZM224.901 28.9629V30.959H230.821V28.9629H224.901ZM233.446 25.7773V26.8301H222.276V25.7773H233.446Z" fill="white"/>
</svg>
