<svg width="236" height="220" viewBox="0 0 236 220" fill="none" xmlns="http://www.w3.org/2000/svg">
<path d="M236 83.4245L170.354 144.872L136.717 109.172L202.362 47.7246L236 83.4245Z" fill="#3F467B"/>
<path d="M202.105 53.481L142.479 109.331L170.488 139.055L230.115 83.2048L202.105 53.481Z" stroke="#FCFFFD" stroke-miterlimit="10"/>
<path d="M202.034 55.7744L144.78 109.403L170.56 136.761L227.813 83.1329L202.034 55.7744Z" stroke="#FCFFFD" stroke-width="0.5" stroke-miterlimit="10"/>
<path d="M175.671 92.8366L179.252 87.5357L180.77 86.1292L193.032 99.111L194.769 97.4884L197.916 100.842L190.754 107.549L187.607 104.196L189.56 102.357L180.445 92.6201L177.84 95.0002L175.671 92.8366Z" fill="#FCFFFD"/>
<path d="M160.479 109.28C157.224 112.418 157.007 117.502 160.154 120.856C163.3 124.209 168.4 124.318 171.764 121.18C175.127 118.043 175.236 112.958 172.089 109.605C168.943 106.359 163.734 106.251 160.479 109.28ZM164.603 115.122C164.82 115.122 165.145 115.014 165.579 114.906C166.339 114.581 166.99 114.473 167.424 114.473C167.966 114.473 168.4 114.689 168.834 115.122C169.268 115.555 169.485 115.988 169.377 116.528C169.377 117.07 169.16 117.502 168.726 118.043L169.377 118.8L168.726 119.341L168.075 118.584C167.532 119.017 166.99 119.233 166.447 119.233C165.905 119.233 165.362 118.909 164.82 118.368L165.905 117.286C166.23 117.61 166.556 117.827 166.773 117.827C167.098 117.827 167.315 117.718 167.532 117.502C167.749 117.286 167.858 117.07 167.858 116.853C167.858 116.637 167.749 116.42 167.532 116.204C167.315 115.988 167.098 115.879 166.881 115.879C166.664 115.879 166.339 115.879 165.905 116.096C165.145 116.42 164.494 116.637 164.06 116.637C163.518 116.637 163.084 116.42 162.65 115.988C162.216 115.555 161.998 115.122 162.107 114.581C162.107 114.04 162.324 113.608 162.758 113.067L161.998 112.31L162.65 111.768L163.409 112.634C163.952 112.31 164.494 112.093 164.928 112.201C165.471 112.31 166.013 112.526 166.447 113.067L165.362 114.149C165.037 113.824 164.82 113.716 164.494 113.608C164.277 113.608 163.952 113.608 163.734 113.824C163.518 114.04 163.409 114.257 163.409 114.473C163.409 114.689 163.518 114.906 163.734 115.122C164.168 115.014 164.386 115.122 164.603 115.122Z" fill="#FCFFFD"/>
<path d="M200.845 71.4166C197.591 74.5538 197.373 79.6385 200.52 82.9922C203.666 86.2375 208.766 86.454 212.131 83.3165C215.493 80.1793 215.602 75.0947 212.456 71.7413C209.309 68.4957 204.1 68.3875 200.845 71.4166ZM205.078 77.2583C205.294 77.2583 205.619 77.1502 206.053 77.0421C206.813 76.7175 207.465 76.6094 207.897 76.6094C208.441 76.6094 208.875 76.8256 209.309 77.2583C209.744 77.6911 209.959 78.1238 209.853 78.6649C209.853 79.2057 209.634 79.6385 209.2 80.1793L209.853 80.9366L209.2 81.4775L208.55 80.7202C208.006 81.1529 207.465 81.3694 206.922 81.3694C206.378 81.3694 205.838 81.0448 205.294 80.5039L206.378 79.422C206.704 79.7466 207.031 79.9631 207.247 79.9631C207.572 79.9631 207.791 79.8547 208.006 79.6385C208.225 79.422 208.331 79.2057 208.331 78.9892C208.331 78.773 208.225 78.5565 208.006 78.3403C207.791 78.1238 207.572 78.0157 207.356 78.0157C207.138 78.0157 206.813 78.0157 206.378 78.2322C205.619 78.5565 204.969 78.773 204.535 78.773C203.991 78.773 203.557 78.5565 203.125 78.1238C202.691 77.6911 202.473 77.2583 202.582 76.7175C202.582 76.1766 202.798 75.7439 203.232 75.2031L202.473 74.4457L203.125 73.9049L203.885 74.7703C204.426 74.4457 204.969 74.2292 205.403 74.3376C205.944 74.4457 206.488 74.662 206.922 75.2031L205.838 76.2848C205.513 75.9602 205.294 75.852 204.969 75.7439C204.751 75.7439 204.426 75.7439 204.21 75.9602C203.991 76.1766 203.885 76.3929 203.885 76.6094C203.885 76.8256 203.991 77.0421 204.21 77.2583C204.644 77.1502 204.751 77.2583 205.078 77.2583Z" fill="#FCFFFD"/>
<path d="M147.785 106.576C149.305 108.198 149.305 110.795 147.568 112.309C145.941 113.824 143.337 113.824 141.818 112.093C140.299 110.47 140.299 107.874 142.035 106.359C143.662 104.845 146.266 104.953 147.785 106.576Z" fill="#FCFFFD"/>
<path d="M170.572 140.869C172.849 140.869 174.696 139.029 174.696 136.758C174.696 134.488 172.849 132.647 170.572 132.647C168.295 132.647 166.449 134.488 166.449 136.758C166.449 139.029 168.295 140.869 170.572 140.869Z" fill="#FCFFFD"/>
<path d="M205.077 52.9172C206.596 54.54 206.596 57.1364 204.859 58.6508C203.124 60.1655 200.628 60.1655 199.109 58.4346C197.59 56.8118 197.59 54.2154 199.325 52.7007C200.953 51.2944 203.556 51.2944 205.077 52.9172Z" fill="#FCFFFD"/>
<path d="M227.861 87.2111C230.139 87.2111 231.985 85.3705 231.985 83.1C231.985 80.8296 230.139 78.9893 227.861 78.9893C225.586 78.9893 223.739 80.8296 223.739 83.1C223.739 85.3705 225.586 87.2111 227.861 87.2111Z" fill="#FCFFFD"/>
<path d="M197.37 85.9128C203.122 91.971 202.797 101.491 196.72 107.225C190.642 112.958 181.096 112.634 175.344 106.576C169.593 100.517 169.919 90.9974 175.996 85.2638C182.071 79.6384 191.62 79.8546 197.37 85.9128Z" stroke="#FCFFFD" stroke-miterlimit="10"/>
<path d="M61.6312 144.871L0 79.4215L35.807 45.885L97.4383 111.335L61.6312 144.871Z" fill="#3F467B"/>
<path d="M91.6212 111.133L35.6036 51.6853L5.79102 79.6103L61.8086 139.058L91.6212 111.133Z" stroke="#FCFFFD" stroke-miterlimit="10"/>
<path d="M35.5591 53.9014L8.11865 79.6044L61.9073 136.687L89.3478 110.984L35.5591 53.9014Z" stroke="#FCFFFD" stroke-width="0.5" stroke-miterlimit="10"/>
<path d="M52.1909 84.7224L57.5078 88.2923L58.9183 89.807L45.8977 102.031L47.5253 103.762L44.1616 106.9L37.4341 99.7597L40.7978 96.6223L42.6424 98.5697L52.408 89.4824L49.9123 86.886L52.1909 84.7224Z" fill="#FCFFFD"/>
<path d="M35.591 69.5772C32.4444 66.3316 27.3445 66.1154 23.9808 69.2526C20.7258 72.3898 20.5086 77.4744 23.6552 80.8281C26.8021 84.0735 31.9017 84.29 35.2654 81.1528C38.5207 78.0153 38.7376 72.8226 35.591 69.5772ZM29.7315 73.688C29.7315 73.9045 29.8402 74.2291 29.9487 74.6618C30.2743 75.4189 30.3827 76.0681 30.3827 76.5009C30.3827 77.0417 30.1656 77.4744 29.7315 77.9072C29.2975 78.3399 28.8635 78.5564 28.321 78.448C27.7786 78.448 27.3445 78.2318 26.8021 77.7991L26.0425 78.448L25.5 77.7991L26.2594 77.1498C25.8253 76.609 25.6085 76.0681 25.6085 75.5273C25.6085 74.9862 25.934 74.4454 26.4765 73.9045L27.5614 74.9862C27.2361 75.3108 27.019 75.6354 27.019 75.8516C27.019 76.1763 27.1274 76.3928 27.3445 76.609C27.5614 76.8255 27.7786 76.9336 27.9955 76.9336C28.2126 76.9336 28.4295 76.8255 28.6466 76.609C28.8635 76.3928 28.9722 76.1763 28.9722 75.96C28.9722 75.7435 28.9722 75.4189 28.7551 74.9862C28.4295 74.2291 28.2126 73.5799 28.2126 73.1472C28.2126 72.6063 28.4295 72.1736 28.8635 71.7409C29.2975 71.3081 29.7315 71.0916 30.2743 71.2C30.8167 71.2 31.2507 71.4163 31.7932 71.849L32.5528 71.0916L33.0953 71.7409L32.5528 72.7144C32.8784 73.2553 33.0953 73.7964 32.9868 74.2291C32.8784 74.77 32.6613 75.3108 32.1188 75.7435L31.0336 74.6618C31.3592 74.3372 31.4676 74.1207 31.5763 73.7964C31.5763 73.5799 31.5763 73.2553 31.3592 73.039C31.1423 72.8226 30.9252 72.7144 30.7083 72.7144C30.4911 72.7144 30.2743 72.8226 30.0571 73.039C29.9487 73.2553 29.8402 73.4718 29.7315 73.688Z" fill="#FCFFFD"/>
<path d="M73.5675 109.821C70.4209 106.575 65.3211 106.359 61.9574 109.496C58.7023 112.633 58.4852 117.718 61.6318 121.072C64.7787 124.317 69.8782 124.534 73.242 121.396C76.4973 118.259 76.7141 113.174 73.5675 109.821ZM67.7081 114.04C67.7081 114.256 67.8168 114.581 67.9252 115.014C68.2508 115.771 68.3593 116.42 68.3593 116.853C68.3593 117.393 68.1421 117.826 67.7081 118.259C67.2741 118.692 66.8401 118.908 66.2976 118.8C65.7551 118.8 65.3211 118.584 64.7786 118.151L64.019 118.8L63.4766 118.151L64.2359 117.502C63.8019 116.961 63.585 116.42 63.585 115.879C63.585 115.338 63.9106 114.797 64.4531 114.256L65.538 115.338C65.2127 115.663 64.9955 115.987 64.9955 116.203C64.9955 116.528 65.104 116.745 65.3211 116.961C65.538 117.177 65.7551 117.285 65.972 117.285C66.1892 117.285 66.406 117.177 66.6232 116.961C66.8401 116.745 66.9488 116.528 66.9488 116.312C66.9488 116.095 66.9488 115.771 66.7316 115.338C66.406 114.581 66.1891 113.932 66.1891 113.499C66.1891 112.958 66.406 112.525 66.8401 112.093C67.2741 111.66 67.7081 111.443 68.2508 111.552C68.7933 111.552 69.2273 111.768 69.7698 112.201L70.5294 111.443L71.0718 112.093L70.5294 112.958C70.855 113.499 71.0718 114.04 70.9634 114.473C70.855 115.014 70.6378 115.554 70.0954 115.987L69.0102 114.905C69.3358 114.581 69.4442 114.364 69.5529 114.04C69.5529 113.824 69.5529 113.499 69.3358 113.283C69.1189 113.066 68.9017 112.958 68.6848 112.958C68.4677 112.958 68.2508 113.066 68.0337 113.283C67.8168 113.607 67.7081 113.824 67.7081 114.04Z" fill="#FCFFFD"/>
<path d="M38.3034 56.92C36.6757 58.4344 34.0716 58.4344 32.5526 56.7035C31.0334 55.0807 31.0334 52.4844 32.7695 50.9699C34.3971 49.4553 37.0013 49.4553 38.5202 51.1862C40.0394 52.809 40.0394 55.4053 38.3034 56.92Z" fill="#FCFFFD"/>
<path d="M10.8517 82.6671C9.22408 84.1818 6.61994 84.1818 5.10073 82.4509C3.58178 80.8281 3.58179 78.2317 5.31788 76.717C6.94553 75.2026 9.54966 75.2026 11.0686 76.9335C12.5878 78.6644 12.5878 81.0443 10.8517 82.6671Z" fill="#FCFFFD"/>
<path d="M90.3831 114.982C92.5789 114.381 93.8701 112.119 93.2673 109.929C92.6642 107.74 90.3953 106.452 88.1994 107.053C86.0036 107.655 84.7122 109.917 85.3152 112.106C85.9183 114.296 88.1872 115.583 90.3831 114.982Z" fill="#FCFFFD"/>
<path d="M64.6691 139.679C63.0415 141.194 60.4373 141.194 58.9181 139.463C57.3992 137.84 57.3992 135.244 59.1353 133.729C60.7629 132.215 63.3671 132.215 64.886 133.945C66.4052 135.568 66.2965 138.165 64.6691 139.679Z" fill="#FCFFFD"/>
<path d="M59.0281 106.359C52.9518 112.093 43.4032 111.768 37.6525 105.71C31.9015 99.6519 32.2271 90.1319 38.3034 84.3983C44.3797 78.6647 53.9282 78.9893 59.679 85.0475C65.43 91.1057 65.1044 100.626 59.0281 106.359Z" stroke="#FCFFFD" stroke-miterlimit="10"/>
<path d="M175.887 188.685L220.808 151.255C220.808 151.146 216.361 198.422 175.887 188.685Z" fill="#0066FF"/>
<path d="M175.887 188.686L220.808 151.255C220.808 151.146 173.282 147.252 175.887 188.686Z" fill="#418DFF"/>
<path d="M172.524 195.825L211.802 193.553C211.802 193.553 190.426 217.354 172.524 195.825Z" fill="#0066FF"/>
<path d="M172.524 195.825L211.802 193.554C211.802 193.554 187.823 172.458 172.524 195.825Z" fill="#418DFF"/>
<path d="M71.3974 179.814L29.1885 155.582C29.1885 155.582 67.4912 145.521 71.3974 179.814Z" fill="#418DFF"/>
<path d="M71.3974 179.814L29.1885 155.581C29.1885 155.581 39.7137 193.553 71.3974 179.814Z" fill="#0066FF"/>
<path d="M75.0868 188.36L13.4556 190.308C13.4556 190.308 47.9605 154.067 75.0868 188.36Z" fill="#418DFF"/>
<path d="M75.0868 188.36L13.4556 190.308C13.4556 190.308 50.1306 224.277 75.0868 188.36Z" fill="#0066FF"/>
<path d="M155.38 203.074C170.361 203.074 182.506 198.521 182.506 192.905C182.506 187.288 170.361 182.736 155.38 182.736C140.398 182.736 128.253 187.288 128.253 192.905C128.253 198.521 140.398 203.074 155.38 203.074Z" fill="#FFCE5B"/>
<path d="M128.253 201.45C128.253 207.076 140.406 211.619 155.38 211.619C170.354 211.619 182.506 207.076 182.506 201.45V192.904C182.506 198.529 170.354 203.073 155.38 203.073C140.406 203.073 128.253 198.529 128.253 192.904V201.45Z" fill="#FFE7AD"/>
<path d="M145.614 202.425C135.415 200.909 128.253 197.231 128.253 192.904V201.45C128.253 205.777 135.415 209.456 145.614 210.971V202.425Z" fill="#F7BF30"/>
<path d="M155.38 203.073H152.016V211.619H155.38V203.073Z" fill="#FFC234"/>
<path d="M154.296 192.255C169.277 192.255 181.422 187.703 181.422 182.086C181.422 176.47 169.277 171.917 154.296 171.917C139.314 171.917 127.169 176.47 127.169 182.086C127.169 187.703 139.314 192.255 154.296 192.255Z" fill="#FFCE5B"/>
<path d="M127.169 190.632C127.169 196.258 139.322 200.801 154.296 200.801C169.27 200.801 181.422 196.258 181.422 190.632V182.086C181.422 187.711 169.27 192.255 154.296 192.255C139.322 192.255 127.169 187.711 127.169 182.086V190.632Z" fill="#FFE7AD"/>
<path d="M144.53 191.606C134.331 190.091 127.169 186.413 127.169 182.086V190.632C127.169 194.959 134.331 198.638 144.53 200.152V191.606Z" fill="#F7BF30"/>
<path d="M154.296 192.255H150.932V200.801H154.296V192.255Z" fill="#FFC234"/>
<path d="M160.805 182.086C175.788 182.086 187.933 177.533 187.933 171.917C187.933 166.301 175.788 161.748 160.805 161.748C145.824 161.748 133.679 166.301 133.679 171.917C133.679 177.533 145.824 182.086 160.805 182.086Z" fill="#FFCE5B"/>
<path d="M133.679 180.463C133.679 186.089 145.832 190.633 160.805 190.633C175.78 190.633 187.933 186.089 187.933 180.463V171.917C187.933 177.543 175.78 182.086 160.805 182.086C145.832 182.086 133.679 177.543 133.679 171.917V180.463Z" fill="#FFE7AD"/>
<path d="M151.04 181.437C140.84 179.923 133.679 176.245 133.679 171.917V180.463C133.679 184.791 140.84 188.469 151.04 189.983V181.437Z" fill="#F7BF30"/>
<path d="M160.806 182.086H157.442V190.632H160.806V182.086Z" fill="#FFC234"/>
<path d="M155.38 171.268C170.361 171.268 182.506 166.715 182.506 161.099C182.506 155.483 170.361 150.93 155.38 150.93C140.398 150.93 128.253 155.483 128.253 161.099C128.253 166.715 140.398 171.268 155.38 171.268Z" fill="#FFCE5B"/>
<path d="M128.253 169.645C128.253 175.271 140.406 179.814 155.38 179.814C170.354 179.814 182.506 175.271 182.506 169.645V161.099C182.506 166.724 170.354 171.268 155.38 171.268C140.406 171.268 128.253 166.724 128.253 161.099V169.645Z" fill="#FFE7AD"/>
<path d="M145.614 170.619C135.415 169.104 128.253 165.426 128.253 161.099V169.645C128.253 173.973 135.415 177.651 145.614 179.165V170.619Z" fill="#F7BF30"/>
<path d="M155.38 171.268H152.016V179.814H155.38V171.268Z" fill="#FFC234"/>
<path d="M152.125 159.152C167.106 159.152 179.252 154.599 179.252 148.983C179.252 143.367 167.106 138.814 152.125 138.814C137.143 138.814 124.998 143.367 124.998 148.983C124.998 154.599 137.143 159.152 152.125 159.152Z" fill="#FFCE5B"/>
<path d="M124.998 157.529C124.998 163.154 137.151 167.698 152.125 167.698C167.098 167.698 179.252 163.154 179.252 157.529V148.983C179.252 154.608 167.098 159.152 152.125 159.152C137.151 159.152 124.998 154.608 124.998 148.983V157.529Z" fill="#FFE7AD"/>
<path d="M152.125 159.152H148.761V167.698H152.125V159.152Z" fill="#FFC234"/>
<path d="M157.551 148.334C172.532 148.334 184.677 143.781 184.677 138.165C184.677 132.548 172.532 127.995 157.551 127.995C142.569 127.995 130.424 132.548 130.424 138.165C130.424 143.781 142.569 148.334 157.551 148.334Z" fill="#FFCE5B"/>
<path d="M130.424 146.711C130.424 152.336 142.577 156.88 157.551 156.88C172.525 156.88 184.677 152.336 184.677 146.711V138.164C184.677 143.79 172.525 148.334 157.551 148.334C142.577 148.334 130.424 143.79 130.424 138.164V146.711Z" fill="#FFE7AD"/>
<path d="M147.785 147.684C137.586 146.17 130.424 142.492 130.424 138.164V146.711C130.424 151.038 137.586 154.716 147.785 156.231V147.684Z" fill="#F7BF30"/>
<path d="M157.551 148.333H154.187V156.88H157.551V148.333Z" fill="#FFC234"/>
<path d="M149.955 138.165C164.936 138.165 177.081 133.612 177.081 127.995C177.081 122.379 164.936 117.826 149.955 117.826C134.973 117.826 122.828 122.379 122.828 127.995C122.828 133.612 134.973 138.165 149.955 138.165Z" fill="#FFCE5B"/>
<path d="M122.828 136.542C122.828 142.167 134.981 146.711 149.955 146.711C164.928 146.711 177.081 142.167 177.081 136.542V127.996C177.081 133.621 164.928 138.165 149.955 138.165C134.981 138.165 122.828 133.621 122.828 127.996V136.542Z" fill="#FFE7AD"/>
<path d="M140.189 137.516C129.99 136.001 122.828 132.323 122.828 127.996V136.542C122.828 140.869 129.99 144.548 140.189 146.062V137.516Z" fill="#F7BF30"/>
<path d="M149.955 138.165H146.591V146.711H149.955V138.165Z" fill="#FFC234"/>
<path d="M153.209 127.346C168.191 127.346 180.336 122.793 180.336 117.177C180.336 111.561 168.191 107.008 153.209 107.008C138.228 107.008 126.083 111.561 126.083 117.177C126.083 122.793 138.228 127.346 153.209 127.346Z" fill="#FFCE5B"/>
<path d="M153.21 111.768C163.843 111.768 172.632 114.256 173.717 117.394C173.826 117.177 173.826 116.961 173.826 116.745C173.826 113.283 164.603 110.47 153.21 110.47C141.817 110.47 132.594 113.283 132.594 116.745C132.594 116.961 132.594 117.177 132.702 117.394C133.679 114.256 142.468 111.768 153.21 111.768Z" fill="#FFE7AD"/>
<path d="M126.083 125.723C126.083 131.349 138.236 135.892 153.209 135.892C168.183 135.892 180.336 131.349 180.336 125.723V117.177C180.336 122.802 168.183 127.346 153.209 127.346C138.236 127.346 126.083 122.802 126.083 117.177V125.723Z" fill="#FFE7AD"/>
<path d="M143.444 126.697C133.244 125.182 126.083 121.504 126.083 117.177V125.723C126.083 130.05 133.244 133.729 143.444 135.243V126.697Z" fill="#F7BF30"/>
<path d="M173.826 116.745C173.826 120.206 164.603 123.019 153.21 123.019C141.817 123.019 132.594 120.206 132.594 116.745C132.594 113.283 141.817 110.47 153.21 110.47C164.603 110.47 173.826 113.283 173.826 116.745Z" fill="#FFE7AD"/>
<path d="M153.21 127.346H149.847V135.893H153.21V127.346Z" fill="#FFC234"/>
<path d="M150.715 115.446L150.823 112.958H149.413C148.87 112.958 148.436 112.958 148.002 113.066C147.568 113.174 147.134 113.175 146.808 113.283C146.157 113.499 145.723 113.823 145.615 114.148C145.506 114.797 147.134 115.446 149.196 115.446H150.715Z" fill="#FFE7AD"/>
<path d="M153.753 119.232H157.442C159.612 119.232 161.348 118.583 161.24 117.826C161.131 117.393 160.48 116.961 159.395 116.744C158.744 116.636 157.984 116.528 157.225 116.528H153.644L153.753 119.232Z" fill="#FFE7AD"/>
<path d="M141.926 118.259C141.709 119.449 144.204 120.422 147.568 120.422H150.498L150.389 121.937H153.753V120.422H157.551C161.565 120.422 164.712 119.232 164.495 117.826C164.278 116.528 161.023 115.446 157.225 115.446H153.753V112.958H155.597C156.683 112.958 157.767 113.174 158.31 113.391C158.635 113.607 158.853 113.715 158.961 114.04H161.891C161.782 112.958 158.853 112.092 155.597 111.984H153.753V111.011H150.823V111.984H149.413C145.832 111.984 142.794 112.958 142.577 114.148C142.36 115.338 145.289 116.42 149.087 116.42H150.606L150.498 119.124H147.676C146.157 119.124 144.964 118.691 145.072 118.151H141.926V118.259ZM159.395 116.744C160.48 116.961 161.131 117.393 161.24 117.826C161.348 118.583 159.612 119.232 157.442 119.232H153.753V116.528H157.333C157.985 116.528 158.744 116.636 159.395 116.744ZM145.615 114.256C145.615 113.931 146.049 113.607 146.808 113.391C147.134 113.282 147.568 113.174 148.002 113.174C148.436 113.066 148.87 113.066 149.413 113.066H150.823L150.715 115.554H149.304C147.134 115.446 145.506 114.905 145.615 114.256Z" fill="#FFC234"/>
<path d="M86.5899 203.074C101.571 203.074 113.716 198.521 113.716 192.905C113.716 187.289 101.571 182.736 86.5899 182.736C71.6085 182.736 59.4634 187.289 59.4634 192.905C59.4634 198.521 71.6085 203.074 86.5899 203.074Z" fill="#FFCE5B"/>
<path d="M59.4634 201.451C59.4634 207.076 71.616 211.619 86.5899 211.619C101.564 211.619 113.716 207.076 113.716 201.451V192.904C113.716 198.53 101.564 203.073 86.5899 203.073C71.616 203.073 59.4634 198.53 59.4634 192.904V201.451Z" fill="#FFE7AD"/>
<path d="M76.8243 202.425C66.6249 200.91 59.4634 197.232 59.4634 192.904V201.451C59.4634 205.777 66.6249 209.457 76.8243 210.971V202.425Z" fill="#F7BF30"/>
<path d="M86.5898 203.073H83.2261V211.619H86.5898V203.073Z" fill="#FFC234"/>
<path d="M85.5042 192.256C100.486 192.256 112.631 187.703 112.631 182.086C112.631 176.47 100.486 171.917 85.5042 171.917C70.5228 171.917 58.3779 176.47 58.3779 182.086C58.3779 187.703 70.5228 192.256 85.5042 192.256Z" fill="#FFCE5B"/>
<path d="M58.3779 190.633C58.3779 196.259 70.5306 200.802 85.5042 200.802C100.478 200.802 112.631 196.259 112.631 190.633V182.087C112.631 187.712 100.478 192.256 85.5042 192.256C70.5306 192.256 58.3779 187.712 58.3779 182.087V190.633Z" fill="#FFE7AD"/>
<path d="M75.7388 191.607C65.5392 190.092 58.3779 186.414 58.3779 182.087V190.633C58.3779 194.96 65.5392 198.639 75.7388 200.153V191.607Z" fill="#F7BF30"/>
<path d="M85.5049 192.255H82.1411V200.802H85.5049V192.255Z" fill="#FFC234"/>
<path d="M92.0135 182.087C106.995 182.087 119.14 177.534 119.14 171.917C119.14 166.301 106.995 161.749 92.0135 161.749C77.032 161.749 64.8872 166.301 64.8872 171.917C64.8872 177.534 77.032 182.087 92.0135 182.087Z" fill="#FFCE5B"/>
<path d="M64.8872 180.464C64.8872 186.089 77.0398 190.633 92.0135 190.633C106.987 190.633 119.14 186.089 119.14 180.464V171.917C119.14 177.543 106.987 182.086 92.0135 182.086C77.0398 182.086 64.8872 177.543 64.8872 171.917V180.464Z" fill="#FFE7AD"/>
<path d="M82.2481 181.437C72.0485 179.923 64.8872 176.245 64.8872 171.917V180.464C64.8872 184.791 72.0485 188.469 82.2481 189.984V181.437Z" fill="#F7BF30"/>
<path d="M92.0144 182.087H88.6509V190.633H92.0144V182.087Z" fill="#FFC234"/>
<path d="M86.5899 171.268C101.571 171.268 113.716 166.715 113.716 161.099C113.716 155.483 101.571 150.93 86.5899 150.93C71.6085 150.93 59.4634 155.483 59.4634 161.099C59.4634 166.715 71.6085 171.268 86.5899 171.268Z" fill="#FFCE5B"/>
<path d="M59.4634 169.646C59.4634 175.271 71.616 179.815 86.5899 179.815C101.564 179.815 113.716 175.271 113.716 169.646V161.099C113.716 166.725 101.564 171.268 86.5899 171.268C71.616 171.268 59.4634 166.725 59.4634 161.099V169.646Z" fill="#FFE7AD"/>
<path d="M76.8243 170.619C66.6249 169.105 59.4634 165.426 59.4634 161.099V169.646C59.4634 173.973 66.6249 177.651 76.8243 179.166V170.619Z" fill="#F7BF30"/>
<path d="M86.5898 171.268H83.2261V179.814H86.5898V171.268Z" fill="#FFC234"/>
<path d="M90.929 160.342C105.911 160.342 118.056 155.789 118.056 150.173C118.056 144.557 105.911 140.004 90.929 140.004C75.9476 140.004 63.8027 144.557 63.8027 150.173C63.8027 155.789 75.9476 160.342 90.929 160.342Z" fill="#FFCE5B"/>
<path d="M63.8027 158.719C63.8027 164.344 75.9554 168.888 90.929 168.888C105.903 168.888 118.056 164.344 118.056 158.719V150.172C118.056 155.798 105.903 160.342 90.929 160.342C75.9554 160.342 63.8027 155.798 63.8027 150.172V158.719Z" fill="#FFE7AD"/>
<path d="M81.1637 159.692C70.964 158.178 63.8027 154.5 63.8027 150.172V158.719C63.8027 163.046 70.964 166.724 81.1637 168.239V159.692Z" fill="#F7BF30"/>
<path d="M90.9297 160.342H87.5659V168.888H90.9297V160.342Z" fill="#FFC234"/>
<path d="M88.7594 148.442C103.741 148.442 115.886 143.889 115.886 138.273C115.886 132.657 103.741 128.104 88.7594 128.104C73.7776 128.104 61.6328 132.657 61.6328 138.273C61.6328 143.889 73.7776 148.442 88.7594 148.442Z" fill="#FFCE5B"/>
<path d="M61.6328 146.819C61.6328 152.445 73.7854 156.988 88.7594 156.988C103.733 156.988 115.886 152.445 115.886 146.819V138.273C115.886 143.898 103.733 148.442 88.7594 148.442C73.7854 148.442 61.6328 143.898 61.6328 138.273V146.819Z" fill="#FFE7AD"/>
<path d="M78.9937 147.793C68.7943 146.278 61.6328 142.6 61.6328 138.273V146.819C61.6328 151.146 68.7943 154.824 78.9937 156.339V147.793Z" fill="#F7BF30"/>
<path d="M88.7597 148.442H85.396V156.988H88.7597V148.442Z" fill="#FFC234"/>
<path d="M87.6739 136.758C102.655 136.758 114.8 132.205 114.8 126.589C114.8 120.973 102.655 116.42 87.6739 116.42C72.6925 116.42 60.5474 120.973 60.5474 126.589C60.5474 132.205 72.6925 136.758 87.6739 136.758Z" fill="#FFCE5B"/>
<path d="M60.5474 135.135C60.5474 140.76 72.7 145.304 87.6739 145.304C102.648 145.304 114.8 140.76 114.8 135.135V126.589C114.8 132.214 102.648 136.758 87.6739 136.758C72.7 136.758 60.5474 132.214 60.5474 126.589V135.135Z" fill="#FFE7AD"/>
<path d="M77.9083 136.109C67.7089 134.594 60.5474 130.916 60.5474 126.589V135.135C60.5474 139.462 67.7089 143.14 77.9083 144.655V136.109Z" fill="#F7BF30"/>
<path d="M87.6738 136.758H84.3101V145.304H87.6738V136.758Z" fill="#FFC234"/>
<path d="M91.7982 126.048C106.78 126.048 118.925 121.495 118.925 115.879C118.925 110.263 106.78 105.71 91.7982 105.71C76.8167 105.71 64.6719 110.263 64.6719 115.879C64.6719 121.495 76.8167 126.048 91.7982 126.048Z" fill="#FFCE5B"/>
<path d="M64.6719 124.317C64.6719 129.942 76.8245 134.486 91.7982 134.486C106.772 134.486 118.925 129.942 118.925 124.317V115.77C118.925 121.396 106.772 125.939 91.7982 125.939C76.8245 125.939 64.6719 121.396 64.6719 115.77V124.317Z" fill="#FFE7AD"/>
<path d="M82.0328 125.29C71.8331 123.776 64.6719 120.098 64.6719 115.77V124.317C64.6719 128.644 71.8331 132.322 82.0328 133.837V125.29Z" fill="#F7BF30"/>
<path d="M91.9065 125.94H88.543V134.486H91.9065V125.94Z" fill="#FFC234"/>
<path d="M96.3551 115.771C111.337 115.771 123.481 111.218 123.481 105.602C123.481 99.9855 111.337 95.4326 96.3551 95.4326C81.3734 95.4326 69.2285 99.9855 69.2285 105.602C69.2285 111.218 81.3734 115.771 96.3551 115.771Z" fill="#FFCE5B"/>
<path d="M69.2285 114.148C69.2285 119.773 81.3812 124.317 96.3551 124.317C111.329 124.317 123.481 119.773 123.481 114.148V105.602C123.481 111.227 111.329 115.771 96.3551 115.771C81.3812 115.771 69.2285 111.227 69.2285 105.602V114.148Z" fill="#FFE7AD"/>
<path d="M86.5894 115.122C76.39 113.607 69.2285 109.929 69.2285 105.602V114.148C69.2285 118.475 76.39 122.153 86.5894 123.668V115.122Z" fill="#F7BF30"/>
<path d="M96.355 115.771H92.9912V124.317H96.355V115.771Z" fill="#FFC234"/>
<path d="M90.9285 105.061C105.91 105.061 118.055 100.508 118.055 94.8914C118.055 89.2752 105.91 84.7224 90.9285 84.7224C75.9471 84.7224 63.8022 89.2752 63.8022 94.8914C63.8022 100.508 75.9471 105.061 90.9285 105.061Z" fill="#FFCE5B"/>
<path d="M90.9287 89.4825C101.562 89.4825 110.351 91.9707 111.436 95.108C111.545 94.8917 111.545 94.6752 111.545 94.459C111.545 90.9972 102.322 88.1843 90.9287 88.1843C79.5354 88.1843 70.3125 90.9972 70.3125 94.459C70.3125 94.6752 70.3125 94.8917 70.421 95.108C71.5061 91.9707 80.295 89.4825 90.9287 89.4825Z" fill="#FFE7AD"/>
<path d="M63.8022 103.33C63.8022 108.955 75.9549 113.499 90.9285 113.499C105.902 113.499 118.055 108.955 118.055 103.33V94.7834C118.055 100.409 105.902 104.952 90.9285 104.952C75.9549 104.952 63.8022 100.409 63.8022 94.7834V103.33Z" fill="#FFE7AD"/>
<path d="M81.1632 104.303C70.9635 102.789 63.8022 99.1107 63.8022 94.7834V103.33C63.8022 107.657 70.9635 111.335 81.1632 112.85V104.303Z" fill="#F7BF30"/>
<path d="M111.545 94.4593C111.545 97.9211 102.322 100.734 90.9287 100.734C79.5354 100.734 70.3125 97.9211 70.3125 94.4593C70.3125 90.9975 79.5354 88.1847 90.9287 88.1847C102.322 88.0765 111.545 90.8894 111.545 94.4593Z" fill="#FFE7AD"/>
<path d="M90.9287 104.953H87.5649V113.5H90.9287V104.953Z" fill="#FFC234"/>
<path d="M102.648 95.757C102.648 95.6489 102.648 95.5408 102.648 95.4327C102.539 94.4588 101.454 93.8098 100.044 93.3771C100.044 93.0525 100.044 92.4036 100.044 92.0789C100.044 91.9708 100.044 91.8625 100.044 91.8625C99.8268 90.2399 96.4631 89.3745 93.208 89.3745H91.9059V88.9417C91.9059 88.6171 91.6888 88.4006 91.3635 88.4006H88.5422C88.2166 88.4006 87.9997 88.6171 87.9997 88.9417V89.3745H87.1317C83.6595 89.3745 80.0789 90.2399 79.7533 91.9708C79.7533 92.079 79.7533 92.1871 79.7533 92.2952C79.7533 92.2952 79.7533 92.2952 79.7533 92.4036V93.918C79.7533 94.2426 79.7533 94.5672 80.0789 94.9999C80.2958 95.2162 80.5129 95.4326 80.8382 95.5408H79.5362C79.4277 95.5408 79.4277 95.5408 79.3193 95.5408C79.3193 95.5408 79.2108 95.5408 79.2108 95.6489C79.2108 95.6489 79.2108 95.6489 79.1021 95.757C79.1021 95.757 79.1021 95.757 78.9937 95.8654C78.9937 95.8654 78.9937 95.9735 78.8853 95.9735C78.8853 96.0816 78.8853 96.1897 78.8853 96.2981V97.8125C78.8853 98.1371 78.8853 98.4617 79.2108 98.8945C80.0789 99.868 82.3574 100.517 85.07 100.517H87.3486V101.491C87.3486 101.815 87.5657 102.032 87.8913 102.032H91.2548C91.5804 102.032 91.7975 101.815 91.7975 101.491V100.517H94.9441C98.3078 100.517 101.997 99.6516 102.322 97.8125C102.322 97.8125 102.322 97.7044 102.322 97.5963C102.648 97.4879 102.648 97.0552 102.648 95.757ZM85.3956 96.839H88.2166L88.3253 94.1345H86.8061C83.0083 94.1345 80.0789 93.0525 80.2958 91.8625C80.5129 90.6726 83.5511 89.6988 87.1317 89.6988H88.5422V88.7252H91.3635V89.6988H93.208C96.5718 89.6988 99.3928 90.5643 99.5012 91.7543H96.5718C96.5718 91.5381 96.3546 91.3216 95.9206 91.1054C95.2697 90.7808 94.2929 90.6726 93.208 90.6726H91.3635V93.1606H94.8357C98.6332 93.1606 101.78 94.2426 102.105 95.5408C102.322 96.9471 99.2843 98.1371 95.161 98.1371H91.3635V99.6515H87.9997L88.1082 98.1371H85.1785C81.815 98.1371 79.3193 97.1636 79.5362 95.9735H82.683C82.7915 96.4062 83.8764 96.839 85.3956 96.839Z" fill="#FFE7AD"/>
<path d="M88.4341 93.0525L88.5425 90.5642H87.132C86.5895 90.5642 86.1555 90.5642 85.7215 90.6723C85.2875 90.7807 84.8534 90.7807 84.5278 90.8888C83.8769 91.1051 83.4429 91.4297 83.3342 91.7543C83.2258 92.4032 84.8534 93.0525 86.9151 93.0525H88.4341Z" fill="#FFE7AD"/>
<path d="M91.472 96.8385H95.161C97.3312 96.8385 99.0673 96.1893 98.9588 95.4322C98.8504 94.9995 98.1992 94.5668 97.1143 94.3503C96.4631 94.2421 95.7035 94.134 94.9442 94.134H91.3633L91.472 96.8385Z" fill="#FFE7AD"/>
<path d="M79.6445 95.8657C79.4274 97.0557 81.9231 98.0293 85.2868 98.0293H88.2163L88.1078 99.544H91.4716V98.0293H95.2693C99.284 98.0293 102.431 96.8392 102.214 95.4329C101.997 94.1348 98.7415 93.0531 94.9438 93.0531H91.4716V90.5648H93.3161C94.4013 90.5648 95.4862 90.7811 96.0287 90.9976C96.3543 91.2138 96.5714 91.3222 96.6798 91.6465H99.6096C99.5009 90.5648 96.5714 89.6994 93.3161 89.5913H91.4716V88.6174H88.6503V89.5913H87.2398C83.6592 89.5913 80.621 90.5648 80.4039 91.7549C80.187 92.9447 83.1167 94.0266 86.9142 94.0266H88.4334L88.325 96.7311H85.5037C83.9847 96.7311 82.7911 96.2984 82.8996 95.7576H79.6445V95.8657ZM97.1139 94.3513C98.1988 94.5675 98.85 95.0002 98.9584 95.4329C99.0668 96.1903 97.3307 96.8393 95.1606 96.8393H91.4716V94.1348H95.0522C95.8118 94.1348 96.5714 94.2429 97.1139 94.3513ZM83.3336 91.863C83.3336 91.5384 83.7676 91.2138 84.5272 90.9976C84.8528 90.8894 85.2868 90.7811 85.7208 90.7811C86.1549 90.6729 86.5889 90.6729 87.1313 90.6729H88.5418L88.4334 93.1612H87.0229C84.8528 93.0531 83.2251 92.512 83.3336 91.863Z" fill="#FFC234"/>
<path d="M159.877 212.646L150.184 215.371C150.02 215.415 149.838 215.397 149.68 215.334L147.617 214.541C147.416 214.455 147.196 214.554 147.111 214.754L146.508 216.12C146.391 216.33 146.189 216.493 145.942 216.491C144.936 216.563 142.314 216.664 141.995 215.91C141.614 215.065 142.052 210.113 141.906 207.968C143.114 208.617 145.523 209.311 149.011 207.52C149.705 208.101 151.127 209.078 153.724 209.511C157.89 210.245 160.473 210.75 161.019 211.056C161.564 211.362 161.515 212.187 159.877 212.646Z" fill="black"/>
<path d="M148.678 179.281C150.336 190.022 149.887 204.564 149.79 206.845C149.77 207.027 149.686 207.227 149.498 207.315C149.311 207.403 149.166 207.514 148.979 207.602C145.49 209.394 143.082 208.624 141.864 207.945C141.613 207.805 141.435 207.678 141.3 207.574C141.123 207.449 141.035 207.263 141.012 207.058C140.944 205.313 140.165 199.683 137.822 190.896C135.304 181.489 127.949 169.353 122.548 161.002C117.148 152.652 112.632 146.309 107.753 136.05C103.991 128.12 103.439 119.041 103.207 113.468C103.164 112.317 103.462 111.246 104.045 110.307C108.7 110.268 115.224 108.963 124.044 106.026C124.952 105.736 125.85 105.413 126.781 105.081C128.323 109.158 131.204 120.225 134.234 130.441C135.73 135.483 137.236 140.311 138.658 143.964C143.33 156.114 146.869 167.631 148.678 179.281Z" fill="#232533"/>
<path d="M107.753 136.05C112.632 146.309 117.148 152.652 122.548 161.002C126.081 166.465 130.45 173.547 133.755 180.426C129.687 159.425 127.39 147.399 125.217 128.311C123.526 113.468 121.359 108.79 120.796 107.066C113.598 109.274 108.109 110.273 104.045 110.307C103.462 111.246 103.164 112.317 103.207 113.468C103.439 119.041 103.991 128.12 107.753 136.05Z" fill="#151518"/>
<path d="M127.92 219.146H117.849C117.679 219.146 117.509 219.078 117.373 218.977L115.603 217.652C115.433 217.518 115.195 217.551 115.059 217.72L114.106 218.874C113.936 219.045 113.698 219.146 113.46 219.078C112.473 218.874 109.922 218.264 109.819 217.45C109.683 216.535 111.453 211.886 111.895 209.783C112.882 210.732 115.001 212.06 118.846 211.279C119.356 212.026 120.469 213.346 122.85 214.463C126.661 216.296 129.008 217.484 129.451 217.925C129.893 218.365 129.621 219.146 127.92 219.146Z" fill="black"/>
<path d="M126.218 184.003C124.891 194.79 120.502 208.663 119.787 210.836C119.719 211.005 119.583 211.173 119.379 211.207C119.175 211.243 119.005 211.311 118.801 211.344C114.956 212.125 112.847 210.732 111.86 209.75C111.656 209.545 111.52 209.376 111.418 209.242C111.281 209.071 111.248 208.868 111.282 208.663C111.69 206.968 112.472 201.337 112.608 192.246C112.744 182.511 108.968 168.841 106.042 159.343C103.116 149.845 100.496 142.518 98.591 131.324C97.128 122.674 99.0674 113.787 100.36 108.359C100.632 107.24 101.211 106.29 102.027 105.544C106.518 106.765 113.153 107.274 122.441 106.833C123.394 106.799 124.346 106.731 125.333 106.663C125.707 111.005 125.469 122.436 125.605 133.088C125.673 138.345 125.809 143.4 126.184 147.301C127.374 160.259 127.647 172.301 126.218 184.003Z" fill="#232533"/>
<path d="M126.116 107.579C126.116 107.613 126.116 107.68 126.116 107.714C119.448 108.596 116.283 107.918 114.787 107.07C114.787 107.036 114.787 107.002 114.82 106.968C116.76 98.4539 120.366 86.6155 120.366 79.3564C120.366 72.7755 120.128 64.2275 115.841 57.036C115.977 56.9683 116.113 56.8665 116.249 56.8325C117.985 55.9847 120.128 56.3578 122.34 56.9344C127.409 61.8531 128.498 66.7715 128.634 77.8637C128.77 90.2111 126.729 101.168 126.116 107.579Z" fill="#F4F7FF"/>
<path d="M120.366 79.356C120.366 86.6151 116.759 98.4535 114.82 106.968C114.82 107.002 114.82 107.036 114.786 107.069C113.663 112.022 113.255 117.076 113.085 120.434C113.017 121.893 112.983 123.012 112.983 123.691C112.983 124.064 112.676 124.335 112.302 124.302C109.853 124.064 101.177 122.572 93.8619 113.548C93.6237 113.243 93.6237 112.836 93.8278 112.531C95.2568 110.462 100.394 102.219 100.87 90.7194C101.449 77.3546 98.1826 71.8933 101.857 67.1102C103.286 66.4996 109.989 60.8348 114.173 58.0533C114.786 57.6462 115.33 57.3071 115.806 57.0356C120.127 64.1931 120.366 72.7751 120.366 79.356Z" fill="#0066FF"/>
<path d="M135.982 109.818C133.771 114.058 131.321 118.06 129.178 120.672C129.008 120.876 128.667 120.842 128.531 120.571C127.817 118.773 125.708 113.006 126.15 107.714C126.15 107.647 126.15 107.613 126.15 107.579C126.728 101.168 128.77 90.211 128.633 77.8637C128.497 66.7714 127.409 61.853 122.339 56.9343C123.598 57.2735 124.891 57.6466 126.116 57.8841C126.83 58.0199 127.511 58.1215 128.157 58.1555C137.786 64.0579 136.629 79.831 136.629 79.831C136.629 79.831 138.296 105.306 135.982 109.818Z" fill="#0066FF"/>
<path d="M120.366 79.356C120.366 86.6151 116.76 98.4535 114.82 106.968C114.82 107.002 114.82 107.035 114.786 107.069C113.664 112.022 113.256 117.076 113.085 120.434C112.711 102.796 110.432 94.0778 109.615 91.4998C109.445 90.9909 109.581 90.4142 109.989 90.0411L115.195 85.1225C115.637 84.6814 115.739 84.0032 115.399 83.4942L112.813 79.3899C112.541 78.9489 112.507 78.3723 112.745 77.8973C119.073 65.6855 114.208 58.0533 114.208 58.0533C114.82 57.6462 115.365 57.3071 115.841 57.0356C120.128 64.1931 120.366 72.7751 120.366 79.356Z" fill="#418DFF"/>
<path d="M131.729 87.4972C133.294 93.3996 131.729 98.2503 130.164 104.661C128.599 111.073 128.497 120.604 128.497 120.604C127.783 118.807 125.673 113.04 126.116 107.748C126.116 107.68 126.116 107.647 126.116 107.613C126.694 101.202 128.735 90.245 128.599 77.8976C128.463 66.8054 127.375 61.8867 122.305 56.9683C123.564 57.3074 124.857 57.6805 126.082 57.918C129.586 62.9723 132.784 73.9289 133.465 76.4389C133.567 76.7443 133.498 77.0835 133.294 77.3549C132.512 78.4402 130.573 81.2557 130.403 82.6127C130.266 84.241 130.198 81.5611 131.729 87.4972Z" fill="#418DFF"/>
<path d="M190.044 25.286L180.789 39.3293C180.62 39.6007 180.688 39.9399 180.961 40.1094L185.314 42.9588C185.587 43.1284 185.928 43.0607 186.097 42.7893L195.352 28.746C195.521 28.4745 195.454 28.1354 195.183 27.9658L190.827 25.1164C190.588 24.9468 190.214 25.0145 190.044 25.286Z" fill="#F7A120"/>
<path d="M189.262 28.3727L183.343 37.3617C183.104 37.7348 183.206 38.2098 183.58 38.4813L185.827 39.9736C186.201 40.2111 186.677 40.1095 186.95 39.7361L192.869 30.7471C193.108 30.374 193.004 29.8991 192.632 29.6279L190.386 28.1352C189.977 27.9317 189.501 28.0333 189.262 28.3727Z" fill="#FFFFFE"/>
<path d="M186.95 27.2872L181.403 35.6996C181.234 35.971 181.301 36.3102 181.572 36.48L182.354 36.9887L188.512 27.6263L187.73 27.1176C187.459 26.9481 187.119 27.0157 186.95 27.2872Z" fill="#D3840E"/>
<path d="M179.53 12.667C180.417 6.42547 179.634 2.8978 176.945 1.13396C175.994 0.523375 174.803 -0.257038 173.237 0.0823512C171.604 0.455446 169.937 2.01575 168.032 4.9331L169.256 5.71325C170.923 3.169 172.387 1.74455 173.611 1.47309C174.496 1.26956 175.211 1.67662 176.197 2.32118C177.523 3.20296 179.156 5.17059 178.136 12.4297C178.035 13.2775 178.306 14.1256 178.885 14.7023L178.919 14.7362C178.987 15.1093 179.192 15.4824 179.564 15.7199C180.245 16.1609 181.13 15.9574 181.572 15.3128C182.014 14.6346 181.811 13.7525 181.163 13.3115C180.688 13.0063 180.11 13.0064 179.668 13.2776C179.53 13.108 179.497 12.9045 179.53 12.667Z" fill="#F7A120"/>
<path d="M165.003 34.7158C159.628 38.0063 156.022 38.6848 153.368 36.9547C152.415 36.3441 151.224 35.5639 150.952 33.9697C150.646 32.3414 151.428 30.2045 153.334 27.2532L154.559 28.0333C152.891 30.5776 152.143 32.477 152.381 33.6982C152.551 34.6142 153.198 35.0889 154.184 35.7335C155.511 36.6155 157.995 37.2938 164.255 33.4947C164.97 33.0536 165.888 32.986 166.637 33.2911C166.637 33.2911 166.671 33.2911 166.671 33.3251C167.045 33.2235 167.487 33.2911 167.827 33.5286C168.508 33.9697 168.678 34.8514 168.236 35.53C167.794 36.2085 166.909 36.378 166.228 35.937C165.752 35.6319 165.514 35.0889 165.582 34.5802C165.412 34.5463 165.208 34.6142 165.003 34.7158Z" fill="#F7A120"/>
<path d="M166.467 3.94931L173.85 8.76609C176.946 10.8014 178.919 13.8543 179.601 17.2124C179.77 18.0945 179.871 18.9763 179.871 19.8583C179.871 22.9789 181.504 25.8284 184.126 27.5585L185.995 28.7797L182.422 34.207L180.552 32.9859C177.931 31.2557 174.631 30.9845 171.706 32.2057C167.726 33.8676 163.03 33.5964 159.186 31.0522L151.803 26.2354C150.918 25.6588 153.504 20.1975 157.553 14.0579C161.567 7.88404 165.582 3.37269 166.467 3.94931Z" fill="#F7A120"/>
<path d="M160.733 16.1537C164.787 9.99938 167.36 4.54348 166.48 3.96764C165.6 3.39179 161.601 7.91404 157.548 14.0684C153.495 20.2228 150.922 25.6787 151.801 26.2545C152.681 26.8304 156.68 22.3081 160.733 16.1537Z" fill="#D3850E"/>
<path d="M172.046 21.9952L171.366 23.0129L164.868 18.7387C164.323 18.3996 163.813 18.0265 163.371 17.6871C163.405 17.823 163.439 17.9925 163.439 18.1621C163.473 18.3317 163.541 19.0781 163.677 20.4349L162.588 20.5028L162.316 16.8733L162.894 15.9912L172.046 21.9952Z" fill="#F0EEF5"/>
<path d="M160.07 15.7198C156.702 20.842 154.082 23.827 152.755 24.9803C152.653 25.0482 152.551 24.9803 152.585 24.8786C153.129 23.2164 154.83 19.6208 158.199 14.4986C161.567 9.37669 164.187 6.39168 165.514 5.23817C165.616 5.1705 165.718 5.23817 165.684 5.34006C165.139 7.00226 163.438 10.5979 160.07 15.7198Z" fill="#F7A120"/>
<path d="M144.75 38.438C143.931 39.4517 142.784 40.4966 141.18 41.2666C140.459 41.6115 139.648 41.9019 138.732 42.1093C136.439 42.6278 132.621 42.7782 131.032 42.8171C130.627 42.8275 130.302 43.1593 130.302 43.5638V47.2299C130.302 47.5333 130.055 47.777 129.753 47.777H128.541C128.239 47.777 127.995 47.5333 127.992 47.2325C127.982 46.4158 127.821 44.8757 126.843 43.9812C125.47 42.7212 124.282 43.1282 124.021 44.352C123.761 45.5732 123.241 48.4252 123.018 50.3153C122.794 52.2028 121.964 54.3931 119.374 55.1813C117.785 50.8748 115.104 43.9812 115.18 39.4621C115.253 34.943 115.104 31.1653 118.672 28.6478C122.238 26.1277 127.998 28.8682 130.302 28.6478C132.603 28.4248 135.165 25.6843 136.356 25.0906C137.544 24.4994 141.557 25.3135 143.562 28.4248C145.567 31.5361 145.938 36.9705 144.75 38.438Z" fill="#383852"/>
<path d="M130.675 52.626C130.607 52.8975 130.403 53.135 130.097 53.2026C129.178 53.3385 127.068 53.6097 125.061 53.2366C124.823 53.2026 124.585 53.3725 124.585 53.6437V58.2976L122.68 60.1973C122.51 60.3669 122.203 60.4008 121.999 60.265L117.848 57.4835V51.2353C117.848 51.2353 116.522 49.2 117.406 47.6057C118.053 46.4185 119.652 47.063 120.4 47.4701C120.57 47.5717 120.808 47.4361 120.774 47.2326C120.672 46.0114 120.468 42.8229 120.808 41.2963C120.876 40.9571 121.285 40.7876 121.591 40.9571C122.612 41.5338 125.129 42.7549 128.191 42.9924C128.974 43.0604 129.756 43.0264 130.573 42.9245C130.743 45.2992 131.117 50.2516 130.675 52.626Z" fill="#FEBFAE"/>
<path d="M117.814 51.3376C117.814 51.3376 121.761 52.6605 123.53 52.8979C123.803 52.9319 123.871 53.271 123.666 53.4069C123.19 53.6781 121.795 53.9156 117.814 53.305V51.3376Z" fill="#EDA895"/>
<path d="M109.546 84.0034C107.845 89.4648 101.823 95.7742 98.9992 98.1146C96.1753 100.455 91.8884 106.222 89.2687 110.971C87.6356 113.922 85.4241 118.264 83.9611 121.181L77.2586 118.84L76.6802 118.569C76.2719 118.366 76.1359 117.891 76.306 117.518C77.2926 115.482 80.0824 109.58 81.4095 106.018C83.0085 101.643 85.1178 94.519 87.5336 87.4634C89.9492 80.3739 93.1814 74.4375 96.8556 70.1637C100.564 65.8896 107.063 65.9912 109.07 69.8243C111.077 73.5897 111.247 78.5081 109.546 84.0034Z" fill="#0066FF"/>
<path d="M82.09 131.799C81.5796 131.799 80.9671 131.222 80.5929 130.849C80.4907 130.747 80.3207 130.815 80.2866 130.95C80.0824 132.206 78.8238 134.037 76.5442 133.088C73.9924 132.07 73.176 128.949 74.1627 127.185C74.741 126.168 75.5576 124.607 76.17 123.454C76.4082 123.013 76.6123 122.606 76.7483 122.335C76.8165 122.233 76.8165 122.097 76.7483 121.995L82.3621 124.302C82.2942 124.607 82.1579 125.286 82.192 126.066C82.226 126.575 82.2942 127.117 82.5321 127.66C83.2467 129.39 82.8044 131.799 82.09 131.799Z" fill="#FEBFAE"/>
<path d="M83.9612 121.147C83.0768 122.911 82.4644 124.132 82.4644 124.132C82.4644 124.132 82.4303 124.2 82.3962 124.336L76.7825 122.029C76.7485 121.927 76.6804 121.859 76.6125 121.825C76.2721 121.622 76.1361 121.147 76.3061 120.774L77.259 118.806L83.9612 121.147Z" fill="#A0B1F9"/>
<path d="M177.934 38.5489C177.934 38.5489 174.428 46.9952 167.964 54.4579C161.499 61.9206 149.83 73.9288 136.629 79.8309C136.629 79.8309 137.786 64.0578 128.157 58.1554C128.361 58.1554 128.565 58.1554 128.77 58.1554C132.716 57.9179 144.386 56.3576 153.334 51.6764C162.146 47.0632 168.984 41.7374 171.298 35.8351C171.366 35.6655 171.536 35.5639 171.74 35.5978C171.842 35.6315 171.978 35.6315 172.114 35.6655C173.305 35.869 175.926 36.6492 177.934 38.5489Z" fill="#0066FF"/>
<path d="M178.852 37.0898L177.934 38.5484C175.96 36.6487 173.34 35.8686 172.115 35.6314L173.17 33.7996C173.203 33.6298 173.407 33.5621 173.544 33.6637L178.784 36.649C178.919 36.7167 178.953 36.9202 178.852 37.0898Z" fill="#A0B1F9"/>
<path d="M178.035 36.2081C178.751 36.0046 181.778 34.0369 181.437 33.3926C181.096 32.7481 176.811 30.8144 176.47 30.3397C176.129 29.8647 176.743 29.4576 177.219 29.6951C177.695 29.9326 178.272 30.1362 178.511 29.8307C178.714 29.5256 178.987 29.1864 178.205 28.6435C177.422 28.1009 175.62 26.8457 174.938 27.4903C174.293 28.1348 173.85 28.881 174.054 29.8307C174.26 30.7807 174.53 32.5446 173.748 33.7318L178.035 36.2081Z" fill="#FEBFAE"/>
<path d="M183.172 30.1367L184.976 27.9655C185.213 27.6603 185.179 27.1853 184.875 26.9479C184.771 26.8462 184.636 26.7783 184.467 26.7783C184.329 26.7443 184.194 26.6767 184.16 26.5408C184.025 25.9981 183.65 25.625 183.104 25.5571C183.003 25.5571 182.901 25.4555 182.867 25.3536C182.696 24.8788 182.186 24.7093 181.778 24.6414C181.642 24.6074 181.538 24.5395 181.505 24.4039C181.437 24.1664 181.268 23.9628 181.063 23.8272C180.722 23.5897 180.246 23.6916 179.976 23.9968L178.376 25.8965C178.309 25.9981 178.238 26.1 178.238 26.2017C178.171 26.5748 178.171 27.3889 179.227 27.3549C179.396 27.3549 179.533 27.4908 179.567 27.6603C179.601 28.0334 179.804 28.4405 180.485 28.4405C180.62 28.4405 180.758 28.5424 180.792 28.7119C180.894 29.153 181.302 29.4581 181.778 29.4581C181.913 29.4581 182.051 29.5261 182.085 29.6617C182.254 30.2043 182.901 30.4418 183.172 30.1367Z" fill="#FEBFAE"/>
<path d="M179.533 27.4569C179.567 27.4908 179.601 27.4908 179.635 27.4908C179.668 27.4908 179.736 27.4908 179.77 27.4229L181.743 24.6754C181.811 24.6075 181.777 24.5058 181.71 24.4379C181.642 24.37 181.538 24.4039 181.47 24.4719L179.497 27.2194C179.429 27.2873 179.463 27.389 179.533 27.4569Z" fill="#EDA895"/>
<path d="M180.792 28.6094C180.755 28.6094 180.721 28.6094 180.688 28.5754C180.62 28.5078 180.586 28.4059 180.654 28.3382L182.83 25.4208C182.901 25.3529 183.002 25.319 183.07 25.3869C183.137 25.4548 183.171 25.5565 183.103 25.6244L180.927 28.5415C180.893 28.5754 180.825 28.6094 180.792 28.6094Z" fill="#EDA895"/>
<path d="M182.084 29.5938C182.05 29.5938 182.017 29.5938 181.983 29.5601C181.913 29.4922 181.913 29.3905 181.946 29.3226L184.126 26.6427C184.193 26.5748 184.295 26.5748 184.362 26.6088C184.432 26.6427 184.43 26.7783 184.396 26.8463L182.219 29.5261C182.186 29.5941 182.118 29.5938 182.084 29.5938Z" fill="#EDA895"/>
</svg>
