<svg width="205" height="60" viewBox="0 0 205 60" fill="none" xmlns="http://www.w3.org/2000/svg">
<path d="M19.373 0.0761719V23.1816H16.2754V11.5273H14.1934V22.1152H11.1211V0.40625H14.1934V8.88672H16.2754V0.0761719H19.373ZM9.19141 2.46289V17.3672H0V2.46289H9.19141ZM3.02148 5.02734V14.8281H6.16992V5.02734H3.02148ZM27.7367 0.761719C31.2406 0.761719 33.9066 2.94531 33.9066 6.04297C33.9066 9.08984 31.2406 11.2988 27.7367 11.2988C24.1566 11.2988 21.516 9.08984 21.516 6.04297C21.516 2.94531 24.1566 0.761719 27.7367 0.761719ZM27.7367 3.40234C25.9594 3.40234 24.6391 4.36719 24.6645 6.04297C24.6391 7.69336 25.9594 8.68359 27.7367 8.68359C29.4887 8.68359 30.7836 7.69336 30.7836 6.04297C30.7836 4.36719 29.4887 3.40234 27.7367 3.40234ZM40.5082 0.0761719V11.6543H37.2582V0.0761719H40.5082ZM40.5082 12.6191V18.8906H28.2191V20.3887H41.143V22.9277H25.0453V16.5293H37.2836V15.1074H24.9945V12.6191H40.5082ZM66.8078 0.0761719V7.66797H69.7531V10.334H66.8078V18.1035H63.5578V0.0761719H66.8078ZM67.5949 20.1855V22.7754H51.3195V16.9102H54.5695V20.1855H67.5949ZM48.0695 13.3555C49.7326 13.3555 51.6623 13.3428 53.6809 13.2793V11.9336C51.1672 11.5908 49.593 10.334 49.6184 8.53125C49.593 6.24609 51.8527 4.90039 55.2805 4.92578C58.6828 4.90039 60.9172 6.24609 60.9426 8.53125C60.9172 10.3213 59.3811 11.5781 56.9055 11.9336V13.127C58.8098 13.0127 60.7141 12.835 62.4914 12.5684L62.7199 14.8027C57.8449 15.7422 52.3859 15.793 48.3996 15.8438L48.0695 13.3555ZM61.9074 1.95508V4.26562H48.6789V1.95508H53.6809V0H56.9055V1.95508H61.9074ZM55.2805 7.08398C53.6301 7.08398 52.6906 7.54102 52.716 8.53125C52.6906 9.39453 53.6301 9.87695 55.2805 9.87695C56.9055 9.87695 57.8195 9.39453 57.8449 8.53125C57.8195 7.54102 56.9055 7.08398 55.2805 7.08398ZM80.6813 0.279297C85.9879 0.279297 89.0602 1.67578 89.0855 4.24023C89.0602 6.7793 85.9879 8.17578 80.6813 8.17578C75.3492 8.17578 72.2516 6.7793 72.2516 4.24023C72.2516 1.67578 75.3492 0.279297 80.6813 0.279297ZM80.6813 2.66602C77.2789 2.66602 75.6285 3.17383 75.6539 4.24023C75.6285 5.35742 77.2789 5.81445 80.6813 5.81445C84.109 5.81445 85.734 5.35742 85.734 4.24023C85.734 3.17383 84.109 2.66602 80.6813 2.66602ZM91.2184 9.14062V11.6797H85.9371V13.3047H88.6539V19.1953H75.7809V20.5918H89.2633V23.0293H72.607V16.9355H85.4547V15.666H72.5816V13.3047H75.4508V11.6797H70.1441V9.14062H91.2184ZM78.65 13.3047H82.7125V11.6797H78.65V13.3047ZM102.502 0.40625C107.809 0.40625 110.881 1.80273 110.906 4.3418C110.881 6.90625 107.809 8.30273 102.502 8.30273C97.1699 8.30273 94.0723 6.90625 94.0723 4.3418C94.0723 1.80273 97.1699 0.40625 102.502 0.40625ZM102.502 2.76758C99.0996 2.76758 97.4492 3.32617 97.4746 4.3418C97.4492 5.48438 99.0996 5.91602 102.502 5.91602C105.93 5.91602 107.555 5.48438 107.555 4.3418C107.555 3.32617 105.93 2.76758 102.502 2.76758ZM113.039 9.39453V11.959H91.9648V9.39453H113.039ZM110.475 13.3047V19.1953H97.6016V20.5918H111.084V23.0293H94.4277V16.9355H107.275V15.666H94.4023V13.3047H110.475ZM139.161 0.0761719V23.1816H136.063V0.0761719H139.161ZM134.438 0.40625V22.1152H131.391V14.9551H128.675C127.811 17.2021 126.301 18.4844 124.358 18.4844C121.311 18.4844 119.331 15.2852 119.331 10.0801C119.331 4.90039 121.311 1.72656 124.358 1.72656C126.288 1.72656 127.799 2.9834 128.675 5.20508H131.391V0.40625H134.438ZM124.358 4.77344C123.012 4.77344 122.251 6.55078 122.276 10.0801C122.251 13.6348 123.012 15.3867 124.358 15.3613C125.704 15.3867 126.516 13.6348 126.516 10.0801C126.516 6.55078 125.679 4.77344 124.358 4.77344ZM129.309 7.79492C129.411 8.50586 129.462 9.26758 129.462 10.0801C129.462 10.8799 129.411 11.6416 129.309 12.3398H131.391V7.79492H129.309ZM162.023 11.5273V14.1172H140.948V11.5273H162.023ZM159.458 15.8691V23.1816H156.234V18.4082H143.284V15.8691H159.458ZM153.06 0.152344V2.23438H159.991V4.74805H153.314C153.682 6.41113 156.03 7.92188 161.083 8.22656L160.093 10.6895C155.853 10.3848 152.907 9.14062 151.46 7.26172C150 9.14062 147.055 10.3848 142.827 10.6895L141.837 8.22656C146.864 7.92188 149.213 6.41113 149.607 4.74805H142.98V2.23438H149.861V0.152344H153.06ZM181 0.0761719V9.11523H184.402V11.7812H181V23.1816H177.8V0.0761719H181ZM176.226 3.5293V6.11914H162.642V3.5293H167.873V0.431641H171.123V3.5293H176.226ZM169.498 7.41406C172.875 7.41406 175.388 9.69922 175.388 12.9238C175.388 16.1484 172.875 18.4336 169.498 18.4336C166.095 18.4336 163.582 16.1484 163.582 12.9238C163.582 9.69922 166.095 7.41406 169.498 7.41406ZM169.498 10.0293C167.873 10.0547 166.679 11.1465 166.679 12.9238C166.679 14.7266 167.873 15.793 169.498 15.7676C171.123 15.793 172.291 14.7266 172.291 12.9238C172.291 11.1465 171.123 10.0547 169.498 10.0293ZM196.523 1.95508V3.70703H200.84V0.101562H204.064V16.9102H200.84V11.248H196.523V13.2031H185.555V1.95508H196.523ZM188.779 4.51953V10.6895H193.35V4.51953H188.779ZM204.547 20.1855V22.7754H188.678V15.3105H191.953V20.1855H204.547ZM196.523 8.68359H200.84V6.32227H196.523V8.68359ZM32.2613 39.707C32.2613 42.5 33.8863 45.1914 37.5426 46.334L35.816 48.8477C33.3658 48.0352 31.652 46.4609 30.6617 44.4297C29.6588 46.7656 27.8688 48.5938 25.2281 49.4824L23.4762 46.9434C27.3355 45.6484 28.9859 42.5762 29.0113 39.4023V37.2949H32.2613V39.707ZM42.1637 36.0762V41.4844H45.2867V44.1758H42.1637V49.7871H38.9137V36.0762H42.1637ZM34.5973 50.2441C39.3707 50.2441 42.3922 51.8945 42.3922 54.7129C42.3922 57.5566 39.3707 59.1816 34.5973 59.1816C29.7223 59.1816 26.6754 57.5566 26.6754 54.7129C26.6754 51.8945 29.7223 50.2441 34.5973 50.2441ZM34.5973 52.7832C31.5504 52.7832 29.9 53.4434 29.9254 54.7129C29.9 56.0332 31.5504 56.6426 34.5973 56.6426C37.5934 56.6426 39.193 56.0332 39.193 54.7129C39.193 53.4434 37.5934 52.7832 34.5973 52.7832ZM64.2891 37.1172V38.9707C64.2891 40.7734 64.2891 42.7793 63.7559 45.4199H66.8027V48.0352H45.6523V45.4199H60.4805C60.9883 43.1094 61.0518 41.3193 61.0645 39.707H48.2422V37.1172H64.2891ZM64.2129 50.4727V58.9277H48.166V50.4727H64.2129ZM51.3398 53.0117V56.3379H60.9883V53.0117H51.3398ZM78.0102 36.4062C83.3168 36.4062 86.3891 37.8027 86.4145 40.3418C86.3891 42.9062 83.3168 44.3027 78.0102 44.3027C72.6781 44.3027 69.5805 42.9062 69.5805 40.3418C69.5805 37.8027 72.6781 36.4062 78.0102 36.4062ZM78.0102 38.7676C74.6078 38.7676 72.9574 39.3262 72.9828 40.3418C72.9574 41.4844 74.6078 41.916 78.0102 41.916C81.4379 41.916 83.0629 41.4844 83.0629 40.3418C83.0629 39.3262 81.4379 38.7676 78.0102 38.7676ZM88.5473 45.3945V47.959H67.4731V45.3945H88.5473ZM85.9828 49.3047V55.1953H73.1098V56.5918H86.5922V59.0293H69.9359V52.9355H82.7836V51.666H69.9106V49.3047H85.9828ZM113.476 46.7656V49.3555H97.1242V38.0059H113.298V40.6211H100.323V46.7656H113.476ZM115.786 53.6973V56.3633H94.6359V53.6973H115.786ZM135.804 36.1016V48.9746H132.554V36.1016H135.804ZM128.365 37.1172V43.998H120.849V45.9023C124.709 45.8896 127.425 45.8262 130.548 45.293L130.955 47.8828C127.4 48.4922 124.302 48.5684 119.707 48.5684H117.675V41.5352H125.14V39.707H117.65V37.1172H128.365ZM123.566 49.9395V51.9199H132.58V49.9395H135.804V58.9277H120.341V49.9395H123.566ZM123.566 56.3379H132.58V54.4336H123.566V56.3379ZM157.701 36.0762V59.1816H154.477V36.0762H157.701ZM142.721 38.2852V50.7012C145.844 50.6631 149.195 50.3711 152.598 49.7109L153.004 52.377C148.941 53.2148 145.133 53.4941 141.553 53.4688H139.521V38.2852H142.721ZM178.329 36.0762V44.6582H181.731V47.2988H178.329V59.2324H175.079V36.0762H178.329ZM171.854 38.209V40.8242H164.237V50.9551C167.588 50.917 170.356 50.7646 173.428 50.2188L173.784 52.9355C170.204 53.5449 167.055 53.6465 162.967 53.6211H161.012V38.209H171.854Z" fill="black"/>
</svg>
