<svg width="246" height="38" viewBox="0 0 246 38" fill="none" xmlns="http://www.w3.org/2000/svg">
<path d="M43.2139 11.0625V12.0781H30.4951V11.0625H36.1826V7.65625H37.3857V11.0625H43.2139ZM37.417 2.01562C37.417 4.34375 40.167 6.375 42.5889 6.79688L42.042 7.8125C39.9248 7.38281 37.6904 5.94531 36.792 3.9375C35.8779 5.9375 33.6592 7.38281 31.542 7.8125L30.9951 6.79688C33.417 6.375 36.1357 4.34375 36.1357 2.01562V0.953125H37.417V2.01562ZM50.892 1.29688C50.892 3.25 53.4545 4.95312 55.9545 5.29688L55.4545 6.29688C53.2982 5.9375 51.1654 4.74219 50.267 3.03125C49.3764 4.75 47.2357 5.9375 45.0795 6.29688L44.5795 5.29688C47.0795 4.95312 49.6264 3.28125 49.6264 1.29688V0.5H50.892V1.29688ZM56.5795 7.82812V8.85938H50.8295V13.8906H49.6264V8.85938H43.9232V7.82812H56.5795ZM61.8982 1.01562C64.0857 1.01562 65.6326 2.34375 65.6326 4.28125C65.6326 6.21875 64.0857 7.54688 61.8982 7.54688C59.7107 7.54688 58.1326 6.21875 58.1482 4.28125C58.1326 2.34375 59.7107 1.01562 61.8982 1.01562ZM61.8982 2.09375C60.4139 2.09375 59.3357 2.98438 59.3514 4.28125C59.3357 5.57812 60.4139 6.46875 61.8982 6.46875C63.367 6.46875 64.4295 5.57812 64.4295 4.28125C64.4295 2.98438 63.367 2.09375 61.8982 2.09375ZM68.742 0V13.9219H67.5232V0H68.742ZM57.4295 9.8125C59.992 9.8125 63.5232 9.79688 66.6014 9.34375L66.6951 10.25C63.5232 10.8438 60.1014 10.8594 57.6014 10.8594L57.4295 9.8125ZM78.4576 4.26562C78.4576 6.48438 79.5982 8.76562 81.5045 9.78125L80.7857 10.7031C79.4029 9.94531 78.4029 8.52344 77.8951 6.84375C77.3951 8.625 76.4029 10.1719 75.0201 10.9844L74.2857 10.0781C76.1607 8.98438 77.2857 6.5625 77.3014 4.26562V3.625H74.6139V2.60938H77.3014V0.515625H78.4732V2.60938H81.1295V3.625H78.4576V4.26562ZM86.3326 0V13.8906H85.1451V6.67188H83.2545V13.1875H82.0826V0.296875H83.2545V5.625H85.1451V0H86.3326ZM99.3232 0.015625V10.5156H98.0732V8.5625H95.0107V7.5625H98.0732V0.015625H99.3232ZM99.667 12.5625V13.5938H89.8076V9.34375H91.042V12.5625H99.667ZM87.7295 5.51562C89.5107 5.51562 91.7529 5.49219 93.9639 5.34375C94.2373 3.80469 94.2842 2.65625 94.292 1.85938H88.9795V0.859375H95.5107V1.40625C95.5107 2.17188 95.5107 3.47656 95.2139 5.23438C95.7607 5.19531 96.292 5.13281 96.8076 5.0625L96.9014 5.95312C95.6045 6.17188 94.2451 6.30469 92.917 6.39062V9.59375H91.6982V6.45312C90.3232 6.51562 89.0264 6.53125 87.9014 6.53125L87.7295 5.51562ZM107.579 0.25C110.673 0.25 112.486 1.09375 112.486 2.64062C112.486 4.21875 110.673 5.0625 107.579 5.07812C104.486 5.0625 102.658 4.21875 102.658 2.64062C102.658 1.09375 104.486 0.25 107.579 0.25ZM107.579 1.17188C105.267 1.17188 103.923 1.73438 103.939 2.64062C103.923 3.60938 105.267 4.14062 107.579 4.14062C109.876 4.14062 111.236 3.60938 111.236 2.64062C111.236 1.73438 109.876 1.17188 107.579 1.17188ZM113.908 6.01562V7.01562H101.251V6.01562H113.908ZM112.283 8.21875V11.3281H104.033V12.7656H112.704V13.7344H102.814V10.4219H111.079V9.15625H102.783V8.21875H112.283ZM131.014 11.0781V12.1094H118.295V11.0781H124.014V7.6875H119.795V1.17188H129.436V7.6875H125.217V11.0781H131.014ZM120.998 2.15625V6.70312H128.248V2.15625H120.998ZM142.801 5.20312V6.1875H133.473V0.828125H142.614V1.84375H134.723V5.20312H142.801ZM144.426 8.03125V9.03125H138.629V13.8438H137.426V9.03125H131.708V8.03125H144.426ZM149.698 1.01562C151.886 1.01562 153.433 2.34375 153.433 4.28125C153.433 6.21875 151.886 7.54688 149.698 7.54688C147.511 7.54688 145.933 6.21875 145.948 4.28125C145.933 2.34375 147.511 1.01562 149.698 1.01562ZM149.698 2.09375C148.214 2.09375 147.136 2.98438 147.151 4.28125C147.136 5.57812 148.214 6.46875 149.698 6.46875C151.167 6.46875 152.229 5.57812 152.229 4.28125C152.229 2.98438 151.167 2.09375 149.698 2.09375ZM156.542 0V13.9219H155.323V0H156.542ZM145.229 9.8125C147.792 9.8125 151.323 9.79688 154.401 9.34375L154.495 10.25C151.323 10.8438 147.901 10.8594 145.401 10.8594L145.229 9.8125ZM166.258 4.26562C166.258 6.48438 167.398 8.76562 169.304 9.78125L168.586 10.7031C167.203 9.94531 166.203 8.52344 165.695 6.84375C165.195 8.625 164.203 10.1719 162.82 10.9844L162.086 10.0781C163.961 8.98438 165.086 6.5625 165.101 4.26562V3.625H162.414V2.60938H165.101V0.515625H166.273V2.60938H168.929V3.625H166.258V4.26562ZM174.133 0V13.8906H172.945V6.67188H171.054V13.1875H169.883V0.296875H171.054V5.625H172.945V0H174.133ZM187.123 0.015625V10.5156H185.873V8.5625H182.811V7.5625H185.873V0.015625H187.123ZM187.467 12.5625V13.5938H177.608V9.34375H178.842V12.5625H187.467ZM175.529 5.51562C177.311 5.51562 179.553 5.49219 181.764 5.34375C182.037 3.80469 182.084 2.65625 182.092 1.85938H176.779V0.859375H183.311V1.40625C183.311 2.17188 183.311 3.47656 183.014 5.23438C183.561 5.19531 184.092 5.13281 184.608 5.0625L184.701 5.95312C183.404 6.17188 182.045 6.30469 180.717 6.39062V9.59375H179.498V6.45312C178.123 6.51562 176.826 6.53125 175.701 6.53125L175.529 5.51562ZM195.379 0.90625C198.286 0.90625 200.458 2.42188 200.458 4.71875C200.458 7.03125 198.286 8.54688 195.379 8.53125C192.473 8.54688 190.301 7.03125 190.301 4.71875C190.301 2.42188 192.473 0.90625 195.379 0.90625ZM195.379 1.90625C193.145 1.89062 191.458 3.0625 191.473 4.71875C191.458 6.40625 193.145 7.53125 195.379 7.53125C197.598 7.53125 199.27 6.40625 199.27 4.71875C199.27 3.0625 197.598 1.89062 195.379 1.90625ZM201.77 11.0156V12.0469H189.051V11.0156H201.77ZM215.198 11.1406V12.1719H202.479V11.1406H208.198V8.51562H204.073V4.23438H212.386V2.04688H204.042V1.03125H213.589V5.23438H205.292V7.5H213.917V8.51562H209.401V11.1406H215.198ZM12.7186 35.0781V36.1094H-0.000198364V35.0781H5.71855V31.6875H1.4998V25.1719H11.1404V31.6875H6.92168V35.0781H12.7186ZM2.70293 26.1562V30.7031H9.95293V26.1562H2.70293ZM24.5061 29.2031V30.1875H15.1779V24.8281H24.3186V25.8438H16.4279V29.2031H24.5061ZM26.1311 32.0312V33.0312H20.3342V37.8438H19.1311V33.0312H13.4123V32.0312H26.1311ZM38.7623 24V37.8906H37.5748V24H38.7623ZM35.9654 24.2969V37.1875H34.7936V30.4375H33.0123C32.8795 33.1406 31.7311 34.8281 30.0123 34.8281C28.1998 34.8281 27.0279 32.9531 27.0279 30C27.0279 27.0469 28.1998 25.1719 30.0123 25.1719C31.6998 25.1719 32.8404 26.8047 32.9967 29.4219H34.7936V24.2969H35.9654ZM30.0123 26.3281C28.8873 26.3281 28.1686 27.7344 28.1842 30C28.1686 32.25 28.8873 33.6719 30.0123 33.6562C31.1373 33.6719 31.8561 32.25 31.8561 30C31.8561 27.7344 31.1373 26.3281 30.0123 26.3281ZM52.1748 24V37.8906H51.0029V24H52.1748ZM49.2529 24.375V37.1875H48.0811V30.7031H45.1436C44.292 32.3203 42.9561 33.75 41.0186 34.8906L40.2998 34C43.3232 32.2109 44.8389 29.7031 45.0654 26.7969H40.8936V25.7812H46.2842C46.2764 27.1484 46.0576 28.4688 45.5967 29.7031H48.0811V24.375H49.2529ZM69.9998 30.875V31.8594H57.3279V30.875H63.0623V29.25H58.9373V24.6562H68.4217V25.6406H60.1404V28.25H68.5154V29.25H64.2498V30.875H69.9998ZM63.6561 32.875C66.6404 32.875 68.4217 33.7812 68.4373 35.375C68.4217 36.9844 66.6404 37.875 63.6561 37.8906C60.6561 37.875 58.8592 36.9844 58.8592 35.375C58.8592 33.7812 60.6561 32.875 63.6561 32.875ZM63.6561 33.8438C61.4217 33.8438 60.0936 34.4219 60.1092 35.375C60.0936 36.3438 61.4217 36.9062 63.6561 36.9062C65.8592 36.9062 67.2029 36.3438 67.2029 35.375C67.2029 34.4219 65.8592 33.8438 63.6561 33.8438ZM74.6936 24.5156C76.7717 24.5312 78.2873 25.7812 78.2873 27.5938C78.2873 29.4062 76.7717 30.6562 74.6936 30.6562C72.5842 30.6562 71.0842 29.4062 71.0842 27.5938C71.0842 25.7812 72.5842 24.5312 74.6936 24.5156ZM74.6936 25.5469C73.3029 25.5469 72.2717 26.3906 72.2873 27.5938C72.2717 28.8125 73.3029 29.6562 74.6936 29.6562C76.0686 29.6562 77.0998 28.8125 77.0998 27.5938C77.0998 26.3906 76.0686 25.5469 74.6936 25.5469ZM82.2248 24V31.1406H81.0061V24H82.2248ZM82.2248 31.8125V35.1562H74.4279V36.7188H82.7248V37.7031H73.2248V34.2344H81.0061V32.7969H73.1936V31.8125H82.2248ZM95.0435 24.0156V28.5938H97.1373V29.625H95.0435V34.4219H93.8248V24.0156H95.0435ZM92.4967 25.7188V26.7188H84.2154V25.7188H87.7467V24.0156H88.9654V25.7188H92.4967ZM88.356 27.4844C90.3404 27.4844 91.6842 28.5 91.6998 30.0781C91.6842 31.6406 90.3404 32.6406 88.356 32.6406C86.356 32.6406 84.9967 31.6406 85.0123 30.0781C84.9967 28.5 86.356 27.4844 88.356 27.4844ZM88.356 28.4531C87.0435 28.4531 86.1685 29.0938 86.1842 30.0781C86.1685 31.0625 87.0435 31.6875 88.356 31.6719C89.6529 31.6875 90.5279 31.0625 90.5435 30.0781C90.5279 29.0938 89.6529 28.4531 88.356 28.4531ZM95.6842 36.5625V37.5938H86.356V33.5938H87.5592V36.5625H95.6842ZM113.931 32.4219V33.4375H108.15V37.8906H106.947V33.4375H101.212V32.4219H113.931ZM112.494 29.9844V30.9844H102.915V24.6562H112.337V25.6562H104.134V27.2812H112.009V28.2656H104.134V29.9844H112.494ZM119.359 28.2656C119.344 30.5 120.953 32.9531 122.969 33.9062L122.265 34.875C120.703 34.1172 119.383 32.4609 118.765 30.5781C118.125 32.625 116.726 34.4219 115.172 35.2188L114.422 34.25C116.422 33.2812 118.14 30.6406 118.156 28.2656V26.4531H114.922V25.4375H122.484V26.4531H119.359V28.2656ZM125.406 24V29.625H127.734V30.6719H125.406V37.8906H124.187V24H125.406ZM143.184 24V37.8906H141.95V24H143.184ZM139.075 25.5156C139.059 29.5156 137.2 33.0469 132.544 35.2812L131.872 34.2812C135.629 32.5 137.544 29.8359 137.825 26.5156H132.512V25.5156H139.075ZM156.519 24V37.8906H155.3V24H156.519ZM145.206 34.1875C146.394 34.1797 147.753 34.1719 149.159 34.125V32.6094C147.495 32.4297 146.409 31.4844 146.425 30.0938C146.409 28.5312 147.753 27.5156 149.753 27.5156C151.753 27.5156 153.112 28.5312 153.112 30.0938C153.112 31.4688 152.034 32.4141 150.394 32.5938V34.0781C151.737 34.0234 153.097 33.9219 154.378 33.75L154.472 34.6875C151.378 35.1875 147.972 35.2344 145.394 35.2344L145.206 34.1875ZM154.019 25.7188V26.7188H145.503V25.7188H149.159V24.0156H150.394V25.7188H154.019ZM149.753 28.4688C148.472 28.4688 147.565 29.125 147.565 30.0938C147.565 31.0625 148.472 31.6875 149.753 31.6719C151.05 31.6875 151.94 31.0625 151.94 30.0938C151.94 29.125 151.05 28.4688 149.753 28.4688ZM171.259 30.4531V31.4219H158.54V30.4531H171.259ZM169.665 32.5312V35.4844H161.322V36.8125H170.119V37.7031H160.087V34.6406H168.447V33.4531H160.072V32.5312H169.665ZM169.619 24.4219V27.2969H161.415V28.5156H169.869V29.4062H160.197V26.4531H168.384V25.3125H160.15V24.4219H169.619ZM187.475 24V37.8906H186.303V24H187.475ZM184.662 24.3438V37.1719H183.506V30.0156H181.162V29.0156H183.506V24.3438H184.662ZM179.678 27.9688C179.678 30.375 180.756 32.7656 182.678 33.875L181.928 34.7812C180.561 33.9609 179.592 32.4609 179.115 30.6875C178.608 32.6016 177.6 34.2344 176.209 35.1094L175.428 34.1875C177.365 33.0312 178.49 30.5 178.49 27.9688V26.6562H175.819V25.6406H182.225V26.6562H179.678V27.9688ZM195.309 32.7812C198.294 32.7812 200.184 33.7188 200.184 35.3281C200.184 36.9219 198.294 37.8594 195.309 37.8594C192.34 37.8594 190.45 36.9219 190.45 35.3281C190.45 33.7188 192.34 32.7812 195.309 32.7812ZM195.309 33.7188C193.09 33.7344 191.653 34.3438 191.669 35.3281C191.653 36.2969 193.09 36.8906 195.309 36.8906C197.528 36.8906 198.95 36.2969 198.965 35.3281C198.95 34.3438 197.528 33.7344 195.309 33.7188ZM200.075 24.7188V25.8906C200.075 27.0156 200.075 28.1406 199.684 29.5781L198.481 29.4375C198.856 28 198.856 26.9844 198.856 25.8906V25.7188H190.544V24.7188H200.075ZM201.684 30.4844V31.4844H189.044V30.4844H194.278V27.7969H195.481V30.4844H201.684ZM213.315 24V27.5625H215.409V28.6094H213.315V32.0781H212.097V24H213.315ZM205.753 32.6875V34.1719H212.097V32.6875H213.315V37.7031H204.534V32.6875H205.753ZM205.753 36.7188H212.097V35.1406H205.753V36.7188ZM210.769 25.4375V26.4531H202.487V25.4375H206.019V23.875H207.237V25.4375H210.769ZM206.628 27.0938C208.628 27.0938 209.956 28.0469 209.972 29.5312C209.956 31.0156 208.628 31.9688 206.628 31.9688C204.612 31.9688 203.269 31.0156 203.284 29.5312C203.269 28.0469 204.612 27.0938 206.628 27.0938ZM206.628 28.0469C205.315 28.0312 204.44 28.6406 204.456 29.5312C204.44 30.4375 205.315 31.0312 206.628 31.0312C207.925 31.0312 208.8 30.4375 208.815 29.5312C208.8 28.6406 207.925 28.0312 206.628 28.0469ZM227.337 24V37.8906H226.119V24H227.337ZM217.994 25.375V33.25C220.111 33.2422 222.306 33.0703 224.634 32.5781L224.806 33.625C222.337 34.1406 220.134 34.3125 217.915 34.3125H216.79V25.375H217.994ZM240.062 24V29.5H242.39V30.5312H240.062V37.9219H238.844V24H240.062ZM236.406 25.3594V26.375H231.14V33.4062C233.656 33.4062 235.437 33.2891 237.5 32.9062L237.656 33.9688C235.484 34.3594 233.656 34.4375 231.015 34.4375H229.922V25.3594H236.406ZM244.209 36.7188C243.662 36.7188 243.194 36.2656 243.209 35.7031C243.194 35.1562 243.662 34.7031 244.209 34.7031C244.756 34.7031 245.209 35.1562 245.209 35.7031C245.209 36.2656 244.756 36.7188 244.209 36.7188Z" fill="#767676"/>
</svg>
