<svg width="60" height="50" viewBox="0 0 60 50" fill="none" xmlns="http://www.w3.org/2000/svg">
<g clip-path="url(#clip0_379_27599)">
<path d="M3.57338 16.2517C3.45874 17.7499 3.39211 19.2521 3.36958 20.7542C3.3441 22.4146 2.87184 23.1365 1.22088 23.5884C0.825039 23.6952 0.525221 23.8535 0.321422 24.0591C0.288109 24.0928 0.227362 24.07 0.227362 24.0216C0.192089 22.3849 0.179351 19.7772 0.190129 16.2013C0.192089 15.4596 0.1382 14.7239 0.0235632 13.9931C-0.00974997 7.65421 -0.00779037 3.5018 0.0274824 1.53685C0.0333612 1.12249 0.247937 0.748689 0.666312 0.417406C1.28163 -0.0721018 1.95965 -0.131436 2.70332 0.241381C3.37154 0.575631 3.56946 1.10667 3.57142 1.8889C3.58807 6.67717 3.58808 11.4654 3.57338 16.2527V16.2517Z" fill="#CBBEFE"/>
<path d="M53.747 16.2854C50.4803 18.5945 47.3204 19.3589 43.2778 20.1599C43.217 20.1728 43.1739 20.2252 43.1739 20.2855C43.1494 22.0972 43.1534 24.074 43.1534 26.1962C43.0995 21.3258 43.1681 18.1168 43.1347 16.5751C43.124 16.1084 43.0642 15.6545 42.9535 15.2114C42.9515 15.2025 42.9427 15.1966 42.9329 15.1966C42.9221 15.1986 42.9162 15.2055 42.9162 15.2154L42.8888 23.3452L42.8829 6.60501C42.8829 6.55062 42.8888 6.49623 42.9015 6.44283C43.22 5.10879 44.0773 4.44227 45.4706 4.44227C47.3861 4.44227 49.1096 4.43832 50.642 4.4314C51.564 4.42546 52.193 4.52831 52.5281 4.73993C53.6108 5.4203 53.746 6.25889 53.7499 7.61171C53.7626 10.5171 53.7626 13.4067 53.7479 16.2834L53.747 16.2854Z" fill="#FF9F6D"/>
<path d="M3.57329 16.2516L3.57721 46.075C3.57721 46.2114 3.68498 46.3212 3.82118 46.3212C5.95126 46.3192 24.0149 46.3192 58.01 46.3212C59.563 46.3212 60.6084 47.8866 59.6051 49.2375C59.0241 50.0217 58.108 49.9752 57.1213 49.9752C33.8971 49.9732 16.6761 49.9811 5.45744 49.9999C5.19094 49.9999 4.40612 49.9891 3.10494 49.9663C1.7293 49.9436 0.791635 49.3908 0.298796 48.3059C0.104795 47.8777 0.00975471 47.2201 0.0117143 46.3351C0.0509063 35.0012 -0.0235585 24.5465 0.0244517 13.9919C0.139088 14.7227 0.192977 15.4585 0.191018 16.2002C0.18024 19.776 0.192977 22.3838 0.22825 24.0204C0.22825 24.0689 0.288998 24.0916 0.322311 24.058C0.526109 23.8523 0.825928 23.6941 1.22177 23.5873C2.87273 23.1354 3.34499 22.4125 3.37047 20.7531C3.393 19.2509 3.45963 17.7488 3.57427 16.2506L3.57329 16.2516Z" fill="#AF95F9"/>
<path d="M38.2474 27.4441C38.1769 27.3522 38.1367 27.4125 38.1269 27.6251C37.9878 30.4494 37.8996 33.2628 37.8604 36.0634C37.8604 36.1119 37.8085 36.1435 37.7663 36.1198L27.3305 30.5354C27.3246 26.5828 27.3305 22.6371 27.3452 18.6973C27.3511 17.3019 27.4598 16.4198 27.6724 16.05C28.1075 15.2915 28.8864 14.9068 30.0063 14.8969C32.9438 14.8742 34.9818 14.884 36.1222 14.9325C36.1996 14.9365 36.2761 14.9493 36.3515 14.9701C38.2856 15.5209 38.2749 17.204 38.2749 19.0295C38.2729 21.8341 38.2641 24.6396 38.2474 27.4441Z" fill="#F46D84"/>
<path d="M53.747 16.2853C53.7577 24.2005 53.7558 32.0959 53.7411 39.9775C53.7391 41.093 53.6392 41.8139 53.4393 42.1442C52.8357 43.1321 52.0401 43.3843 50.7958 43.3961C48.845 43.4149 47.2607 43.4189 46.0408 43.4129C45.5039 43.409 44.7985 43.409 44.2939 43.1904C43.3572 42.781 42.8869 42.0117 42.8849 40.8813C42.8702 35.0359 42.8722 29.1905 42.8888 23.3451L42.9163 15.2153C42.9163 15.2044 42.9221 15.1985 42.9329 15.1965C42.9437 15.1965 42.9515 15.2025 42.9535 15.2114C43.0642 15.6544 43.124 16.1083 43.1347 16.5751C43.1681 18.1178 43.0995 21.3258 43.1534 26.1961C43.1534 24.0739 43.1494 22.0971 43.1739 20.2854C43.1739 20.2241 43.218 20.1717 43.2778 20.1598C47.3205 19.3588 50.4813 18.5944 53.747 16.2853Z" fill="#FD8270"/>
<path d="M22.7285 40.6975C22.7304 42.1818 21.5409 43.3863 20.0703 43.3893L14.358 43.3991C12.8873 43.4021 11.692 42.2006 11.691 40.7162L11.6646 25.6424C11.6626 24.158 12.8521 22.9535 14.3227 22.9506L20.035 22.9407C21.5057 22.9377 22.701 24.1392 22.702 25.6236L22.7285 40.6975Z" fill="#9782FC"/>
<path d="M38.2475 27.444C38.2475 31.9218 38.2436 36.3995 38.2367 40.8812C38.2348 41.8642 37.8556 42.5812 37.1002 43.0282C36.6632 43.2863 35.9077 43.4168 34.8329 43.4168C31.7289 43.4168 30.1054 43.4148 29.9613 43.4079C28.8473 43.3683 28.0772 42.95 27.6461 42.1579C27.4442 41.7861 27.3423 40.8822 27.3443 39.4434C27.3462 36.4658 27.3423 33.4971 27.3296 30.5343L37.7654 36.1187C37.8066 36.1414 37.8595 36.1098 37.8595 36.0623C37.8987 33.2617 37.9869 30.4483 38.126 27.624C38.1368 27.4114 38.176 27.3511 38.2465 27.443L38.2475 27.444Z" fill="#EB6792"/>
</g>
<defs>
<clipPath id="clip0_379_27599">
<rect width="60" height="50" fill="white"/>
</clipPath>
</defs>
</svg>
