<svg width="52" height="52" viewBox="0 0 52 52" fill="none" xmlns="http://www.w3.org/2000/svg">
<path fill-rule="evenodd" clip-rule="evenodd" d="M35.893 -0.000173054C27.0031 -0.0155078 19.7913 2.4521 19.7862 5.51138C19.7811 8.57065 26.9838 11.0638 35.8738 11.0792C44.7637 11.0945 51.9755 8.62688 51.9806 5.5676C51.9857 2.50833 44.783 0.0151617 35.893 -0.000173054ZM20.1644 10.2051C20.0439 10.1335 19.8926 10.2127 19.8811 10.3533C19.7926 11.4753 19.7849 12.7839 19.8542 14.2752C19.9067 15.3307 20.4452 16.1128 21.4747 16.6201C22.6273 17.19 23.7261 17.6322 24.7633 17.9478C28.2108 18.9931 31.7109 19.5273 35.2635 19.558C39.8175 19.5938 43.5932 19.1657 46.5869 18.2686C48.3036 17.7561 51.6383 16.6175 51.8037 14.656C51.928 13.1775 51.9024 11.7564 51.7344 10.3942C51.7178 10.2549 51.5549 10.1859 51.4434 10.2677C49.6934 11.5481 48.0369 12.0976 45.5856 12.7468C44.2919 13.0918 43.065 13.2081 41.6816 13.4458C40.5508 13.6439 39.5688 13.7615 38.7316 13.7998C34.302 14.0055 29.8967 13.5532 25.5184 12.4478C23.7055 11.9903 21.9196 11.2414 20.167 10.2038L20.1644 10.2051ZM31.3391 22.492C31.2339 22.3744 31.3224 22.1904 31.4788 22.1955C34.4173 22.2965 37.1443 22.2863 39.6598 22.1623C43.8753 21.9591 47.9254 20.9445 51.5088 18.6852C51.6357 18.6059 51.8062 18.6826 51.8255 18.8334C52.0485 20.4959 52.0588 21.9872 51.8588 23.3124C51.6767 24.5251 49.7126 25.6407 48.6856 26.0739C45.9971 27.2151 43.3535 27.8783 40.756 28.0623C39.1239 28.1799 37.4405 28.2055 35.7046 28.139C35.3635 28.1275 35.0584 27.9307 34.9071 27.6266C34.0622 25.9232 32.8737 24.2121 31.3416 22.492H31.3391ZM16.2464 18.7452C7.00256 19.0174 -0.266848 26.6822 0.00751781 35.8639C0.280602 45.0443 7.99361 52.2656 17.2361 51.9934C26.4787 51.7212 33.7494 44.0552 33.475 34.8748C33.2019 25.6944 25.4889 18.473 16.2464 18.7452ZM19.9824 42.8565C19.1157 43.199 18.6426 43.3919 18.5631 43.4354C18.4772 43.4814 18.4003 43.5427 18.3375 43.6143C18.2682 43.6935 18.1721 44.0232 18.0464 44.6047C17.8041 45.7151 17.0502 46.0972 15.9771 45.5069C15.7105 45.3612 15.5451 45.0813 15.5451 44.7797V44.0041C15.5451 43.76 15.3823 43.5491 15.1489 43.4827C12.9091 42.8514 11.3488 41.8866 11.2283 39.3001C11.2142 39.0228 11.4014 38.7736 11.677 38.711C12.3681 38.5526 13.0835 38.6484 13.8284 38.9985C14.1886 39.166 14.5245 39.9864 14.8322 40.2854C15.8592 41.286 17.5695 41.2157 18.6182 40.302C20.0131 39.0893 19.0221 37.5763 17.6631 37.014C17.24 36.8415 16.2105 36.4568 14.5733 35.8677C13.0489 35.3169 11.9835 34.4199 11.6565 32.779C11.3155 31.0731 11.4424 30.0035 12.5565 28.7498C13.063 28.1825 14.4912 27.6061 14.981 27.3761C15.1566 27.2905 15.2861 27.1295 15.3246 26.9378C15.4835 26.1647 15.481 25.4401 16.3515 25.1666C16.8554 25.0082 17.3259 25.104 17.7656 25.458C17.8541 25.5296 17.9118 25.628 17.9285 25.7379L18.0939 26.879C18.1323 27.1589 18.3169 27.394 18.5759 27.5039C20.2157 28.2029 21.5196 29.1882 21.9773 30.9874C22.0401 31.2392 21.8863 31.4948 21.6337 31.5523C20.9042 31.7222 20.2555 31.7273 19.6849 31.5689C19.5362 31.528 19.4093 31.4296 19.3324 31.298C18.8157 30.429 18.0003 29.9293 16.8861 29.8003C15.2656 29.6111 14.0463 30.8264 14.6989 32.4775C14.7451 32.595 14.8284 32.6973 14.9322 32.7675C15.5682 33.1982 15.9977 33.4538 16.2195 33.5304C17.7362 34.0493 19.0477 34.586 20.1567 35.1483C22.2119 36.1872 22.6773 38.2178 22.1401 40.3378C21.8286 41.5748 21.108 42.4169 19.9824 42.8616V42.8565ZM36.393 36.6306C36.3879 36.7546 36.4892 36.8555 36.6135 36.8504C41.0072 36.6856 45.2868 36.3789 49.0651 34.5438C50.0972 34.0416 51.5883 33.2851 51.7562 32.3113C51.996 30.9159 51.996 29.3709 51.7588 27.6815C51.7344 27.4975 51.5216 27.4017 51.3678 27.5065C49.6728 28.6336 47.8343 29.4322 45.851 29.9038C42.7227 30.6475 39.5546 31.0283 36.352 31.0526C36.2315 31.0552 36.1379 31.16 36.1533 31.2801C36.3866 33.0678 36.4674 34.8505 36.393 36.6306ZM33.9327 45.5247C33.8558 45.5222 33.8032 45.4391 33.8366 45.3688C34.6481 43.5453 35.3225 41.6962 35.8648 39.8177C35.9007 39.6912 36.0161 39.6068 36.1456 39.6043C37.552 39.5825 38.9636 39.525 40.3752 39.4292C43.6471 39.2043 46.7587 38.4478 49.3818 37.1852C50.0177 36.8785 50.7216 36.522 51.4972 36.1182C51.6267 36.0492 51.7832 36.1348 51.7973 36.2805C51.9178 37.6133 51.9511 38.8452 51.8985 39.9749C51.7716 42.6431 48.5113 43.4827 46.4587 44.1817C45.6253 44.4641 44.5266 44.7248 43.1624 44.9574C40.0752 45.489 36.9995 45.6781 33.934 45.5247H33.9327Z" fill="#F7C010"/>
</svg>
