<svg width="120" height="123" viewBox="0 0 120 123" fill="none" xmlns="http://www.w3.org/2000/svg">
<g clip-path="url(#clip0_379_27587)">
<path d="M119.897 27.1867C119.897 24.2916 116.3 22.0252 111.644 20.3087C118.334 17.8416 120 15.2668 120 13.3184C120 10.6504 116.878 6.81102 102.008 3.67446C90.7786 1.30531 75.8608 0 60.0012 0C44.1416 0 29.2214 1.30531 17.9918 3.67446C3.12173 6.81102 0 10.6504 0 13.3184C0 15.2668 1.66604 17.8392 8.35647 20.3087C3.70018 22.0252 0.102783 24.2916 0.102783 27.1867C0.102783 30.0818 3.85555 32.4438 8.65526 34.1746C3.90813 35.8864 0.205565 38.1527 0.205565 41.055C0.205565 43.9573 4.0635 46.3168 8.95166 48.0429C4.1137 49.7499 0.305958 52.0186 0.305958 54.9233C0.305958 57.8279 4.26907 60.1875 9.24327 61.9088C2.14648 64.3616 0.40635 66.8981 0.40635 68.7939C0.40635 71.7703 4.49854 74.0749 9.58269 75.789C3.67388 77.8068 0.509133 80.1687 0.509133 82.6622C0.509133 85.1557 3.7934 87.6061 9.91973 89.6501C3.86033 91.6702 0.611916 94.0394 0.611916 96.5329C0.611916 99.0264 3.97506 101.477 10.24 103.521C4.04199 105.543 0.714698 107.912 0.714698 110.404C0.714698 113.801 6.90317 116.976 18.1376 119.347C29.3194 121.707 44.187 123.005 59.9964 123.005C75.8058 123.005 90.6735 121.707 101.855 119.347C113.092 116.976 119.278 113.801 119.278 110.404C119.278 107.915 115.951 105.543 109.753 103.521C116.018 101.477 119.381 99.0694 119.381 96.5329C119.381 93.9964 116.132 91.6726 110.073 89.6501C116.197 87.6085 119.481 85.2035 119.481 82.6646C119.481 80.1257 116.319 77.8115 110.415 75.7938C117.791 73.3051 119.584 70.7208 119.584 68.7963C119.584 65.8869 115.669 63.6181 110.74 61.916C115.719 60.1971 119.687 57.8949 119.687 54.928C119.687 51.9612 115.879 49.7546 111.041 48.0453C115.932 46.3192 119.787 44.0194 119.787 41.0574C119.787 38.0953 116.085 35.8887 111.338 34.177C116.137 32.4462 119.89 30.1487 119.89 27.1891L119.897 27.1867ZM1.67321 13.3184C1.67321 12.2641 2.87552 8.57294 18.3383 5.31207C29.458 2.96682 44.2539 1.67347 60.0012 1.67347C75.7485 1.67347 90.5444 2.96443 101.664 5.31207C117.127 8.57533 118.329 12.2665 118.329 13.3184C118.329 14.1719 117.54 16.7514 109.043 19.4338C106.736 18.7237 104.298 18.1308 101.987 17.6431C90.7643 15.2764 75.8536 13.9711 60.0012 13.9711C44.1488 13.9711 29.2381 15.274 18.0157 17.6431C15.7042 18.1308 13.2661 18.7261 10.9595 19.4338C2.462 16.7514 1.67321 14.1719 1.67321 13.3184ZM106.392 20.2036C104.987 20.5813 103.416 20.9566 101.662 21.3272C90.542 23.6724 75.7461 24.9658 59.9988 24.9658C44.2515 24.9658 29.4556 23.6748 18.336 21.3272C16.5815 20.9566 15.0134 20.5813 13.6056 20.2036C15.0613 19.8115 16.6317 19.4338 18.3144 19.0799C29.4413 16.7323 44.2444 15.4389 59.9988 15.4389C75.7532 15.4389 90.5563 16.7323 101.683 19.0799C103.366 19.4338 104.936 19.8115 106.392 20.2036ZM119.044 110.399C119.044 117.215 92.557 122.761 59.9988 122.761C27.4406 122.761 0.956118 117.215 0.956118 110.399C0.956118 107.903 4.5081 105.579 10.6034 103.636C12.7785 104.329 15.2883 104.977 18.1184 105.574C29.3074 107.934 44.1822 109.235 59.9988 109.235C75.8154 109.235 90.6902 107.934 101.879 105.574C104.709 104.977 107.219 104.329 109.394 103.636C115.49 105.582 119.041 107.905 119.041 110.399H119.044ZM11.3587 103.399C22.017 100.162 39.8438 98.0342 60.0012 98.0342C80.1586 98.0342 97.9854 100.162 108.644 103.399C106.626 104.018 104.336 104.601 101.791 105.137C90.6304 107.492 75.7891 108.787 60.0012 108.787C44.2133 108.787 29.372 107.492 18.2117 105.137C15.666 104.599 13.3761 104.016 11.3587 103.399ZM118.941 96.5305C118.941 98.914 115.408 101.278 109.021 103.284C106.93 102.634 104.54 102.022 101.858 101.458C90.6759 99.0981 75.8082 97.7999 59.9988 97.7999C44.1894 97.7999 29.3218 99.0981 18.14 101.458C15.458 102.024 13.0677 102.636 10.9762 103.284C4.59176 101.281 1.05651 98.914 1.05651 96.5305C1.05651 94.147 4.46985 91.8663 10.6416 89.8844C12.8048 90.5705 15.2931 91.2136 18.0945 91.8065C29.2907 94.1685 44.1703 95.469 59.9964 95.469C75.8226 95.469 90.7021 94.1685 101.898 91.8065C104.7 91.216 107.19 90.5729 109.354 89.8844C115.525 91.8663 118.939 94.19 118.939 96.5305H118.941ZM11.7387 89.5426C13.6629 88.9664 15.8238 88.4237 18.2093 87.9217C29.3696 85.5669 44.2109 84.2711 59.9988 84.2711C75.7867 84.2711 90.6281 85.5669 101.788 87.9217C104.174 88.4261 106.337 88.9688 108.261 89.5426C106.335 90.1187 104.164 90.6638 101.769 91.1682C90.6161 93.5206 75.7819 94.8164 60.0012 94.8164C44.2205 94.8164 29.3863 93.5206 18.2332 91.1682C15.8381 90.6638 13.6677 90.1163 11.7411 89.5426H11.7387ZM118.838 82.6622C118.838 85.0003 115.344 87.3264 109.024 89.3107C106.935 88.6628 104.552 88.0508 101.882 87.4866C90.6926 85.127 75.8178 83.8265 60.0012 83.8265C44.1846 83.8265 29.3098 85.127 18.1208 87.4866C15.4485 88.0508 13.0654 88.6604 10.9786 89.3083C4.65869 87.324 1.16407 84.9979 1.16407 82.6598C1.16407 80.3217 4.532 78.0841 10.6296 76.1237C13.0486 76.884 15.6349 77.5175 18.0802 78.0339C29.2835 80.3982 44.1703 81.6988 60.0036 81.6988C75.8369 81.6988 90.7237 80.3959 101.927 78.0339C104.855 77.4171 107.317 76.7764 109.387 76.1261C115.478 78.0841 118.843 80.3672 118.843 82.6598L118.838 82.6622ZM12.0973 75.6743C13.9354 75.1364 15.9815 74.6272 18.2308 74.1514C29.3839 71.799 44.2181 70.5033 59.9988 70.5033C75.7795 70.5033 90.6137 71.799 101.767 74.1514C104.016 74.6272 106.062 75.1364 107.9 75.6743C106.06 76.2122 104.004 76.7238 101.745 77.1995C90.5994 79.5519 75.7724 80.8453 59.9988 80.8453C44.2252 80.8453 29.3982 79.5496 18.2523 77.1995C15.9935 76.7238 13.9378 76.2122 12.0973 75.6743ZM118.738 68.7939C118.738 71.0842 115.279 73.3745 109.024 75.3372C106.939 74.6893 104.563 74.0797 101.903 73.5203C90.7069 71.1583 75.8273 69.8578 60.0012 69.8578C44.1751 69.8578 29.2955 71.1583 18.0993 73.5203C15.4389 74.0821 13.063 74.6893 10.9762 75.3372C4.72322 73.3745 1.26447 71.0842 1.26447 68.7939C1.26447 66.5037 4.59654 64.2995 10.6249 62.363C13.0391 63.1209 15.6182 63.7544 18.0563 64.2684C29.2668 66.6328 44.1607 67.9357 60.0012 67.9357C75.8393 67.9357 90.7356 66.6328 101.944 64.2684C104.382 63.7544 106.961 63.1209 109.375 62.363C115.406 64.2995 118.736 66.5467 118.736 68.7939H118.738ZM12.4941 61.7964C14.2342 61.2992 16.156 60.8282 18.2547 60.3836C29.4006 58.0311 44.2276 56.7378 60.0012 56.7378C75.7748 56.7378 90.6018 58.0335 101.748 60.3836C103.861 60.8282 105.792 61.304 107.539 61.806C105.787 62.308 103.846 62.7838 101.726 63.2332C90.5874 65.5833 75.7676 66.8766 60.0012 66.8766C39.3562 66.8766 22.7054 64.7346 12.4941 61.7964ZM118.635 54.9233C118.635 57.1657 115.219 59.4153 109.043 61.3542C106.72 60.6394 104.258 60.0393 101.925 59.5468C90.7213 57.1824 75.8345 55.8819 60.0012 55.8819C44.1679 55.8819 29.2811 57.1824 18.0778 59.5468C15.3218 60.1278 12.9793 60.7302 10.9882 61.3398C4.79971 59.3842 1.36725 57.1227 1.36725 54.9209C1.36725 52.7191 4.66108 50.5101 10.6249 48.5952C13.0343 49.353 15.6062 49.9841 18.0372 50.4957C29.2524 52.8625 44.1559 54.1654 60.0036 54.1654C75.8512 54.1654 90.7523 52.8625 101.97 50.4957C104.389 49.9841 106.947 49.3578 109.346 48.6047C115.329 50.5364 118.638 52.7549 118.638 54.9185L118.635 54.9233ZM12.8239 47.9401C14.4804 47.4763 16.2994 47.034 18.2738 46.6181C29.4126 44.268 44.2324 42.9747 59.9988 42.9747C80.4 42.9747 96.9026 45.0665 107.143 47.9521C96.9265 50.8257 80.4191 52.9103 59.9988 52.9103C39.5785 52.9103 23.0353 50.8209 12.8215 47.9449L12.8239 47.9401ZM118.532 41.055C118.532 43.2257 115.15 45.4514 109.043 47.3831C106.727 46.6707 104.272 46.0706 101.944 45.5805C90.7332 43.2161 75.8393 41.9132 59.9988 41.9132C44.1583 41.9132 29.2644 43.2161 18.0539 45.5805C15.7281 46.0706 13.2733 46.6707 10.9547 47.3831C4.84991 45.4538 1.46525 43.2257 1.46525 41.055C1.46525 38.8843 4.78776 36.7374 10.6416 34.8416C13.0415 35.5947 15.5943 36.221 18.0109 36.7303C29.2333 39.097 44.144 40.4023 59.9964 40.4023C75.8489 40.4023 90.7595 39.0994 101.982 36.7303C104.406 36.2187 106.968 35.5899 109.373 34.8345C115.267 36.7398 118.525 38.9249 118.525 41.055H118.532ZM13.2375 34.0694C14.7911 33.6415 16.4787 33.2327 18.2953 32.8478C29.4293 30.5002 44.2396 29.2068 59.9988 29.2068C80.1825 29.2068 96.544 31.2437 106.784 34.0647C105.218 34.4974 103.517 34.9086 101.681 35.2959C90.554 37.6435 75.7509 38.9368 59.9964 38.9368C44.242 38.9368 29.4389 37.6435 18.3121 35.2959C16.4859 34.911 14.7911 34.4998 13.2327 34.0694H13.2375ZM109.021 33.4024C106.715 32.6948 104.277 32.0995 101.965 31.6118C90.75 29.2451 75.8465 27.9422 59.9988 27.9422C44.1535 27.9422 29.25 29.2451 18.0348 31.6118C15.7234 32.0995 13.2829 32.6948 10.9786 33.4024C4.98138 31.5043 1.57042 29.3001 1.57042 27.1867C1.57042 25.0734 4.84991 22.9552 10.6344 21.0809C12.6925 21.7264 15.1234 22.3575 17.9918 22.9624C29.2214 25.3315 44.1392 26.6368 59.9988 26.6368C75.8584 26.6368 90.7763 25.3315 102.006 22.9624C104.877 22.3575 107.308 21.724 109.366 21.0809C115.15 22.9552 118.43 25.114 118.43 27.1867C118.43 29.2594 115.019 31.5043 109.024 33.4024H109.021Z" fill="white"/>
</g>
<defs>
<clipPath id="clip0_379_27587">
<rect width="120" height="123" fill="white"/>
</clipPath>
</defs>
</svg>
