<svg width="140" height="140" viewBox="0 0 140 140" fill="none" xmlns="http://www.w3.org/2000/svg">
<path d="M42.1549 0.461068C42.1549 0.461068 42.1741 0.452887 42.1741 0.44196C42.1741 0.431032 42.1659 0.422852 42.1549 0.422852C42.144 0.422852 42.1358 0.431032 42.1358 0.44196C42.1358 0.452887 42.144 0.461068 42.1549 0.461068Z" fill="white"/>
<path d="M49.1036 0.558732C49.1672 0.558732 49.2198 0.506122 49.2198 0.442452C49.2198 0.378781 49.1672 0.326172 49.1036 0.326172C49.0399 0.326172 48.9873 0.378781 48.9873 0.442452C48.9873 0.506122 49.0399 0.558732 49.1036 0.558732Z" fill="white"/>
<path d="M56.0566 0.711676C56.2061 0.711676 56.3251 0.589877 56.3251 0.44039C56.3251 0.290903 56.2033 0.171875 56.0566 0.171875C55.9099 0.171875 55.7881 0.293671 55.7881 0.44039C55.7881 0.587109 55.9099 0.711676 56.0566 0.711676Z" fill="white"/>
<path d="M63.0088 0.84689C63.233 0.84689 63.413 0.666963 63.413 0.442732C63.413 0.218502 63.233 0.0385742 63.0088 0.0385742C62.7845 0.0385742 62.6046 0.218502 62.6046 0.442732C62.6046 0.666963 62.7845 0.84689 63.0088 0.84689Z" fill="white"/>
<path d="M69.9616 0.885836C70.2052 0.885836 70.4045 0.686527 70.4045 0.442918C70.4045 0.199309 70.2052 0 69.9616 0C69.718 0 69.5187 0.199309 69.5187 0.442918C69.5187 0.686527 69.718 0.885836 69.9616 0.885836Z" fill="white"/>
<path d="M76.911 0.84689C77.1352 0.84689 77.3152 0.666963 77.3152 0.442732C77.3152 0.218502 77.1352 0.0385742 76.911 0.0385742C76.6868 0.0385742 76.5068 0.218502 76.5068 0.442732C76.5068 0.666963 76.6868 0.84689 76.911 0.84689Z" fill="white"/>
<path d="M83.8613 0.711676C84.0108 0.711676 84.1298 0.589877 84.1298 0.44039C84.1298 0.290903 84.008 0.171875 83.8613 0.171875C83.7146 0.171875 83.5928 0.293671 83.5928 0.44039C83.5928 0.587109 83.7146 0.711676 83.8613 0.711676Z" fill="white"/>
<path d="M90.8137 0.558732C90.8773 0.558732 90.9299 0.506122 90.9299 0.442452C90.9299 0.378781 90.8773 0.326172 90.8137 0.326172C90.75 0.326172 90.6974 0.378781 90.6974 0.442452C90.6974 0.506122 90.75 0.558732 90.8137 0.558732Z" fill="white"/>
<path d="M97.7682 0.461068C97.7682 0.461068 97.7873 0.452887 97.7873 0.44196C97.7873 0.431032 97.7791 0.422852 97.7682 0.422852C97.7572 0.422852 97.749 0.431032 97.749 0.44196C97.749 0.452887 97.7572 0.461068 97.7682 0.461068Z" fill="white"/>
<path d="M28.2496 7.41325C28.2496 7.41325 28.2687 7.40504 28.2687 7.39411C28.2687 7.38318 28.2605 7.375 28.2496 7.375C28.2387 7.375 28.2305 7.38318 28.2305 7.39411C28.2305 7.40504 28.2387 7.41325 28.2496 7.41325Z" fill="white"/>
<path d="M35.2006 7.58776C35.3058 7.58776 35.3944 7.50192 35.3944 7.39396C35.3944 7.286 35.3086 7.2002 35.2006 7.2002C35.0927 7.2002 35.0068 7.286 35.0068 7.39396C35.0068 7.50192 35.0927 7.58776 35.2006 7.58776Z" fill="white"/>
<path d="M42.1556 7.99279C42.485 7.99279 42.7536 7.72426 42.7536 7.39483C42.7536 7.06541 42.485 6.79688 42.1556 6.79688C41.8262 6.79688 41.5577 7.06541 41.5577 7.39483C41.5577 7.72426 41.8262 7.99279 42.1556 7.99279Z" fill="white"/>
<path d="M49.1059 8.49292C49.7122 8.49292 50.2049 8.00017 50.2049 7.39392C50.2049 6.78767 49.7122 6.29492 49.1059 6.29492C48.4997 6.29492 48.007 6.78767 48.007 7.39392C48.007 8.00017 48.4997 8.49292 49.1059 8.49292Z" fill="white"/>
<path d="M56.057 8.87823C56.8765 8.87823 57.5408 8.21392 57.5408 7.39444C57.5408 6.57496 56.8765 5.91064 56.057 5.91064C55.2375 5.91064 54.5732 6.57496 54.5732 7.39444C54.5732 8.21392 55.2375 8.87823 56.057 8.87823Z" fill="white"/>
<path d="M63.0091 9.14883C63.978 9.14883 64.7642 8.36265 64.7642 7.39375C64.7642 6.42485 63.978 5.63867 63.0091 5.63867C62.0402 5.63867 61.254 6.42485 61.254 7.39375C61.254 8.36265 62.0402 9.14883 63.0091 9.14883Z" fill="white"/>
<path d="M69.9642 9.24546C70.987 9.24546 71.8162 8.41629 71.8162 7.39347C71.8162 6.37065 70.987 5.5415 69.9642 5.5415C68.9414 5.5415 68.1123 6.37065 68.1123 7.39347C68.1123 8.41629 68.9414 9.24546 69.9642 9.24546Z" fill="white"/>
<path d="M76.9105 9.14883C77.8793 9.14883 78.6655 8.36265 78.6655 7.39375C78.6655 6.42485 77.8793 5.63867 76.9105 5.63867C75.9416 5.63867 75.1554 6.42485 75.1554 7.39375C75.1554 8.36265 75.9416 9.14883 76.9105 9.14883Z" fill="white"/>
<path d="M83.8643 8.9162C84.7059 8.9162 85.3869 8.2352 85.3869 7.39365C85.3869 6.55209 84.7059 5.87109 83.8643 5.87109C83.0228 5.87109 82.3418 6.55209 82.3418 7.39365C82.3418 8.2352 83.0228 8.9162 83.8643 8.9162Z" fill="white"/>
<path d="M90.8156 8.51316C91.433 8.51316 91.934 8.01209 91.934 7.39476C91.934 6.77744 91.433 6.27637 90.8156 6.27637C90.1983 6.27637 89.6973 6.77744 89.6973 7.39476C89.6973 8.01209 90.1983 8.51316 90.8156 8.51316Z" fill="white"/>
<path d="M97.7677 8.03073C98.1193 8.03073 98.4044 7.74565 98.4044 7.39401C98.4044 7.04237 98.1193 6.75732 97.7677 6.75732C97.4161 6.75732 97.131 7.04237 97.131 7.39401C97.131 7.74565 97.4161 8.03073 97.7677 8.03073Z" fill="white"/>
<path d="M104.72 7.60845C104.838 7.60845 104.933 7.51302 104.933 7.39529C104.933 7.27757 104.838 7.18213 104.72 7.18213C104.602 7.18213 104.507 7.27757 104.507 7.39529C104.507 7.51302 104.602 7.60845 104.72 7.60845Z" fill="white"/>
<path d="M111.671 7.41325C111.671 7.41325 111.69 7.40504 111.69 7.39411C111.69 7.38318 111.682 7.375 111.671 7.375C111.66 7.375 111.651 7.38318 111.651 7.39411C111.651 7.40504 111.66 7.41325 111.671 7.41325Z" fill="white"/>
<path d="M21.2956 14.3842C21.3178 14.3842 21.3344 14.3675 21.3344 14.3454C21.3344 14.3233 21.3178 14.3066 21.2956 14.3066C21.2735 14.3066 21.2569 14.3233 21.2569 14.3454C21.2569 14.3675 21.2735 14.3842 21.2956 14.3842Z" fill="white"/>
<path d="M28.2515 14.7882C28.4951 14.7882 28.6944 14.5889 28.6944 14.3453C28.6944 14.1017 28.4951 13.9023 28.2515 13.9023C28.0079 13.9023 27.8086 14.1017 27.8086 14.3453C27.8086 14.5889 28.0079 14.7882 28.2515 14.7882Z" fill="white"/>
<path d="M35.1992 15.5028C35.8386 15.5028 36.3563 14.9851 36.3563 14.3456C36.3563 13.7061 35.8386 13.1885 35.1992 13.1885C34.5597 13.1885 34.0421 13.7061 34.0421 14.3456C34.0421 14.9851 34.5597 15.5028 35.1992 15.5028Z" fill="white"/>
<path d="M42.1526 16.2359C43.1962 16.2359 44.0405 15.3888 44.0405 14.3479C44.0405 13.307 43.1935 12.46 42.1526 12.46C41.1117 12.46 40.2646 13.307 40.2646 14.3479C40.2646 15.3888 41.1117 16.2359 42.1526 16.2359Z" fill="white"/>
<path d="M49.4839 16.7165C50.7854 16.4998 51.6649 15.2691 51.4482 13.9676C51.2316 12.6661 50.0009 11.7866 48.6994 12.0033C47.3979 12.2199 46.5184 13.4506 46.7351 14.7521C46.9517 16.0536 48.1824 16.9331 49.4839 16.7165Z" fill="white"/>
<path d="M56.6738 16.8366C58.0617 16.5074 58.9201 15.1155 58.591 13.7275C58.2618 12.3395 56.8699 11.4812 55.4819 11.8103C54.094 12.1394 53.2357 13.5314 53.5648 14.9194C53.8939 16.3073 55.2858 17.1657 56.6738 16.8366Z" fill="white"/>
<path d="M65.4516 15.3149C65.9968 13.9621 65.3421 12.4234 63.9893 11.8782C62.6365 11.333 61.0979 11.9877 60.5527 13.3406C60.0075 14.6934 60.6622 16.232 62.015 16.7772C63.3678 17.3224 64.9064 16.6677 65.4516 15.3149Z" fill="white"/>
<path d="M70.5564 16.952C71.9864 16.6145 72.872 15.1817 72.5345 13.7517C72.197 12.3218 70.7642 11.4362 69.3343 11.7737C67.9043 12.1112 67.0187 13.544 67.3562 14.9739C67.6937 16.4039 69.1265 17.2895 70.5564 16.952Z" fill="white"/>
<path d="M76.9135 16.986C78.372 16.986 79.5544 15.8036 79.5544 14.345C79.5544 12.8865 78.372 11.7041 76.9135 11.7041C75.4549 11.7041 74.2726 12.8865 74.2726 14.345C74.2726 15.8036 75.4549 16.986 76.9135 16.986Z" fill="white"/>
<path d="M83.8629 16.9475C85.3 16.9475 86.465 15.7825 86.465 14.3454C86.465 12.9082 85.3 11.7432 83.8629 11.7432C82.4258 11.7432 81.2607 12.9082 81.2607 14.3454C81.2607 15.7825 82.4258 16.9475 83.8629 16.9475Z" fill="white"/>
<path d="M91.351 16.7051C92.6455 16.3995 93.4472 15.1024 93.1417 13.8078C92.8361 12.5133 91.539 11.7115 90.2445 12.0171C88.95 12.3226 88.1482 13.6197 88.4537 14.9143C88.7593 16.2089 90.0564 17.0106 91.351 16.7051Z" fill="white"/>
<path d="M97.7686 16.2916C98.8434 16.2916 99.7147 15.4203 99.7147 14.3455C99.7147 13.2707 98.8434 12.3994 97.7686 12.3994C96.6938 12.3994 95.8225 13.2707 95.8225 14.3455C95.8225 15.4203 96.6938 16.2916 97.7686 16.2916Z" fill="white"/>
<path d="M104.717 15.5604C105.389 15.5604 105.933 15.0163 105.933 14.3452C105.933 13.674 105.389 13.1299 104.717 13.1299C104.046 13.1299 103.502 13.674 103.502 14.3452C103.502 15.0163 104.046 15.5604 104.717 15.5604Z" fill="white"/>
<path d="M111.671 14.8276C111.937 14.8276 112.153 14.6117 112.153 14.3459C112.153 14.0802 111.937 13.8643 111.671 13.8643C111.406 13.8643 111.19 14.0802 111.19 14.3459C111.19 14.6117 111.406 14.8276 111.671 14.8276Z" fill="white"/>
<path d="M118.619 14.4024C118.651 14.4024 118.677 14.3764 118.677 14.3443C118.677 14.3121 118.651 14.2861 118.619 14.2861C118.587 14.2861 118.561 14.3121 118.561 14.3443C118.561 14.3764 118.587 14.4024 118.619 14.4024Z" fill="white"/>
<path d="M14.3483 21.3348C14.3705 21.3348 14.3871 21.3182 14.3871 21.2961C14.3871 21.2739 14.3705 21.2573 14.3483 21.2573C14.3262 21.2573 14.3096 21.2739 14.3096 21.2961C14.3096 21.3182 14.3262 21.3348 14.3483 21.3348Z" fill="white"/>
<path d="M21.2977 21.8394C21.5966 21.8394 21.8375 21.5985 21.8375 21.2996C21.8375 21.0006 21.5966 20.7598 21.2977 20.7598C20.9987 20.7598 20.7579 21.0006 20.7579 21.2996C20.7579 21.5985 20.9987 21.8394 21.2977 21.8394Z" fill="white"/>
<path d="M28.2505 22.784C29.0699 22.784 29.7342 22.1197 29.7342 21.3002C29.7342 20.4807 29.0699 19.8164 28.2505 19.8164C27.431 19.8164 26.7667 20.4807 26.7667 21.3002C26.7667 22.1197 27.431 22.784 28.2505 22.784Z" fill="white"/>
<path d="M35.2008 23.6326C36.4896 23.6326 37.5344 22.5878 37.5344 21.299C37.5344 20.0101 36.4896 18.9653 35.2008 18.9653C33.912 18.9653 32.8672 20.0101 32.8672 21.299C32.8672 22.5878 33.912 23.6326 35.2008 23.6326Z" fill="white"/>
<path d="M42.1575 23.9391C43.616 23.9391 44.7984 22.7567 44.7984 21.2981C44.7984 19.8396 43.616 18.6572 42.1575 18.6572C40.699 18.6572 39.5166 19.8396 39.5166 21.2981C39.5166 22.7567 40.699 23.9391 42.1575 23.9391Z" fill="white"/>
<path d="M49.5569 23.934C51.0162 23.688 51.9998 22.3055 51.7537 20.8461C51.5077 19.3867 50.1252 18.4032 48.6659 18.6492C47.2065 18.8953 46.223 20.2778 46.469 21.7371C46.715 23.1965 48.0975 24.1801 49.5569 23.934Z" fill="white"/>
<path d="M56.6775 23.8323C58.0863 23.4982 58.9575 22.0853 58.6234 20.6765C58.2894 19.2677 56.8765 18.3965 55.4678 18.7306C54.059 19.0646 53.1878 20.4775 53.5219 21.8863C53.8559 23.2951 55.2687 24.1663 56.6775 23.8323Z" fill="white"/>
<path d="M63.6215 23.7691C64.999 23.4425 65.8509 22.061 65.5242 20.6834C65.1976 19.3059 63.8161 18.454 62.4386 18.7806C61.061 19.1073 60.2091 20.4888 60.5358 21.8663C60.8624 23.2439 62.2439 24.0958 63.6215 23.7691Z" fill="white"/>
<path d="M70.5262 23.7738C71.8832 23.4535 72.7237 22.0938 72.4034 20.7367C72.0831 19.3797 70.7233 18.5392 69.3663 18.8595C68.0093 19.1798 67.1688 20.5396 67.4891 21.8966C67.8094 23.2537 69.1691 24.0941 70.5262 23.7738Z" fill="white"/>
<path d="M77.488 23.8106C78.8659 23.4854 79.7193 22.1047 79.3941 20.7269C79.0688 19.349 77.6882 18.4956 76.3104 18.8208C74.9325 19.146 74.0792 20.5267 74.4044 21.9045C74.7296 23.2824 76.1102 24.1358 77.488 23.8106Z" fill="white"/>
<path d="M84.4502 23.8689C85.8593 23.5363 86.732 22.1243 86.3994 20.7152C86.0668 19.3061 84.6549 18.4334 83.2458 18.766C81.8367 19.0985 80.9639 20.5105 81.2965 21.9196C81.6291 23.3287 83.0411 24.2015 84.4502 23.8689Z" fill="white"/>
<path d="M91.4163 23.9247C92.8566 23.5848 93.7486 22.1415 93.4087 20.7011C93.0687 19.2608 91.6255 18.3687 90.1852 18.7087C88.7448 19.0486 87.8527 20.4919 88.1927 21.9322C88.5326 23.3726 89.9759 24.2647 91.4163 23.9247Z" fill="white"/>
<path d="M97.769 23.9391C99.2275 23.9391 100.41 22.7567 100.41 21.2981C100.41 19.8396 99.2275 18.6572 97.769 18.6572C96.3104 18.6572 95.1281 19.8396 95.1281 21.2981C95.1281 22.7567 96.3104 23.9391 97.769 23.9391Z" fill="white"/>
<path d="M104.718 23.6716C106.028 23.6716 107.091 22.6094 107.091 21.2992C107.091 19.9889 106.028 18.9268 104.718 18.9268C103.408 18.9268 102.346 19.9889 102.346 21.2992C102.346 22.6094 103.408 23.6716 104.718 23.6716Z" fill="white"/>
<path d="M111.669 22.8417C112.522 22.8417 113.211 22.1524 113.211 21.2997C113.211 20.4471 112.522 19.7578 111.669 19.7578C110.816 19.7578 110.127 20.4471 110.127 21.2997C110.127 22.1524 110.816 22.8417 111.669 22.8417Z" fill="white"/>
<path d="M118.624 21.8941C118.953 21.8941 119.222 21.6256 119.222 21.2962C119.222 20.9667 118.953 20.6982 118.624 20.6982C118.294 20.6982 118.026 20.9667 118.026 21.2962C118.026 21.6256 118.294 21.8941 118.624 21.8941Z" fill="white"/>
<path d="M125.576 21.3575C125.608 21.3575 125.634 21.3314 125.634 21.2993C125.634 21.2672 125.608 21.2412 125.576 21.2412C125.544 21.2412 125.518 21.2672 125.518 21.2993C125.518 21.3314 125.544 21.3575 125.576 21.3575Z" fill="white"/>
<path d="M7.39315 28.2687C7.39315 28.2687 7.41227 28.2605 7.41227 28.2496C7.41227 28.2386 7.40408 28.2305 7.39315 28.2305C7.38222 28.2305 7.37402 28.2386 7.37402 28.2496C7.37402 28.2605 7.38222 28.2687 7.39315 28.2687Z" fill="white"/>
<path d="M14.3492 28.6935C14.5928 28.6935 14.7921 28.4941 14.7921 28.2505C14.7921 28.0069 14.5928 27.8076 14.3492 27.8076C14.1056 27.8076 13.9062 28.0069 13.9062 28.2505C13.9062 28.4941 14.1056 28.6935 14.3492 28.6935Z" fill="white"/>
<path d="M21.2992 29.7347C22.1187 29.7347 22.783 29.0704 22.783 28.2509C22.783 27.4314 22.1187 26.7671 21.2992 26.7671C20.4797 26.7671 19.8154 27.4314 19.8154 28.2509C19.8154 29.0704 20.4797 29.7347 21.2992 29.7347Z" fill="white"/>
<path d="M28.7909 30.6568C30.106 30.3451 30.9195 29.0264 30.6079 27.7113C30.2963 26.3962 28.9776 25.5827 27.6625 25.8943C26.3474 26.2059 25.5339 27.5246 25.8455 28.8397C26.1571 30.1548 27.4758 30.9684 28.7909 30.6568Z" fill="white"/>
<path d="M35.8283 30.8509C37.2683 30.5094 38.1589 29.0652 37.8174 27.6252C37.476 26.1852 36.0318 25.2946 34.5918 25.6361C33.1518 25.9776 32.2612 27.4217 32.6027 28.8618C32.9442 30.3018 34.3883 31.1924 35.8283 30.8509Z" fill="white"/>
<path d="M42.7453 30.7813C44.1598 30.4724 45.056 29.0752 44.7471 27.6607C44.4382 26.2462 43.0411 25.35 41.6266 25.6589C40.2121 25.9678 39.3159 27.3649 39.6248 28.7794C39.9337 30.1939 41.3308 31.0902 42.7453 30.7813Z" fill="white"/>
<path d="M49.482 30.6052C50.774 30.3876 51.6451 29.1638 51.4275 27.8717C51.2098 26.5797 49.986 25.7087 48.694 25.9263C47.402 26.1439 46.531 27.3677 46.7486 28.6598C46.9662 29.9518 48.19 30.8228 49.482 30.6052Z" fill="white"/>
<path d="M56.5685 30.3371C57.7289 30.0622 58.4467 28.8986 58.1717 27.7382C57.8968 26.5778 56.7332 25.86 55.5728 26.135C54.4125 26.4099 53.6947 27.5735 53.9696 28.7339C54.2446 29.8943 55.4081 30.6121 56.5685 30.3371Z" fill="white"/>
<path d="M63.5072 30.208C64.6051 29.9479 65.2843 28.8469 65.0241 27.749C64.764 26.6511 63.6631 25.972 62.5652 26.2321C61.4673 26.4922 60.7882 27.5932 61.0483 28.6911C61.3084 29.789 62.4093 30.4681 63.5072 30.208Z" fill="white"/>
<path d="M70.4099 30.2359C71.4976 29.9792 72.1712 28.8892 71.9145 27.8015C71.6578 26.7138 70.5679 26.0402 69.4802 26.2969C68.3925 26.5536 67.7189 27.6435 67.9756 28.7312C68.2323 29.8189 69.3222 30.4926 70.4099 30.2359Z" fill="white"/>
<path d="M77.3674 30.2574C78.4656 29.9982 79.1457 28.8979 78.8865 27.7998C78.6273 26.7016 77.527 26.0215 76.4289 26.2807C75.3307 26.5399 74.6507 27.6402 74.9098 28.7384C75.169 29.8365 76.2693 30.5166 77.3674 30.2574Z" fill="white"/>
<path d="M83.8614 30.4103C85.0539 30.4103 86.0206 29.4436 86.0206 28.251C86.0206 27.0585 85.0539 26.0918 83.8614 26.0918C82.6689 26.0918 81.7021 27.0585 81.7021 28.251C81.7021 29.4436 82.6689 30.4103 83.8614 30.4103Z" fill="white"/>
<path d="M90.8169 30.6233C92.1271 30.6233 93.1892 29.5611 93.1892 28.2508C93.1892 26.9406 92.1271 25.8784 90.8169 25.8784C89.5066 25.8784 88.4445 26.9406 88.4445 28.2508C88.4445 29.5611 89.5066 30.6233 90.8169 30.6233Z" fill="white"/>
<path d="M97.7684 30.8518C99.2055 30.8518 100.371 29.6868 100.371 28.2496C100.371 26.8125 99.2055 25.6475 97.7684 25.6475C96.3313 25.6475 95.1663 26.8125 95.1663 28.2496C95.1663 29.6868 96.3313 30.8518 97.7684 30.8518Z" fill="white"/>
<path d="M105.322 30.8779C106.762 30.5379 107.654 29.0946 107.314 27.6543C106.974 26.2139 105.531 25.3218 104.091 25.6618C102.65 26.0017 101.758 27.445 102.098 28.8854C102.438 30.3257 103.881 31.2178 105.322 30.8779Z" fill="white"/>
<path d="M111.671 30.7375C113.044 30.7375 114.157 29.6245 114.157 28.2515C114.157 26.8786 113.044 25.7656 111.671 25.7656C110.299 25.7656 109.186 26.8786 109.186 28.2515C109.186 29.6245 110.299 30.7375 111.671 30.7375Z" fill="white"/>
<path d="M118.622 29.8125C119.486 29.8125 120.183 29.1122 120.183 28.2512C120.183 27.3903 119.483 26.6899 118.622 26.6899C117.761 26.6899 117.061 27.3903 117.061 28.2512C117.061 29.1122 117.761 29.8125 118.622 29.8125Z" fill="white"/>
<path d="M125.577 28.7319C125.844 28.7319 126.059 28.5163 126.059 28.2502C126.059 27.9842 125.844 27.7686 125.577 27.7686C125.311 27.7686 125.096 27.9842 125.096 28.2502C125.096 28.5163 125.311 28.7319 125.577 28.7319Z" fill="white"/>
<path d="M132.525 28.2687C132.525 28.2687 132.544 28.2605 132.544 28.2496C132.544 28.2386 132.536 28.2305 132.525 28.2305C132.514 28.2305 132.506 28.2386 132.506 28.2496C132.506 28.2605 132.514 28.2687 132.525 28.2687Z" fill="white"/>
<path d="M7.39691 35.3954C7.5021 35.3954 7.59069 35.3096 7.59069 35.2016C7.59069 35.0936 7.50487 35.0078 7.39691 35.0078C7.28894 35.0078 7.20312 35.0936 7.20312 35.2016C7.20312 35.3096 7.28894 35.3954 7.39691 35.3954Z" fill="white"/>
<path d="M14.3485 36.3597C14.988 36.3597 15.5057 35.842 15.5057 35.2026C15.5057 34.5631 14.988 34.0454 14.3485 34.0454C13.7091 34.0454 13.1914 34.5631 13.1914 35.2026C13.1914 35.842 13.7091 36.3597 14.3485 36.3597Z" fill="white"/>
<path d="M21.2985 37.5355C22.5873 37.5355 23.6321 36.4907 23.6321 35.2018C23.6321 33.913 22.5873 32.8682 21.2985 32.8682C20.0096 32.8682 18.9648 33.913 18.9648 35.2018C18.9648 36.4907 20.0096 37.5355 21.2985 37.5355Z" fill="white"/>
<path d="M28.8743 37.8006C30.3143 37.4591 31.2048 36.015 30.8633 34.5749C30.5219 33.1349 29.0777 32.2443 27.6377 32.5858C26.1977 32.9273 25.3071 34.3715 25.6486 35.8115C25.9901 37.2515 27.4343 38.1421 28.8743 37.8006Z" fill="white"/>
<path d="M35.8168 37.6734C37.1944 37.3468 38.0463 35.9653 37.7196 34.5877C37.393 33.2102 36.0115 32.3583 34.6339 32.6849C33.2564 33.0116 32.4045 34.3931 32.7312 35.7706C33.0578 37.1482 34.4393 38.0001 35.8168 37.6734Z" fill="white"/>
<path d="M42.1539 37.4191C43.3785 37.4191 44.3713 36.4264 44.3713 35.2018C44.3713 33.9771 43.3785 32.9844 42.1539 32.9844C40.9293 32.9844 39.9365 33.9771 39.9365 35.2018C39.9365 36.4264 40.9293 37.4191 42.1539 37.4191Z" fill="white"/>
<path d="M49.4038 37.1423C50.4637 36.964 51.1784 35.9603 51.0001 34.9003C50.8218 33.8404 49.818 33.1258 48.7581 33.3041C47.6982 33.4824 46.9835 34.4862 47.1619 35.5461C47.3402 36.606 48.3439 37.3206 49.4038 37.1423Z" fill="white"/>
<path d="M56.0583 37.0156C57.0604 37.0156 57.8715 36.2045 57.8715 35.2024C57.8715 34.2003 57.0604 33.3892 56.0583 33.3892C55.0562 33.3892 54.2451 34.2003 54.2451 35.2024C54.2451 36.2045 55.0562 37.0156 56.0583 37.0156Z" fill="white"/>
<path d="M63.0082 36.9377C63.966 36.9377 64.7438 36.1599 64.7438 35.202C64.7438 34.2442 63.966 33.4663 63.0082 33.4663C62.0503 33.4663 61.2725 34.2442 61.2725 35.202C61.2725 36.1599 62.0503 36.9377 63.0082 36.9377Z" fill="white"/>
<path d="M69.9614 36.9175C70.9082 36.9175 71.6777 36.1507 71.6777 35.2012C71.6777 34.2517 70.9109 33.4849 69.9614 33.4849C69.0119 33.4849 68.2451 34.2517 68.2451 35.2012C68.2451 36.1507 69.0119 36.9175 69.9614 36.9175Z" fill="white"/>
<path d="M76.9145 36.9377C77.8723 36.9377 78.6502 36.1599 78.6502 35.202C78.6502 34.2442 77.8723 33.4663 76.9145 33.4663C75.9567 33.4663 75.1788 34.2442 75.1788 35.202C75.1788 36.1599 75.9567 36.9377 76.9145 36.9377Z" fill="white"/>
<path d="M83.8622 36.994C84.8529 36.994 85.656 36.1908 85.656 35.2001C85.656 34.2094 84.8529 33.4062 83.8622 33.4062C82.8715 33.4062 82.0684 34.2094 82.0684 35.2001C82.0684 36.1908 82.8715 36.994 83.8622 36.994Z" fill="white"/>
<path d="M90.8164 37.1284C91.8821 37.1284 92.7431 36.2647 92.7431 35.2016C92.7431 34.1386 91.8794 33.2749 90.8164 33.2749C89.7534 33.2749 88.8896 34.1386 88.8896 35.2016C88.8896 36.2647 89.7534 37.1284 90.8164 37.1284Z" fill="white"/>
<path d="M97.7705 37.3807C98.9737 37.3807 99.9491 36.4053 99.9491 35.2021C99.9491 33.9988 98.9737 33.0234 97.7705 33.0234C96.5673 33.0234 95.5919 33.9988 95.5919 35.2021C95.5919 36.4053 96.5673 37.3807 97.7705 37.3807Z" fill="white"/>
<path d="M104.718 37.7453C106.123 37.7453 107.262 36.6063 107.262 35.2013C107.262 33.7963 106.123 32.6572 104.718 32.6572C103.313 32.6572 102.174 33.7963 102.174 35.2013C102.174 36.6063 103.313 37.7453 104.718 37.7453Z" fill="white"/>
<path d="M112.271 37.829C113.711 37.4891 114.603 36.0458 114.263 34.6055C113.923 33.1651 112.48 32.273 111.04 32.613C109.599 32.9529 108.707 34.3962 109.047 35.8366C109.387 37.2769 110.831 38.169 112.271 37.829Z" fill="white"/>
<path d="M118.622 37.5906C119.942 37.5906 121.011 36.5209 121.011 35.2015C121.011 33.8821 119.942 32.8125 118.622 32.8125C117.303 32.8125 116.233 33.8821 116.233 35.2015C116.233 36.5209 117.303 37.5906 118.622 37.5906Z" fill="white"/>
<path d="M125.576 36.4553C126.268 36.4553 126.83 35.8934 126.83 35.2013C126.83 34.5092 126.268 33.9473 125.576 33.9473C124.884 33.9473 124.322 34.5092 124.322 35.2013C124.322 35.8934 124.884 36.4553 125.576 36.4553Z" fill="white"/>
<path d="M132.529 35.4333C132.656 35.4333 132.761 35.3309 132.761 35.2008C132.761 35.0707 132.659 34.9683 132.529 34.9683C132.398 34.9683 132.296 35.0707 132.296 35.2008C132.296 35.3309 132.398 35.4333 132.529 35.4333Z" fill="white"/>
<path d="M0.441 42.1706C0.441 42.1706 0.460124 42.1624 0.460124 42.1515C0.460124 42.1405 0.451927 42.1323 0.441 42.1323C0.430072 42.1323 0.421875 42.1405 0.421875 42.1515C0.421875 42.1624 0.430072 42.1706 0.441 42.1706Z" fill="white"/>
<path d="M7.39481 42.7506C7.72423 42.7506 7.99274 42.4821 7.99274 42.1526C7.99274 41.8232 7.72423 41.5547 7.39481 41.5547C7.06539 41.5547 6.79688 41.8232 6.79688 42.1526C6.79688 42.4821 7.06539 42.7506 7.39481 42.7506Z" fill="white"/>
<path d="M14.7047 43.9909C15.7308 43.8059 16.4127 42.8241 16.2277 41.7979C16.0427 40.7718 15.0609 40.0899 14.0347 40.2749C13.0086 40.4599 12.3267 41.4417 12.5117 42.4679C12.6967 43.494 13.6786 44.1759 14.7047 43.9909Z" fill="white"/>
<path d="M21.2981 44.7936C22.7567 44.7936 23.939 43.6112 23.939 42.1527C23.939 40.6941 22.7567 39.5117 21.2981 39.5117C19.8396 39.5117 18.6572 40.6941 18.6572 42.1527C18.6572 43.6112 19.8396 44.7936 21.2981 44.7936Z" fill="white"/>
<path d="M28.8689 44.6877C30.2777 44.3537 31.1489 42.9408 30.8149 41.532C30.4808 40.1232 29.068 39.252 27.6592 39.586C26.2504 39.9201 25.3792 41.333 25.7133 42.7418C26.0473 44.1506 27.4602 45.0218 28.8689 44.6877Z" fill="white"/>
<path d="M35.5538 44.3467C36.7623 44.1484 37.5811 43.008 37.3828 41.7995C37.1845 40.591 36.0441 39.7722 34.8356 39.9705C33.6272 40.1688 32.8083 41.3092 33.0066 42.5177C33.2049 43.7262 34.3454 44.5451 35.5538 44.3467Z" fill="white"/>
<path d="M42.1526 44.044C43.1962 44.044 44.0405 43.1969 44.0405 42.1561C44.0405 41.1152 43.1935 40.2681 42.1526 40.2681C41.1117 40.2681 40.2646 41.1152 40.2646 42.1561C40.2646 43.1969 41.1117 44.044 42.1526 44.044Z" fill="white"/>
<path d="M49.107 43.8682C50.0537 43.8682 50.8233 43.1014 50.8233 42.1519C50.8233 41.2024 50.0565 40.4355 49.107 40.4355C48.1575 40.4355 47.3907 41.2024 47.3907 42.1519C47.3907 43.1014 48.1575 43.8682 49.107 43.8682Z" fill="white"/>
<path d="M56.0598 43.7716C56.954 43.7716 57.6793 43.0463 57.6793 42.1522C57.6793 41.258 56.954 40.5327 56.0598 40.5327C55.1657 40.5327 54.4404 41.258 54.4404 42.1522C54.4404 43.0463 55.1657 43.7716 56.0598 43.7716Z" fill="white"/>
<path d="M64.4723 42.7453C64.8018 41.9368 64.4135 41.0144 63.605 40.6849C62.7966 40.3555 61.8741 40.7439 61.5447 41.5523C61.2153 42.3607 61.6036 43.2832 62.4121 43.6126C63.2205 43.942 64.1429 43.5537 64.4723 42.7453Z" fill="white"/>
<path d="M69.9628 43.7134C70.8265 43.7134 71.5241 43.0131 71.5241 42.1521C71.5241 41.2912 70.8237 40.5908 69.9628 40.5908C69.1019 40.5908 68.4015 41.2912 68.4015 42.1521C68.4015 43.0131 69.1019 43.7134 69.9628 43.7134Z" fill="white"/>
<path d="M76.9117 43.7337C77.7847 43.7337 78.4924 43.026 78.4924 42.153C78.4924 41.28 77.7847 40.5723 76.9117 40.5723C76.0387 40.5723 75.3311 41.28 75.3311 42.153C75.3311 43.026 76.0387 43.7337 76.9117 43.7337Z" fill="white"/>
<path d="M83.8646 43.7716C84.7587 43.7716 85.484 43.0463 85.484 42.1522C85.484 41.258 84.7587 40.5327 83.8646 40.5327C82.9704 40.5327 82.2451 41.258 82.2451 42.1522C82.2451 43.0463 82.9704 43.7716 83.8646 43.7716Z" fill="white"/>
<path d="M90.8131 43.85C91.7503 43.85 92.5101 43.0902 92.5101 42.153C92.5101 41.2158 91.7503 40.4561 90.8131 40.4561C89.876 40.4561 89.1162 41.2158 89.1162 42.153C89.1162 43.0902 89.876 43.85 90.8131 43.85Z" fill="white"/>
<path d="M97.7691 44.0238C98.8016 44.0238 99.6376 43.1878 99.6376 42.1552C99.6376 41.1226 98.8016 40.2866 97.7691 40.2866C96.7365 40.2866 95.9005 41.1226 95.9005 42.1552C95.9005 43.1878 96.7365 44.0238 97.7691 44.0238Z" fill="white"/>
<path d="M104.721 44.3314C105.924 44.3314 106.899 43.356 106.899 42.1528C106.899 40.9495 105.924 39.9741 104.721 39.9741C103.518 39.9741 102.542 40.9495 102.542 42.1528C102.542 43.356 103.518 44.3314 104.721 44.3314Z" fill="white"/>
<path d="M111.671 44.7546C113.109 44.7546 114.274 43.5896 114.274 42.1525C114.274 40.7153 113.109 39.5503 111.671 39.5503C110.234 39.5503 109.069 40.7153 109.069 42.1525C109.069 43.5896 110.234 44.7546 111.671 44.7546Z" fill="white"/>
<path d="M118.623 44.8128C120.093 44.8128 121.284 43.6218 121.284 42.1525C121.284 40.6832 120.093 39.4922 118.623 39.4922C117.154 39.4922 115.963 40.6832 115.963 42.1525C115.963 43.6218 117.154 44.8128 118.623 44.8128Z" fill="white"/>
<path d="M125.577 44.1401C126.673 44.1401 127.562 43.2515 127.562 42.1553C127.562 41.059 126.673 40.1704 125.577 40.1704C124.481 40.1704 123.592 41.059 123.592 42.1553C123.592 43.2515 124.481 44.1401 125.577 44.1401Z" fill="white"/>
<path d="M132.525 42.827C132.899 42.827 133.201 42.5253 133.201 42.1516C133.201 41.7778 132.899 41.4761 132.525 41.4761C132.151 41.4761 131.85 41.7778 131.85 42.1516C131.85 42.5253 132.151 42.827 132.525 42.827Z" fill="white"/>
<path d="M139.478 42.1913C139.5 42.1913 139.517 42.1747 139.517 42.1525C139.517 42.1304 139.5 42.1138 139.478 42.1138C139.456 42.1138 139.44 42.1304 139.44 42.1525C139.44 42.1747 139.456 42.1913 139.478 42.1913Z" fill="white"/>
<path d="M0.444386 49.2198C0.508056 49.2198 0.560648 49.1673 0.560648 49.1036C0.560648 49.0399 0.508056 48.9873 0.444386 48.9873C0.380717 48.9873 0.328125 49.0399 0.328125 49.1036C0.328125 49.1673 0.380717 49.2198 0.444386 49.2198Z" fill="white"/>
<path d="M7.39684 50.2058C8.00308 50.2058 8.49584 49.7131 8.49584 49.1068C8.49584 48.5006 8.00308 48.0078 7.39684 48.0078C6.79059 48.0078 6.29785 48.5006 6.29785 49.1068C6.29785 49.7131 6.79059 50.2058 7.39684 50.2058Z" fill="white"/>
<path d="M14.7287 51.4883C16.0283 51.2605 16.8972 50.0223 16.6694 48.7227C16.4417 47.4231 15.2035 46.5542 13.9039 46.7819C12.6043 47.0097 11.7354 48.2479 11.9632 49.5475C12.1909 50.8471 13.4291 51.716 14.7287 51.4883Z" fill="white"/>
<path d="M21.9269 51.7039C23.3669 51.3625 24.2575 49.9183 23.916 48.4783C23.5745 47.0382 22.1304 46.1477 20.6904 46.4891C19.2504 46.8306 18.3598 48.2748 18.7013 49.7148C19.0428 51.1549 20.4869 52.0454 21.9269 51.7039Z" fill="white"/>
<path d="M28.2504 51.4763C29.5598 51.4763 30.6227 50.416 30.6227 49.1039C30.6227 47.7917 29.5625 46.7314 28.2504 46.7314C26.9382 46.7314 25.878 47.7917 25.878 49.1039C25.878 50.416 26.9382 51.4763 28.2504 51.4763Z" fill="white"/>
<path d="M35.201 51.0523C36.275 51.0523 37.147 50.1804 37.147 49.1063C37.147 48.0322 36.275 47.1602 35.201 47.1602C34.1269 47.1602 33.2549 48.0322 33.2549 49.1063C33.2549 50.1804 34.1269 51.0523 35.201 51.0523Z" fill="white"/>
<path d="M42.1568 50.8194C43.1035 50.8194 43.8731 50.0526 43.8731 49.1031C43.8731 48.1536 43.1063 47.3867 42.1568 47.3867C41.2073 47.3867 40.4405 48.1536 40.4405 49.1031C40.4405 50.0526 41.2073 50.8194 42.1568 50.8194Z" fill="white"/>
<path d="M49.1069 50.706C49.99 50.706 50.707 49.989 50.707 49.1059C50.707 48.2229 49.99 47.5059 49.1069 47.5059C48.2239 47.5059 47.5069 48.2229 47.5069 49.1059C47.5069 49.989 48.2239 50.706 49.1069 50.706Z" fill="white"/>
<path d="M56.0567 50.6483C56.9082 50.6483 57.5986 49.958 57.5986 49.1064C57.5986 48.2548 56.9082 47.5645 56.0567 47.5645C55.2051 47.5645 54.5148 48.2548 54.5148 49.1064C54.5148 49.958 55.2051 50.6483 56.0567 50.6483Z" fill="white"/>
<path d="M63.0061 50.6094C63.8365 50.6094 64.5092 49.9367 64.5092 49.1062C64.5092 48.2757 63.8365 47.603 63.0061 47.603C62.1756 47.603 61.5029 48.2757 61.5029 49.1062C61.5029 49.9367 62.1756 50.6094 63.0061 50.6094Z" fill="white"/>
<path d="M69.9593 50.6094C70.7898 50.6094 71.4625 49.9367 71.4625 49.1062C71.4625 48.2757 70.7898 47.603 69.9593 47.603C69.1288 47.603 68.4562 48.2757 68.4562 49.1062C68.4562 49.9367 69.1288 50.6094 69.9593 50.6094Z" fill="white"/>
<path d="M76.9123 50.6094C77.7428 50.6094 78.4155 49.9367 78.4155 49.1062C78.4155 48.2757 77.7428 47.603 76.9123 47.603C76.0818 47.603 75.4092 48.2757 75.4092 49.1062C75.4092 49.9367 76.0818 50.6094 76.9123 50.6094Z" fill="white"/>
<path d="M83.8643 50.6281C84.7059 50.6281 85.3869 49.9471 85.3869 49.1056C85.3869 48.264 84.7059 47.583 83.8643 47.583C83.0228 47.583 82.3418 48.264 82.3418 49.1056C82.3418 49.9471 83.0228 50.6281 83.8643 50.6281Z" fill="white"/>
<path d="M90.8131 50.6878C91.6861 50.6878 92.3938 49.9801 92.3938 49.1071C92.3938 48.2341 91.6861 47.5264 90.8131 47.5264C89.9401 47.5264 89.2324 48.2341 89.2324 49.1071C89.2324 49.9801 89.9401 50.6878 90.8131 50.6878Z" fill="white"/>
<path d="M97.7655 50.8036C98.7027 50.8036 99.4625 50.0438 99.4625 49.1066C99.4625 48.1694 98.7027 47.4097 97.7655 47.4097C96.8283 47.4097 96.0686 48.1694 96.0686 49.1066C96.0686 50.0438 96.8283 50.8036 97.7655 50.8036Z" fill="white"/>
<path d="M104.719 51.0331C105.785 51.0331 106.645 50.1695 106.645 49.1064C106.645 48.0434 105.782 47.1797 104.719 47.1797C103.656 47.1797 102.792 48.0434 102.792 49.1064C102.792 50.1695 103.656 51.0331 104.719 51.0331Z" fill="white"/>
<path d="M112.198 51.4157C113.463 51.1172 114.246 49.8499 113.948 48.5851C113.649 47.3203 112.382 46.5369 111.117 46.8355C109.853 47.134 109.069 48.4013 109.368 49.6661C109.666 50.9309 110.934 51.7142 112.198 51.4157Z" fill="white"/>
<path d="M119.22 51.7333C120.66 51.3934 121.552 49.9501 121.213 48.5098C120.873 47.0694 119.429 46.1773 117.989 46.5173C116.549 46.8572 115.657 48.3005 115.997 49.7409C116.336 51.1812 117.78 52.0733 119.22 51.7333Z" fill="white"/>
<path d="M125.574 51.554C126.926 51.554 128.021 50.4584 128.021 49.1069C128.021 47.7553 126.926 46.6597 125.574 46.6597C124.223 46.6597 123.127 47.7553 123.127 49.1069C123.127 50.4584 124.223 51.554 125.574 51.554Z" fill="white"/>
<path d="M132.526 50.2788C133.177 50.2788 133.703 49.7528 133.703 49.1023C133.703 48.4518 133.177 47.9258 132.526 47.9258C131.876 47.9258 131.35 48.4518 131.35 49.1023C131.35 49.7528 131.876 50.2788 132.526 50.2788Z" fill="white"/>
<path d="M139.477 49.2617C139.563 49.2617 139.632 49.1923 139.632 49.1067C139.632 49.0211 139.563 48.9517 139.477 48.9517C139.392 48.9517 139.322 49.0211 139.322 49.1067C139.322 49.1923 139.392 49.2617 139.477 49.2617Z" fill="white"/>
<path d="M0.44431 56.3261C0.593795 56.3261 0.712821 56.2043 0.712821 56.0576C0.712821 55.9109 0.591026 55.7891 0.44431 55.7891C0.297593 55.7891 0.175781 55.9109 0.175781 56.0576C0.175781 56.2043 0.297593 56.3261 0.44431 56.3261Z" fill="white"/>
<path d="M7.39393 57.5413C8.2134 57.5413 8.8777 56.877 8.8777 56.0575C8.8777 55.238 8.2134 54.5737 7.39393 54.5737C6.57446 54.5737 5.91016 55.238 5.91016 56.0575C5.91016 56.877 6.57446 57.5413 7.39393 57.5413Z" fill="white"/>
<path d="M14.7951 58.6092C16.1988 58.3558 17.1314 57.0125 16.8781 55.6087C16.6247 54.205 15.2814 53.2723 13.8777 53.5257C12.4739 53.779 11.5413 55.1224 11.7946 56.5261C12.048 57.9299 13.3913 58.8625 14.7951 58.6092Z" fill="white"/>
<path d="M21.9207 58.5905C23.3294 58.2565 24.2007 56.8436 23.8666 55.4348C23.5325 54.026 22.1197 53.1548 20.7109 53.4889C19.3022 53.8229 18.431 55.2358 18.765 56.6446C19.0991 58.0534 20.5119 58.9246 21.9207 58.5905Z" fill="white"/>
<path d="M28.2491 58.2165C29.4423 58.2165 30.4084 57.2503 30.4084 56.0572C30.4084 54.8641 29.4423 53.8979 28.2491 53.8979C27.056 53.8979 26.0899 54.8641 26.0899 56.0572C26.0899 57.2503 27.056 58.2165 28.2491 58.2165Z" fill="white"/>
<path d="M35.1999 57.8687C36.202 57.8687 37.0131 57.0575 37.0131 56.0554C37.0131 55.0533 36.202 54.2422 35.1999 54.2422C34.1978 54.2422 33.3867 55.0533 33.3867 56.0554C33.3867 57.0575 34.1978 57.8687 35.1999 57.8687Z" fill="white"/>
<path d="M42.1537 57.6764C43.0478 57.6764 43.7731 56.9511 43.7731 56.0569C43.7731 55.1628 43.0478 54.4375 42.1537 54.4375C41.2595 54.4375 40.5342 55.1628 40.5342 56.0569C40.5342 56.9511 41.2595 57.6764 42.1537 57.6764Z" fill="white"/>
<path d="M49.6879 57.4909C50.4756 57.1673 50.8519 56.2665 50.5283 55.4787C50.2048 54.691 49.3039 54.3147 48.5162 54.6383C47.7285 54.9618 47.3522 55.8627 47.6757 56.6504C47.9993 57.4382 48.9001 57.8144 49.6879 57.4909Z" fill="white"/>
<path d="M56.057 57.5413C56.8765 57.5413 57.5408 56.877 57.5408 56.0575C57.5408 55.238 56.8765 54.5737 56.057 54.5737C55.2375 54.5737 54.5732 55.238 54.5732 56.0575C54.5732 56.877 55.2375 57.5413 56.057 57.5413Z" fill="white"/>
<path d="M63.0062 57.5413C63.8257 57.5413 64.49 56.877 64.49 56.0575C64.49 55.238 63.8257 54.5737 63.0062 54.5737C62.1868 54.5737 61.5225 55.238 61.5225 56.0575C61.5225 56.877 62.1868 57.5413 63.0062 57.5413Z" fill="white"/>
<path d="M69.9634 57.5413C70.7829 57.5413 71.4472 56.877 71.4472 56.0575C71.4472 55.238 70.7829 54.5737 69.9634 54.5737C69.1439 54.5737 68.4796 55.238 68.4796 56.0575C68.4796 56.877 69.1439 57.5413 69.9634 57.5413Z" fill="white"/>
<path d="M76.9126 57.5413C77.7321 57.5413 78.3964 56.877 78.3964 56.0575C78.3964 55.238 77.7321 54.5737 76.9126 54.5737C76.0931 54.5737 75.4288 55.238 75.4288 56.0575C75.4288 56.877 76.0931 57.5413 76.9126 57.5413Z" fill="white"/>
<path d="M83.8656 57.5413C84.6851 57.5413 85.3494 56.877 85.3494 56.0575C85.3494 55.238 84.6851 54.5737 83.8656 54.5737C83.0462 54.5737 82.3818 55.238 82.3818 56.0575C82.3818 56.877 83.0462 57.5413 83.8656 57.5413Z" fill="white"/>
<path d="M90.8146 57.5803C91.6562 57.5803 92.3372 56.8993 92.3372 56.0577C92.3372 55.2162 91.6562 54.5352 90.8146 54.5352C89.9731 54.5352 89.2921 55.2162 89.2921 56.0577C89.2921 56.8993 89.9731 57.5803 90.8146 57.5803Z" fill="white"/>
<path d="M97.7672 57.6582C98.6502 57.6582 99.3672 56.9412 99.3672 56.0581C99.3672 55.175 98.6502 54.458 97.7672 54.458C96.8841 54.458 96.1671 55.175 96.1671 56.0581C96.1671 56.9412 96.8841 57.6582 97.7672 57.6582Z" fill="white"/>
<path d="M104.719 57.8514C105.71 57.8514 106.513 57.0482 106.513 56.0575C106.513 55.0668 105.71 54.2637 104.719 54.2637C103.728 54.2637 102.925 55.0668 102.925 56.0575C102.925 57.0482 103.728 57.8514 104.719 57.8514Z" fill="white"/>
<path d="M112.146 58.1591C113.296 57.8876 114.008 56.7351 113.737 55.5849C113.466 54.4347 112.313 53.7223 111.163 53.9938C110.013 54.2653 109.3 55.4178 109.572 56.568C109.843 57.7182 110.996 58.4306 112.146 58.1591Z" fill="white"/>
<path d="M119.208 58.6277C120.617 58.2951 121.49 56.8831 121.157 55.474C120.825 54.0649 119.413 53.1922 118.004 53.5248C116.595 53.8573 115.722 55.2693 116.054 56.6784C116.387 58.0875 117.799 58.9602 119.208 58.6277Z" fill="white"/>
<path d="M126.164 58.6277C127.573 58.2951 128.446 56.8831 128.113 55.474C127.781 54.0649 126.369 53.1922 124.96 53.5248C123.551 53.8573 122.678 55.2693 123.011 56.6784C123.343 58.0875 124.755 58.9602 126.164 58.6277Z" fill="white"/>
<path d="M132.528 57.6379C133.401 57.6379 134.109 56.9302 134.109 56.0572C134.109 55.1842 133.401 54.4766 132.528 54.4766C131.655 54.4766 130.947 55.1842 130.947 56.0572C130.947 56.9302 131.655 57.6379 132.528 57.6379Z" fill="white"/>
<path d="M139.477 56.3646C139.647 56.3646 139.785 56.227 139.785 56.0573C139.785 55.8876 139.647 55.75 139.477 55.75C139.308 55.75 139.17 55.8876 139.17 56.0573C139.17 56.227 139.308 56.3646 139.477 56.3646Z" fill="white"/>
<path d="M0.443232 63.4128C0.66746 63.4128 0.847385 63.2329 0.847385 63.0087C0.847385 62.7844 0.66746 62.6045 0.443232 62.6045C0.219004 62.6045 0.0390625 62.7844 0.0390625 63.0087C0.0390625 63.2329 0.219004 63.4128 0.443232 63.4128Z" fill="white"/>
<path d="M7.39668 64.7646C8.36556 64.7646 9.15175 63.9784 9.15175 63.0095C9.15175 62.0406 8.36556 61.2544 7.39668 61.2544C6.42779 61.2544 5.6416 62.0406 5.6416 63.0095C5.6416 63.9784 6.42779 64.7646 7.39668 64.7646Z" fill="white"/>
<path d="M15.3607 65.4368C16.7114 64.8864 17.3601 63.3453 16.8097 61.9945C16.2594 60.6438 14.7182 59.995 13.3675 60.5454C12.0168 61.0958 11.3681 62.637 11.9184 63.9877C12.4688 65.3384 14.01 65.9872 15.3607 65.4368Z" fill="white"/>
<path d="M22.0303 65.4789C23.3836 65.0631 24.1436 63.6289 23.7278 62.2756C23.312 60.9223 21.8778 60.1623 20.5245 60.5782C19.1713 60.994 18.4113 62.4281 18.8271 63.7814C19.2429 65.1347 20.677 65.8947 22.0303 65.4789Z" fill="white"/>
<path d="M28.7542 64.9668C29.8521 64.7066 30.5312 63.6057 30.2711 62.5078C30.011 61.4099 28.91 60.7307 27.8121 60.9909C26.7142 61.251 26.0351 62.352 26.2952 63.4499C26.5554 64.5478 27.6563 65.2269 28.7542 64.9668Z" fill="white"/>
<path d="M35.1996 64.7449C36.1574 64.7449 36.9353 63.967 36.9353 63.0092C36.9353 62.0513 36.1574 61.2734 35.1996 61.2734C34.2418 61.2734 33.4639 62.0513 33.4639 63.0092C33.4639 63.967 34.2418 64.7449 35.1996 64.7449Z" fill="white"/>
<path d="M42.154 64.5886C43.027 64.5886 43.7346 63.8809 43.7346 63.0079C43.7346 62.1349 43.027 61.4272 42.154 61.4272C41.281 61.4272 40.5733 62.1349 40.5733 63.0079C40.5733 63.8809 41.281 64.5886 42.154 64.5886Z" fill="white"/>
<path d="M49.1078 64.5118C49.9382 64.5118 50.6109 63.839 50.6109 63.0086C50.6109 62.1781 49.9382 61.5054 49.1078 61.5054C48.2773 61.5054 47.6046 62.1781 47.6046 63.0086C47.6046 63.839 48.2773 64.5118 49.1078 64.5118Z" fill="white"/>
<path d="M56.057 64.492C56.8765 64.492 57.5408 63.8277 57.5408 63.0082C57.5408 62.1887 56.8765 61.5244 56.057 61.5244C55.2375 61.5244 54.5732 62.1887 54.5732 63.0082C54.5732 63.8277 55.2375 64.492 56.057 64.492Z" fill="white"/>
<path d="M63.0062 64.492C63.8257 64.492 64.49 63.8277 64.49 63.0082C64.49 62.1887 63.8257 61.5244 63.0062 61.5244C62.1868 61.5244 61.5225 62.1887 61.5225 63.0082C61.5225 63.8277 62.1868 64.492 63.0062 64.492Z" fill="white"/>
<path d="M69.9634 64.492C70.7829 64.492 71.4472 63.8277 71.4472 63.0082C71.4472 62.1887 70.7829 61.5244 69.9634 61.5244C69.1439 61.5244 68.4796 62.1887 68.4796 63.0082C68.4796 63.8277 69.1439 64.492 69.9634 64.492Z" fill="white"/>
<path d="M76.9126 64.492C77.7321 64.492 78.3964 63.8277 78.3964 63.0082C78.3964 62.1887 77.7321 61.5244 76.9126 61.5244C76.0931 61.5244 75.4288 62.1887 75.4288 63.0082C75.4288 63.8277 76.0931 64.492 76.9126 64.492Z" fill="white"/>
<path d="M83.8656 64.492C84.6851 64.492 85.3494 63.8277 85.3494 63.0082C85.3494 62.1887 84.6851 61.5244 83.8656 61.5244C83.0462 61.5244 82.3818 62.1887 82.3818 63.0082C82.3818 63.8277 83.0462 64.492 83.8656 64.492Z" fill="white"/>
<path d="M90.8148 64.5118C91.6453 64.5118 92.318 63.839 92.318 63.0086C92.318 62.1781 91.6453 61.5054 90.8148 61.5054C89.9843 61.5054 89.3116 62.1781 89.3116 63.0086C89.3116 63.839 89.9843 64.5118 90.8148 64.5118Z" fill="white"/>
<path d="M97.7666 64.5704C98.6303 64.5704 99.3279 63.87 99.3279 63.0091C99.3279 62.1481 98.6275 61.4478 97.7666 61.4478C96.9057 61.4478 96.2053 62.1481 96.2053 63.0091C96.2053 63.87 96.9057 64.5704 97.7666 64.5704Z" fill="white"/>
<path d="M104.719 64.7246C105.666 64.7246 106.436 63.9578 106.436 63.0083C106.436 62.0588 105.669 61.292 104.719 61.292C103.77 61.292 103.003 62.0588 103.003 63.0083C103.003 63.9578 103.77 64.7246 104.719 64.7246Z" fill="white"/>
<path d="M111.671 65.0316C112.789 65.0316 113.695 64.1256 113.695 63.008C113.695 61.8904 112.789 60.9844 111.671 60.9844C110.554 60.9844 109.648 61.8904 109.648 63.008C109.648 64.1256 110.554 65.0316 111.671 65.0316Z" fill="white"/>
<path d="M118.624 65.5337C120.019 65.5337 121.149 64.4034 121.149 63.009C121.149 61.6147 120.019 60.4844 118.624 60.4844C117.23 60.4844 116.1 61.6147 116.1 63.009C116.1 64.4034 117.23 65.5337 118.624 65.5337Z" fill="white"/>
<path d="M125.577 65.6693C127.047 65.6693 128.238 64.4782 128.238 63.0089C128.238 61.5397 127.047 60.3486 125.577 60.3486C124.108 60.3486 122.917 61.5397 122.917 63.0089C122.917 64.4782 124.108 65.6693 125.577 65.6693Z" fill="white"/>
<path d="M132.526 64.841C133.536 64.841 134.359 64.0216 134.359 63.0084C134.359 61.9952 133.539 61.1758 132.526 61.1758C131.513 61.1758 130.693 61.9952 130.693 63.0084C130.693 64.0216 131.513 64.841 132.526 64.841Z" fill="white"/>
<path d="M139.476 63.471C139.731 63.471 139.938 63.2634 139.938 63.0087C139.938 62.754 139.731 62.5464 139.476 62.5464C139.221 62.5464 139.014 62.754 139.014 63.0087C139.014 63.2634 139.221 63.471 139.476 63.471Z" fill="white"/>
<path d="M0.442929 70.4049C0.686534 70.4049 0.885841 70.2056 0.885841 69.962C0.885841 69.7184 0.686534 69.519 0.442929 69.519C0.199324 69.519 0 69.7184 0 69.962C0 70.2056 0.199324 70.4049 0.442929 70.4049Z" fill="white"/>
<path d="M7.39395 71.8114C8.41675 71.8114 9.2459 70.9822 9.2459 69.9594C9.2459 68.9366 8.41675 68.1074 7.39395 68.1074C6.37114 68.1074 5.54199 68.9366 5.54199 69.9594C5.54199 70.9822 6.37114 71.8114 7.39395 71.8114Z" fill="white"/>
<path d="M14.7924 72.5976C16.2383 72.3366 17.1989 70.953 16.9379 69.5071C16.677 68.0612 15.2934 67.1006 13.8475 67.3615C12.4016 67.6225 11.441 69.0061 11.702 70.452C11.9629 71.8979 13.3465 72.8585 14.7924 72.5976Z" fill="white"/>
<path d="M21.8532 72.4126C23.2151 72.1137 24.0768 70.7673 23.7778 69.4054C23.4789 68.0435 22.1325 67.1818 20.7706 67.4807C19.4087 67.7796 18.547 69.126 18.846 70.4879C19.1449 71.8499 20.4913 72.7116 21.8532 72.4126Z" fill="white"/>
<path d="M28.6839 71.9594C29.7714 71.7019 30.4443 70.6116 30.1868 69.524C29.9293 68.4365 28.839 67.7636 27.7514 68.0211C26.6639 68.2786 25.991 69.3689 26.2485 70.4565C26.506 71.544 27.5963 72.2169 28.6839 71.9594Z" fill="white"/>
<path d="M35.2007 71.6768C36.1475 71.6768 36.9171 70.91 36.9171 69.9605C36.9171 69.0109 36.1503 68.2441 35.2007 68.2441C34.2512 68.2441 33.4844 69.0109 33.4844 69.9605C33.4844 70.91 34.2512 71.6768 35.2007 71.6768Z" fill="white"/>
<path d="M42.1541 71.5206C43.0178 71.5206 43.7154 70.8202 43.7154 69.9593C43.7154 69.0983 43.015 68.3979 42.1541 68.3979C41.2931 68.3979 40.5928 69.0983 40.5928 69.9593C40.5928 70.8202 41.2931 71.5206 42.1541 71.5206Z" fill="white"/>
<path d="M49.1078 71.4659C49.9382 71.4659 50.6109 70.7931 50.6109 69.9627C50.6109 69.1322 49.9382 68.4595 49.1078 68.4595C48.2773 68.4595 47.6046 69.1322 47.6046 69.9627C47.6046 70.7931 48.2773 71.4659 49.1078 71.4659Z" fill="white"/>
<path d="M56.057 71.4432C56.8765 71.4432 57.5408 70.7789 57.5408 69.9594C57.5408 69.1399 56.8765 68.4756 56.057 68.4756C55.2375 68.4756 54.5732 69.1399 54.5732 69.9594C54.5732 70.7789 55.2375 71.4432 56.057 71.4432Z" fill="white"/>
<path d="M63.0062 71.4432C63.8257 71.4432 64.49 70.7789 64.49 69.9594C64.49 69.1399 63.8257 68.4756 63.0062 68.4756C62.1868 68.4756 61.5225 69.1399 61.5225 69.9594C61.5225 70.7789 62.1868 71.4432 63.0062 71.4432Z" fill="white"/>
<path d="M69.9634 71.4432C70.7829 71.4432 71.4472 70.7789 71.4472 69.9594C71.4472 69.1399 70.7829 68.4756 69.9634 68.4756C69.1439 68.4756 68.4796 69.1399 68.4796 69.9594C68.4796 70.7789 69.1439 71.4432 69.9634 71.4432Z" fill="white"/>
<path d="M76.9126 71.4432C77.7321 71.4432 78.3964 70.7789 78.3964 69.9594C78.3964 69.1399 77.7321 68.4756 76.9126 68.4756C76.0931 68.4756 75.4288 69.1399 75.4288 69.9594C75.4288 70.7789 76.0931 71.4432 76.9126 71.4432Z" fill="white"/>
<path d="M83.8656 71.4432C84.6851 71.4432 85.3494 70.7789 85.3494 69.9594C85.3494 69.1399 84.6851 68.4756 83.8656 68.4756C83.0462 68.4756 82.3818 69.1399 82.3818 69.9594C82.3818 70.7789 83.0462 71.4432 83.8656 71.4432Z" fill="white"/>
<path d="M90.8148 71.4659C91.6453 71.4659 92.318 70.7931 92.318 69.9627C92.318 69.1322 91.6453 68.4595 90.8148 68.4595C89.9843 68.4595 89.3116 69.1322 89.3116 69.9627C89.3116 70.7931 89.9843 71.4659 90.8148 71.4659Z" fill="white"/>
<path d="M97.7666 71.5206C98.6303 71.5206 99.3279 70.8202 99.3279 69.9593C99.3279 69.0983 98.6275 68.3979 97.7666 68.3979C96.9057 68.3979 96.2053 69.0983 96.2053 69.9593C96.2053 70.8202 96.9057 71.5206 97.7666 71.5206Z" fill="white"/>
<path d="M104.719 71.6571C105.656 71.6571 106.415 70.8973 106.415 69.9601C106.415 69.0229 105.656 68.2632 104.719 68.2632C103.781 68.2632 103.022 69.0229 103.022 69.9601C103.022 70.8973 103.781 71.6571 104.719 71.6571Z" fill="white"/>
<path d="M111.671 71.9487C112.767 71.9487 113.655 71.0601 113.655 69.9639C113.655 68.8676 112.767 67.979 111.671 67.979C110.574 67.979 109.686 68.8676 109.686 69.9639C109.686 71.0601 110.574 71.9487 111.671 71.9487Z" fill="white"/>
<path d="M118.622 72.4459C119.995 72.4459 121.108 71.333 121.108 69.96C121.108 68.5871 119.995 67.4741 118.622 67.4741C117.249 67.4741 116.136 68.5871 116.136 69.96C116.136 71.333 117.249 72.4459 118.622 72.4459Z" fill="white"/>
<path d="M125.577 72.6214C127.047 72.6214 128.238 71.4303 128.238 69.9611C128.238 68.4918 127.047 67.3008 125.577 67.3008C124.108 67.3008 122.917 68.4918 122.917 69.9611C122.917 71.4303 124.108 72.6214 125.577 72.6214Z" fill="white"/>
<path d="M132.526 71.9059C133.601 71.9059 134.472 71.0346 134.472 69.9598C134.472 68.885 133.601 68.0137 132.526 68.0137C131.451 68.0137 130.58 68.885 130.58 69.9598C130.58 71.0346 131.451 71.9059 132.526 71.9059Z" fill="white"/>
<path d="M139.48 70.4803C139.767 70.4803 140 70.2473 140 69.9599C140 69.6725 139.767 69.4395 139.48 69.4395C139.192 69.4395 138.959 69.6725 138.959 69.9599C138.959 70.2473 139.192 70.4803 139.48 70.4803Z" fill="white"/>
<path d="M0.443232 77.3171C0.66746 77.3171 0.847385 77.1372 0.847385 76.9129C0.847385 76.6887 0.66746 76.5088 0.443232 76.5088C0.219004 76.5088 0.0390625 76.6887 0.0390625 76.9129C0.0390625 77.1372 0.219004 77.3171 0.443232 77.3171Z" fill="white"/>
<path d="M7.39668 78.6654C8.36556 78.6654 9.15175 77.8793 9.15175 76.9104C9.15175 75.9415 8.36556 75.1553 7.39668 75.1553C6.42779 75.1553 5.6416 75.9415 5.6416 76.9104C5.6416 77.8793 6.42779 78.6654 7.39668 78.6654Z" fill="white"/>
<path d="M15.3607 79.3406C16.7114 78.7902 17.3601 77.2491 16.8097 75.8984C16.2594 74.5476 14.7182 73.8988 13.3675 74.4492C12.0168 74.9996 11.3681 76.5408 11.9184 77.8915C12.4688 79.2422 14.01 79.891 15.3607 79.3406Z" fill="white"/>
<path d="M22.0303 79.3842C23.3836 78.9684 24.1436 77.5342 23.7278 76.1809C23.312 74.8276 21.8778 74.0676 20.5245 74.4834C19.1713 74.8992 18.4113 76.3334 18.8271 77.6867C19.2429 79.04 20.677 79.8 22.0303 79.3842Z" fill="white"/>
<path d="M28.7582 78.8721C29.8561 78.6119 30.5352 77.511 30.2751 76.4131C30.0149 75.3152 28.914 74.636 27.8161 74.8962C26.7182 75.1563 26.0391 76.2572 26.2992 77.3551C26.5593 78.4531 27.6603 79.1322 28.7582 78.8721Z" fill="white"/>
<path d="M35.1996 78.6462C36.1574 78.6462 36.9353 77.8683 36.9353 76.9105C36.9353 75.9527 36.1574 75.1748 35.1996 75.1748C34.2418 75.1748 33.4639 75.9527 33.4639 76.9105C33.4639 77.8683 34.2418 78.6462 35.1996 78.6462Z" fill="white"/>
<path d="M42.154 78.4944C43.027 78.4944 43.7346 77.7867 43.7346 76.9137C43.7346 76.0407 43.027 75.333 42.154 75.333C41.281 75.333 40.5733 76.0407 40.5733 76.9137C40.5733 77.7867 41.281 78.4944 42.154 78.4944Z" fill="white"/>
<path d="M49.1078 78.4165C49.9382 78.4165 50.6109 77.7438 50.6109 76.9133C50.6109 76.0828 49.9382 75.4102 49.1078 75.4102C48.2773 75.4102 47.6046 76.0828 47.6046 76.9133C47.6046 77.7438 48.2773 78.4165 49.1078 78.4165Z" fill="white"/>
<path d="M56.057 78.3983C56.8765 78.3983 57.5408 77.7339 57.5408 76.9145C57.5408 76.095 56.8765 75.4307 56.057 75.4307C55.2375 75.4307 54.5732 76.095 54.5732 76.9145C54.5732 77.7339 55.2375 78.3983 56.057 78.3983Z" fill="white"/>
<path d="M63.0062 78.3983C63.8257 78.3983 64.49 77.7339 64.49 76.9145C64.49 76.095 63.8257 75.4307 63.0062 75.4307C62.1868 75.4307 61.5225 76.095 61.5225 76.9145C61.5225 77.7339 62.1868 78.3983 63.0062 78.3983Z" fill="white"/>
<path d="M69.9634 78.3983C70.7829 78.3983 71.4472 77.7339 71.4472 76.9145C71.4472 76.095 70.7829 75.4307 69.9634 75.4307C69.1439 75.4307 68.4796 76.095 68.4796 76.9145C68.4796 77.7339 69.1439 78.3983 69.9634 78.3983Z" fill="white"/>
<path d="M76.9126 78.3983C77.7321 78.3983 78.3964 77.7339 78.3964 76.9145C78.3964 76.095 77.7321 75.4307 76.9126 75.4307C76.0931 75.4307 75.4288 76.095 75.4288 76.9145C75.4288 77.7339 76.0931 78.3983 76.9126 78.3983Z" fill="white"/>
<path d="M83.8656 78.3983C84.6851 78.3983 85.3494 77.7339 85.3494 76.9145C85.3494 76.095 84.6851 75.4307 83.8656 75.4307C83.0462 75.4307 82.3818 76.095 82.3818 76.9145C82.3818 77.7339 83.0462 78.3983 83.8656 78.3983Z" fill="white"/>
<path d="M90.8148 78.4165C91.6453 78.4165 92.318 77.7438 92.318 76.9133C92.318 76.0828 91.6453 75.4102 90.8148 75.4102C89.9843 75.4102 89.3116 76.0828 89.3116 76.9133C89.3116 77.7438 89.9843 78.4165 90.8148 78.4165Z" fill="white"/>
<path d="M97.7666 78.4747C98.6303 78.4747 99.3279 77.7743 99.3279 76.9134C99.3279 76.0524 98.6275 75.3521 97.7666 75.3521C96.9057 75.3521 96.2053 76.0524 96.2053 76.9134C96.2053 77.7743 96.9057 78.4747 97.7666 78.4747Z" fill="white"/>
<path d="M104.719 78.6275C105.666 78.6275 106.436 77.8607 106.436 76.9111C106.436 75.9616 105.669 75.1948 104.719 75.1948C103.77 75.1948 103.003 75.9616 103.003 76.9111C103.003 77.8607 103.77 78.6275 104.719 78.6275Z" fill="white"/>
<path d="M111.671 78.9378C112.789 78.9378 113.695 78.0318 113.695 76.9142C113.695 75.7966 112.789 74.8906 111.671 74.8906C110.554 74.8906 109.648 75.7966 109.648 76.9142C109.648 78.0318 110.554 78.9378 111.671 78.9378Z" fill="white"/>
<path d="M118.624 79.438C120.019 79.438 121.149 78.3077 121.149 76.9133C121.149 75.519 120.019 74.3887 118.624 74.3887C117.23 74.3887 116.1 75.519 116.1 76.9133C116.1 78.3077 117.23 79.438 118.624 79.438Z" fill="white"/>
<path d="M125.577 79.5736C127.047 79.5736 128.238 78.3825 128.238 76.9132C128.238 75.444 127.047 74.2529 125.577 74.2529C124.108 74.2529 122.917 75.444 122.917 76.9132C122.917 78.3825 124.108 79.5736 125.577 79.5736Z" fill="white"/>
<path d="M132.526 78.766C133.549 78.766 134.378 77.9368 134.378 76.914C134.378 75.8912 133.549 75.062 132.526 75.062C131.503 75.062 130.674 75.8912 130.674 76.914C130.674 77.9368 131.503 78.766 132.526 78.766Z" fill="white"/>
<path d="M139.476 77.3758C139.731 77.3758 139.938 77.1682 139.938 76.9135C139.938 76.6588 139.731 76.4512 139.476 76.4512C139.221 76.4512 139.014 76.6588 139.014 76.9135C139.014 77.1682 139.221 77.3758 139.476 77.3758Z" fill="white"/>
<path d="M0.44431 84.1337C0.593795 84.1337 0.712821 84.0119 0.712821 83.8652C0.712821 83.7185 0.591026 83.5967 0.44431 83.5967C0.297593 83.5967 0.175781 83.7185 0.175781 83.8652C0.175781 84.0119 0.297593 84.1337 0.44431 84.1337Z" fill="white"/>
<path d="M7.39265 85.3874C8.2342 85.3874 8.91518 84.7064 8.91518 83.8648C8.91518 83.0233 8.2342 82.3423 7.39265 82.3423C6.55111 82.3423 5.87012 83.0233 5.87012 83.8648C5.87012 84.7064 6.55111 85.3874 7.39265 85.3874Z" fill="white"/>
<path d="M14.6732 86.4423C16.0996 86.2674 17.1142 84.9692 16.9393 83.5428C16.7644 82.1163 15.4663 81.1017 14.0398 81.2766C12.6134 81.4515 11.5988 82.7496 11.7737 84.1761C11.9486 85.6026 13.2467 86.6172 14.6732 86.4423Z" fill="white"/>
<path d="M21.9207 86.3991C23.3294 86.0651 24.2007 84.6522 23.8666 83.2434C23.5325 81.8346 22.1197 80.9634 20.7109 81.2975C19.3022 81.6315 18.431 83.0444 18.765 84.4532C19.0991 85.8619 20.5119 86.7332 21.9207 86.3991Z" fill="white"/>
<path d="M28.2491 86.0246C29.4423 86.0246 30.4084 85.0584 30.4084 83.8653C30.4084 82.6722 29.4423 81.7061 28.2491 81.7061C27.056 81.7061 26.0899 82.6722 26.0899 83.8653C26.0899 85.0584 27.056 86.0246 28.2491 86.0246Z" fill="white"/>
<path d="M35.4818 85.6432C36.4595 85.4831 37.1223 84.5607 36.9622 83.5831C36.8021 82.6054 35.8798 81.9426 34.9021 82.1027C33.9244 82.2628 33.2616 83.1851 33.4217 84.1628C33.5818 85.1405 34.5042 85.8033 35.4818 85.6432Z" fill="white"/>
<path d="M42.1537 85.485C43.0478 85.485 43.7731 84.7597 43.7731 83.8655C43.7731 82.9714 43.0478 82.2461 42.1537 82.2461C41.2595 82.2461 40.5342 82.9714 40.5342 83.8655C40.5342 84.7597 41.2595 85.485 42.1537 85.485Z" fill="white"/>
<path d="M50.6024 84.1107C50.7454 83.282 50.1896 82.4944 49.361 82.3514C48.5323 82.2084 47.7447 82.7642 47.6017 83.5929C47.4587 84.4215 48.0146 85.2092 48.8432 85.3522C49.6718 85.4951 50.4595 84.9393 50.6024 84.1107Z" fill="white"/>
<path d="M56.057 85.3484C56.8765 85.3484 57.5408 84.6841 57.5408 83.8647C57.5408 83.0452 56.8765 82.3809 56.057 82.3809C55.2375 82.3809 54.5732 83.0452 54.5732 83.8647C54.5732 84.6841 55.2375 85.3484 56.057 85.3484Z" fill="white"/>
<path d="M63.0062 85.3484C63.8257 85.3484 64.49 84.6841 64.49 83.8647C64.49 83.0452 63.8257 82.3809 63.0062 82.3809C62.1868 82.3809 61.5225 83.0452 61.5225 83.8647C61.5225 84.6841 62.1868 85.3484 63.0062 85.3484Z" fill="white"/>
<path d="M69.9634 85.3484C70.7829 85.3484 71.4472 84.6841 71.4472 83.8647C71.4472 83.0452 70.7829 82.3809 69.9634 82.3809C69.1439 82.3809 68.4796 83.0452 68.4796 83.8647C68.4796 84.6841 69.1439 85.3484 69.9634 85.3484Z" fill="white"/>
<path d="M76.9126 85.3484C77.7321 85.3484 78.3964 84.6841 78.3964 83.8647C78.3964 83.0452 77.7321 82.3809 76.9126 82.3809C76.0931 82.3809 75.4288 83.0452 75.4288 83.8647C75.4288 84.6841 76.0931 85.3484 76.9126 85.3484Z" fill="white"/>
<path d="M83.8656 85.3484C84.6851 85.3484 85.3494 84.6841 85.3494 83.8647C85.3494 83.0452 84.6851 82.3809 83.8656 82.3809C83.0462 82.3809 82.3818 83.0452 82.3818 83.8647C82.3818 84.6841 83.0462 85.3484 83.8656 85.3484Z" fill="white"/>
<path d="M90.8146 85.3874C91.6555 85.3874 92.3372 84.7057 92.3372 83.8648C92.3372 83.024 91.6555 82.3423 90.8146 82.3423C89.9738 82.3423 89.2921 83.024 89.2921 83.8648C89.2921 84.7057 89.9738 85.3874 90.8146 85.3874Z" fill="white"/>
<path d="M97.7672 85.4648C98.6502 85.4648 99.3672 84.7478 99.3672 83.8647C99.3672 82.9816 98.6502 82.2646 97.7672 82.2646C96.8841 82.2646 96.1671 82.9816 96.1671 83.8647C96.1671 84.7478 96.8841 85.4648 97.7672 85.4648Z" fill="white"/>
<path d="M104.719 85.6393C105.699 85.6393 106.493 84.8447 106.493 83.8648C106.493 82.8848 105.699 82.0903 104.719 82.0903C103.739 82.0903 102.944 82.8848 102.944 83.8648C102.944 84.8447 103.739 85.6393 104.719 85.6393Z" fill="white"/>
<path d="M111.673 85.9861C112.844 85.9861 113.794 85.0367 113.794 83.8656C113.794 82.6945 112.844 81.7451 111.673 81.7451C110.502 81.7451 109.553 82.6945 109.553 83.8656C109.553 85.0367 110.502 85.9861 111.673 85.9861Z" fill="white"/>
<path d="M118.62 86.4676C120.057 86.4676 121.222 85.3025 121.222 83.8654C121.222 82.4282 120.057 81.2632 118.62 81.2632C117.183 81.2632 116.018 82.4282 116.018 83.8654C116.018 85.3025 117.183 86.4676 118.62 86.4676Z" fill="white"/>
<path d="M126.16 86.4358C127.569 86.1032 128.442 84.6912 128.109 83.2821C127.777 81.873 126.365 81.0003 124.956 81.3329C123.547 81.6654 122.674 83.0774 123.007 84.4865C123.339 85.8956 124.751 86.7683 126.16 86.4358Z" fill="white"/>
<path d="M132.528 85.485C133.422 85.485 134.147 84.7597 134.147 83.8655C134.147 82.9714 133.422 82.2461 132.528 82.2461C131.634 82.2461 130.908 82.9714 130.908 83.8655C130.908 84.7597 131.634 85.485 132.528 85.485Z" fill="white"/>
<path d="M139.477 84.1929C139.658 84.1929 139.804 84.0466 139.804 83.8662C139.804 83.6858 139.658 83.5396 139.477 83.5396C139.297 83.5396 139.151 83.6858 139.151 83.8662C139.151 84.0466 139.297 84.1929 139.477 84.1929Z" fill="white"/>
<path d="M0.444386 90.9327C0.508056 90.9327 0.560648 90.8801 0.560648 90.8164C0.560648 90.7528 0.508056 90.7002 0.444386 90.7002C0.380717 90.7002 0.328125 90.7528 0.328125 90.8164C0.328125 90.8801 0.380717 90.9327 0.444386 90.9327Z" fill="white"/>
<path d="M7.3918 91.9345C8.00912 91.9345 8.51017 91.4334 8.51017 90.8161C8.51017 90.1988 8.00912 89.6978 7.3918 89.6978C6.77448 89.6978 6.27344 90.1988 6.27344 90.8161C6.27344 91.4334 6.77448 91.9345 7.3918 91.9345Z" fill="white"/>
<path d="M14.79 93.1753C16.099 92.9391 16.9686 91.6864 16.7324 90.3774C16.4961 89.0685 15.2435 88.1988 13.9345 88.4351C12.6256 88.6713 11.756 89.9239 11.9922 91.2329C12.2284 92.5419 13.481 93.4115 14.79 93.1753Z" fill="white"/>
<path d="M21.9269 93.4168C23.3669 93.0753 24.2575 91.6311 23.916 90.1911C23.5745 88.7511 22.1304 87.8606 20.6904 88.202C19.2504 88.5435 18.3598 89.9877 18.7013 91.4277C19.0427 92.8677 20.4869 93.7583 21.9269 93.4168Z" fill="white"/>
<path d="M28.2504 93.1892C29.5598 93.1892 30.6227 92.1289 30.6227 90.8167C30.6227 89.5046 29.5625 88.4443 28.2504 88.4443C26.9382 88.4443 25.878 89.5046 25.878 90.8167C25.878 92.1289 26.9382 93.1892 28.2504 93.1892Z" fill="white"/>
<path d="M35.2012 92.7455C36.267 92.7455 37.1279 91.8818 37.1279 90.8188C37.1279 89.7558 36.2642 88.8921 35.2012 88.8921C34.1382 88.8921 33.2745 89.7558 33.2745 90.8188C33.2745 91.8818 34.1382 92.7455 35.2012 92.7455Z" fill="white"/>
<path d="M42.153 92.5135C43.0902 92.5135 43.8499 91.7538 43.8499 90.8166C43.8499 89.8794 43.0902 89.1196 42.153 89.1196C41.2158 89.1196 40.4561 89.8794 40.4561 90.8166C40.4561 91.7538 41.2158 92.5135 42.153 92.5135Z" fill="white"/>
<path d="M49.7287 92.25C50.5362 91.9183 50.9219 90.9948 50.5902 90.1873C50.2586 89.3798 49.3351 88.994 48.5276 89.3257C47.72 89.6574 47.3343 90.5809 47.666 91.3884C47.9977 92.1959 48.9212 92.5817 49.7287 92.25Z" fill="white"/>
<path d="M56.0568 92.3391C56.8984 92.3391 57.5794 91.6581 57.5794 90.8165C57.5794 89.9749 56.8984 89.2939 56.0568 89.2939C55.2153 89.2939 54.5343 89.9749 54.5343 90.8165C54.5343 91.6581 55.2153 92.3391 56.0568 92.3391Z" fill="white"/>
<path d="M63.0061 92.3188C63.8365 92.3188 64.5092 91.6461 64.5092 90.8157C64.5092 89.9852 63.8365 89.3125 63.0061 89.3125C62.1756 89.3125 61.5029 89.9852 61.5029 90.8157C61.5029 91.6461 62.1756 92.3188 63.0061 92.3188Z" fill="white"/>
<path d="M69.9593 92.3188C70.7898 92.3188 71.4625 91.6461 71.4625 90.8157C71.4625 89.9852 70.7898 89.3125 69.9593 89.3125C69.1288 89.3125 68.4562 89.9852 68.4562 90.8157C68.4562 91.6461 69.1288 92.3188 69.9593 92.3188Z" fill="white"/>
<path d="M76.9123 92.3188C77.7428 92.3188 78.4155 91.6461 78.4155 90.8157C78.4155 89.9852 77.7428 89.3125 76.9123 89.3125C76.0818 89.3125 75.4092 89.9852 75.4092 90.8157C75.4092 91.6461 76.0818 92.3188 76.9123 92.3188Z" fill="white"/>
<path d="M83.8643 92.3391C84.7052 92.3391 85.3869 91.6574 85.3869 90.8165C85.3869 89.9756 84.7052 89.2939 83.8643 89.2939C83.0235 89.2939 82.3418 89.9756 82.3418 90.8165C82.3418 91.6574 83.0235 92.3391 83.8643 92.3391Z" fill="white"/>
<path d="M90.8131 92.3972C91.6861 92.3972 92.3938 91.6895 92.3938 90.8165C92.3938 89.9435 91.6861 89.2358 90.8131 89.2358C89.9401 89.2358 89.2324 89.9435 89.2324 90.8165C89.2324 91.6895 89.9401 92.3972 90.8131 92.3972Z" fill="white"/>
<path d="M97.7655 92.5135C98.7027 92.5135 99.4625 91.7538 99.4625 90.8166C99.4625 89.8794 98.7027 89.1196 97.7655 89.1196C96.8283 89.1196 96.0686 89.8794 96.0686 90.8166C96.0686 91.7538 96.8283 92.5135 97.7655 92.5135Z" fill="white"/>
<path d="M104.718 92.7229C105.771 92.7229 106.625 91.869 106.625 90.8156C106.625 89.7622 105.771 88.9082 104.718 88.9082C103.665 88.9082 102.811 89.7622 102.811 90.8156C102.811 91.869 103.665 92.7229 104.718 92.7229Z" fill="white"/>
<path d="M111.672 93.1497C112.96 93.1497 114.005 92.1049 114.005 90.8161C114.005 89.5272 112.96 88.4824 111.672 88.4824C110.383 88.4824 109.338 89.5272 109.338 90.8161C109.338 92.1049 110.383 93.1497 111.672 93.1497Z" fill="white"/>
<path d="M118.623 93.4759C120.093 93.4759 121.284 92.2848 121.284 90.8156C121.284 89.3463 120.093 88.1553 118.623 88.1553C117.154 88.1553 115.963 89.3463 115.963 90.8156C115.963 92.2848 117.154 93.4759 118.623 93.4759Z" fill="white"/>
<path d="M126.126 93.236C127.452 92.9231 128.273 91.5946 127.96 90.2688C127.647 88.943 126.318 88.122 124.993 88.4349C123.667 88.7478 122.846 90.0762 123.159 91.402C123.472 92.7278 124.8 93.5489 126.126 93.236Z" fill="white"/>
<path d="M132.527 92.0302C133.198 92.0302 133.742 91.4861 133.742 90.8149C133.742 90.1437 133.198 89.5996 132.527 89.5996C131.856 89.5996 131.312 90.1437 131.312 90.8149C131.312 91.4861 131.856 92.0302 132.527 92.0302Z" fill="white"/>
<path d="M139.477 90.9712C139.563 90.9712 139.632 90.9018 139.632 90.8161C139.632 90.7305 139.563 90.6611 139.477 90.6611C139.392 90.6611 139.322 90.7305 139.322 90.8161C139.322 90.9018 139.392 90.9712 139.477 90.9712Z" fill="white"/>
<path d="M0.441 97.7863C0.441 97.7863 0.460124 97.7781 0.460124 97.7672C0.460124 97.7562 0.451927 97.748 0.441 97.748C0.430072 97.748 0.421875 97.7562 0.421875 97.7672C0.421875 97.7781 0.430072 97.7863 0.441 97.7863Z" fill="white"/>
<path d="M7.39451 98.4043C7.74614 98.4043 8.0312 98.1192 8.0312 97.7675C8.0312 97.4159 7.74614 97.1309 7.39451 97.1309C7.04287 97.1309 6.75781 97.4159 6.75781 97.7675C6.75781 98.1192 7.04287 98.4043 7.39451 98.4043Z" fill="white"/>
<path d="M16.2447 98.1055C16.4551 97.0515 15.7712 96.0265 14.7173 95.8161C13.6633 95.6056 12.6383 96.2895 12.4279 97.3435C12.2174 98.3975 12.9013 99.4225 13.9553 99.6329C15.0093 99.8434 16.0343 99.1595 16.2447 98.1055Z" fill="white"/>
<path d="M21.2981 100.408C22.7567 100.408 23.939 99.2259 23.939 97.7674C23.939 96.3088 22.7567 95.1265 21.2981 95.1265C19.8396 95.1265 18.6572 96.3088 18.6572 97.7674C18.6572 99.2259 19.8396 100.408 21.2981 100.408Z" fill="white"/>
<path d="M28.6307 100.365C30.0491 100.134 31.012 98.7972 30.7812 97.3787C30.5505 95.9602 29.2135 94.9974 27.795 95.2282C26.3765 95.4589 25.4137 96.7959 25.6444 98.2144C25.8752 99.6329 27.2122 100.596 28.6307 100.365Z" fill="white"/>
<path d="M35.5483 99.9197C36.7359 99.7265 37.542 98.6071 37.3488 97.4195C37.1556 96.2319 36.0362 95.4257 34.8486 95.6189C33.661 95.8121 32.8549 96.9315 33.0481 98.1191C33.2413 99.3067 34.3607 100.113 35.5483 99.9197Z" fill="white"/>
<path d="M42.1567 99.6395C43.1893 99.6395 44.0253 98.8035 44.0253 97.7709C44.0253 96.7384 43.1893 95.9023 42.1567 95.9023C41.1242 95.9023 40.2881 96.7384 40.2881 97.7709C40.2881 98.8035 41.1242 99.6395 42.1567 99.6395Z" fill="white"/>
<path d="M49.1062 99.4642C50.0434 99.4642 50.8031 98.7044 50.8031 97.7672C50.8031 96.83 50.0434 96.0703 49.1062 96.0703C48.169 96.0703 47.4092 96.83 47.4092 97.7672C47.4092 98.7044 48.169 99.4642 49.1062 99.4642Z" fill="white"/>
<path d="M56.0562 99.3676C56.9393 99.3676 57.6563 98.6506 57.6563 97.7675C57.6563 96.8844 56.9393 96.1675 56.0562 96.1675C55.1732 96.1675 54.4562 96.8844 54.4562 97.7675C54.4562 98.6506 55.1732 99.3676 56.0562 99.3676Z" fill="white"/>
<path d="M63.0067 99.3282C63.8704 99.3282 64.568 98.6278 64.568 97.7668C64.568 96.9059 63.8677 96.2056 63.0067 96.2056C62.1458 96.2056 61.4454 96.9059 61.4454 97.7668C61.4454 98.6278 62.1458 99.3282 63.0067 99.3282Z" fill="white"/>
<path d="M69.9628 99.3282C70.8265 99.3282 71.5241 98.6278 71.5241 97.7668C71.5241 96.9059 70.8237 96.2056 69.9628 96.2056C69.1019 96.2056 68.4015 96.9059 68.4015 97.7668C68.4015 98.6278 69.1019 99.3282 69.9628 99.3282Z" fill="white"/>
<path d="M76.912 99.3282C77.7757 99.3282 78.4733 98.6278 78.4733 97.7668C78.4733 96.9059 77.7729 96.2056 76.912 96.2056C76.051 96.2056 75.3507 96.9059 75.3507 97.7668C75.3507 98.6278 76.051 99.3282 76.912 99.3282Z" fill="white"/>
<path d="M83.8648 99.3676C84.7479 99.3676 85.4648 98.6506 85.4648 97.7675C85.4648 96.8844 84.7479 96.1675 83.8648 96.1675C82.9818 96.1675 82.2648 96.8844 82.2648 97.7675C82.2648 98.6506 82.9818 99.3676 83.8648 99.3676Z" fill="white"/>
<path d="M90.8131 99.4642C91.7503 99.4642 92.5101 98.7044 92.5101 97.7672C92.5101 96.83 91.7503 96.0703 90.8131 96.0703C89.876 96.0703 89.1162 96.83 89.1162 97.7672C89.1162 98.7044 89.876 99.4642 90.8131 99.4642Z" fill="white"/>
<path d="M97.769 99.6185C98.7918 99.6185 99.6209 98.7893 99.6209 97.7665C99.6209 96.7437 98.7918 95.9146 97.769 95.9146C96.7462 95.9146 95.917 96.7437 95.917 97.7665C95.917 98.7893 96.7462 99.6185 97.769 99.6185Z" fill="white"/>
<path d="M104.721 99.9254C105.913 99.9254 106.88 98.9587 106.88 97.7662C106.88 96.5736 105.913 95.6069 104.721 95.6069C103.528 95.6069 102.562 96.5736 102.562 97.7662C102.562 98.9587 103.528 99.9254 104.721 99.9254Z" fill="white"/>
<path d="M111.673 100.35C113.099 100.35 114.255 99.1938 114.255 97.7674C114.255 96.3409 113.099 95.1846 111.673 95.1846C110.246 95.1846 109.09 96.3409 109.09 97.7674C109.09 99.1938 110.246 100.35 111.673 100.35Z" fill="white"/>
<path d="M118.623 100.428C120.093 100.428 121.284 99.237 121.284 97.7677C121.284 96.2985 120.093 95.1074 118.623 95.1074C117.154 95.1074 115.963 96.2985 115.963 97.7677C115.963 99.237 117.154 100.428 118.623 100.428Z" fill="white"/>
<path d="M125.576 99.7904C126.694 99.7904 127.6 98.8844 127.6 97.7668C127.6 96.6491 126.694 95.7432 125.576 95.7432C124.459 95.7432 123.553 96.6491 123.553 97.7668C123.553 98.8844 124.459 99.7904 125.576 99.7904Z" fill="white"/>
<path d="M132.525 98.4817C132.918 98.4817 133.239 98.1633 133.239 97.7674C133.239 97.3716 132.921 97.0532 132.525 97.0532C132.129 97.0532 131.811 97.3716 131.811 97.7674C131.811 98.1633 132.129 98.4817 132.525 98.4817Z" fill="white"/>
<path d="M139.478 97.805C139.5 97.805 139.517 97.7884 139.517 97.7663C139.517 97.7441 139.5 97.7275 139.478 97.7275C139.456 97.7275 139.44 97.7441 139.44 97.7663C139.44 97.7884 139.456 97.805 139.478 97.805Z" fill="white"/>
<path d="M7.39285 104.935C7.51057 104.935 7.60601 104.84 7.60601 104.722C7.60601 104.604 7.51057 104.509 7.39285 104.509C7.27513 104.509 7.17969 104.604 7.17969 104.722C7.17969 104.84 7.27513 104.935 7.39285 104.935Z" fill="white"/>
<path d="M14.8363 105.816C15.457 105.561 15.7534 104.851 15.4981 104.23C15.2429 103.609 14.5328 103.313 13.9121 103.568C13.2913 103.823 12.995 104.534 13.2502 105.154C13.5054 105.775 14.2155 106.071 14.8363 105.816Z" fill="white"/>
<path d="M23.4977 105.657C23.9966 104.445 23.4188 103.059 22.2073 102.56C20.9958 102.061 19.6092 102.639 19.1103 103.85C18.6114 105.062 19.1892 106.448 20.4007 106.947C21.6123 107.446 22.9988 106.868 23.4977 105.657Z" fill="white"/>
<path d="M28.8791 107.321C30.3191 106.979 31.2097 105.535 30.8682 104.095C30.5268 102.655 29.0826 101.764 27.6426 102.106C26.2026 102.447 25.312 103.892 25.6535 105.332C25.995 106.772 27.4391 107.662 28.8791 107.321Z" fill="white"/>
<path d="M35.1993 107.264C36.6043 107.264 37.7433 106.125 37.7433 104.72C37.7433 103.315 36.6043 102.176 35.1993 102.176C33.7943 102.176 32.6553 103.315 32.6553 104.72C32.6553 106.125 33.7943 107.264 35.1993 107.264Z" fill="white"/>
<path d="M42.5033 106.872C43.6909 106.679 44.497 105.56 44.3038 104.372C44.1106 103.185 42.9913 102.378 41.8037 102.572C40.6161 102.765 39.8099 103.884 40.0031 105.072C40.1963 106.259 41.3157 107.066 42.5033 106.872Z" fill="white"/>
<path d="M49.4017 106.641C50.451 106.464 51.1585 105.47 50.982 104.421C50.8055 103.372 49.8117 102.664 48.7624 102.84C47.713 103.017 47.0055 104.011 47.182 105.06C47.3586 106.11 48.3523 106.817 49.4017 106.641Z" fill="white"/>
<path d="M56.0586 106.516C57.0493 106.516 57.8524 105.713 57.8524 104.722C57.8524 103.731 57.0493 102.928 56.0586 102.928C55.0679 102.928 54.2648 103.731 54.2648 104.722C54.2648 105.713 55.0679 106.516 56.0586 106.516Z" fill="white"/>
<path d="M63.0084 106.435C63.9552 106.435 64.7247 105.668 64.7247 104.718C64.7247 103.769 63.9579 103.002 63.0084 103.002C62.0589 103.002 61.2921 103.769 61.2921 104.718C61.2921 105.668 62.0589 106.435 63.0084 106.435Z" fill="white"/>
<path d="M69.9617 106.418C70.8989 106.418 71.6586 105.658 71.6586 104.721C71.6586 103.784 70.8989 103.024 69.9617 103.024C69.0245 103.024 68.2648 103.784 68.2648 104.721C68.2648 105.658 69.0245 106.418 69.9617 106.418Z" fill="white"/>
<path d="M76.9106 106.435C77.8574 106.435 78.627 105.668 78.627 104.718C78.627 103.769 77.8601 103.002 76.9106 103.002C75.9611 103.002 75.1943 103.769 75.1943 104.718C75.1943 105.668 75.9611 106.435 76.9106 106.435Z" fill="white"/>
<path d="M83.8633 106.492C84.8433 106.492 85.6377 105.698 85.6377 104.718C85.6377 103.738 84.8433 102.943 83.8633 102.943C82.8834 102.943 82.0889 103.738 82.0889 104.718C82.0889 105.698 82.8834 106.492 83.8633 106.492Z" fill="white"/>
<path d="M90.8166 106.628C91.87 106.628 92.7239 105.774 92.7239 104.721C92.7239 103.667 91.87 102.813 90.8166 102.813C89.7632 102.813 88.9093 103.667 88.9093 104.721C88.9093 105.774 89.7632 106.628 90.8166 106.628Z" fill="white"/>
<path d="M97.7678 106.879C98.9603 106.879 99.927 105.912 99.927 104.72C99.927 103.527 98.9603 102.561 97.7678 102.561C96.5753 102.561 95.6085 103.527 95.6085 104.72C95.6085 105.912 96.5753 106.879 97.7678 106.879Z" fill="white"/>
<path d="M105.279 107.198C106.636 106.878 107.477 105.518 107.156 104.161C106.836 102.804 105.476 101.964 104.119 102.284C102.762 102.604 101.922 103.964 102.242 105.321C102.562 106.678 103.922 107.518 105.279 107.198Z" fill="white"/>
<path d="M112.267 107.349C113.707 107.009 114.6 105.566 114.26 104.125C113.92 102.685 112.476 101.793 111.036 102.133C109.596 102.473 108.704 103.916 109.044 105.357C109.383 106.797 110.827 107.689 112.267 107.349Z" fill="white"/>
<path d="M119.161 107.087C120.456 106.781 121.258 105.484 120.952 104.19C120.647 102.895 119.35 102.093 118.055 102.399C116.76 102.704 115.959 104.002 116.264 105.296C116.57 106.591 117.867 107.392 119.161 107.087Z" fill="white"/>
<path d="M125.577 106.011C126.291 106.011 126.87 105.432 126.87 104.718C126.87 104.004 126.291 103.425 125.577 103.425C124.863 103.425 124.284 104.004 124.284 104.718C124.284 105.432 124.863 106.011 125.577 106.011Z" fill="white"/>
<path d="M132.527 104.974C132.667 104.974 132.779 104.861 132.779 104.722C132.779 104.583 132.667 104.47 132.527 104.47C132.388 104.47 132.276 104.583 132.276 104.722C132.276 104.861 132.388 104.974 132.527 104.974Z" fill="white"/>
<path d="M7.39315 111.69C7.39315 111.69 7.41227 111.682 7.41227 111.671C7.41227 111.66 7.40408 111.652 7.39315 111.652C7.38222 111.652 7.37402 111.66 7.37402 111.671C7.37402 111.682 7.38222 111.69 7.39315 111.69Z" fill="white"/>
<path d="M14.3489 112.154C14.6146 112.154 14.8305 111.938 14.8305 111.673C14.8305 111.407 14.6146 111.191 14.3489 111.191C14.0831 111.191 13.8672 111.407 13.8672 111.673C13.8672 111.938 14.0831 112.154 14.3489 112.154Z" fill="white"/>
<path d="M21.2997 113.214C22.1523 113.214 22.8416 112.525 22.8416 111.672C22.8416 110.82 22.1523 110.13 21.2997 110.13C20.4471 110.13 19.7578 110.82 19.7578 111.672C19.7578 112.525 20.4471 113.214 21.2997 113.214Z" fill="white"/>
<path d="M28.2477 114.158C29.6206 114.158 30.7335 113.045 30.7335 111.672C30.7335 110.3 29.6206 109.187 28.2477 109.187C26.8748 109.187 25.7618 110.3 25.7618 111.672C25.7618 113.045 26.8748 114.158 28.2477 114.158Z" fill="white"/>
<path d="M35.8283 114.273C37.2683 113.931 38.1589 112.487 37.8174 111.047C37.476 109.607 36.0318 108.717 34.5918 109.058C33.1518 109.399 32.2613 110.844 32.6027 112.284C32.9442 113.724 34.3883 114.614 35.8283 114.273Z" fill="white"/>
<path d="M42.532 114.271C43.9505 114.04 44.9134 112.704 44.6826 111.285C44.4518 109.867 43.1149 108.904 41.6964 109.134C40.2779 109.365 39.3151 110.702 39.5458 112.121C39.7766 113.539 41.1136 114.502 42.532 114.271Z" fill="white"/>
<path d="M49.4809 114.006C50.7624 113.79 51.6262 112.576 51.4104 111.295C51.1946 110.013 49.9808 109.149 48.6993 109.365C47.4178 109.581 46.5539 110.795 46.7698 112.076C46.9856 113.358 48.1994 114.222 49.4809 114.006Z" fill="white"/>
<path d="M56.0568 113.812C57.2389 113.812 58.1967 112.855 58.1967 111.673C58.1967 110.491 57.2389 109.533 56.0568 109.533C54.8748 109.533 53.917 110.491 53.917 111.673C53.917 112.855 54.8748 113.812 56.0568 113.812Z" fill="white"/>
<path d="M63.3416 113.663C64.4447 113.483 65.1935 112.444 65.014 111.341C64.8346 110.238 63.7949 109.489 62.6918 109.668C61.5887 109.848 60.8399 110.887 61.0194 111.991C61.1988 113.094 62.2385 113.842 63.3416 113.663Z" fill="white"/>
<path d="M69.9604 113.657C71.0566 113.657 71.9452 112.768 71.9452 111.672C71.9452 110.576 71.0566 109.687 69.9604 109.687C68.8642 109.687 67.9756 110.576 67.9756 111.672C67.9756 112.768 68.8642 113.657 69.9604 113.657Z" fill="white"/>
<path d="M77.2583 113.652C78.3615 113.473 79.1106 112.434 78.9315 111.33C78.7525 110.227 77.713 109.478 76.6099 109.657C75.5067 109.836 74.7576 110.876 74.9367 111.979C75.1157 113.082 76.1552 113.831 77.2583 113.652Z" fill="white"/>
<path d="M83.8607 113.793C85.0318 113.793 85.9812 112.844 85.9812 111.673C85.9812 110.502 85.0318 109.552 83.8607 109.552C82.6896 109.552 81.7402 110.502 81.7402 111.673C81.7402 112.844 82.6896 113.793 83.8607 113.793Z" fill="white"/>
<path d="M90.817 114.006C92.1059 114.006 93.1507 112.961 93.1507 111.672C93.1507 110.383 92.1059 109.338 90.817 109.338C89.5282 109.338 88.4834 110.383 88.4834 111.672C88.4834 112.961 89.5282 114.006 90.817 114.006Z" fill="white"/>
<path d="M97.7696 114.254C99.196 114.254 100.352 113.098 100.352 111.672C100.352 110.245 99.196 109.089 97.7696 109.089C96.3431 109.089 95.1868 110.245 95.1868 111.672C95.1868 113.098 96.3431 114.254 97.7696 114.254Z" fill="white"/>
<path d="M105.318 114.3C106.758 113.96 107.65 112.517 107.31 111.077C106.97 109.636 105.527 108.744 104.087 109.084C102.646 109.424 101.754 110.867 102.094 112.308C102.434 113.748 103.877 114.64 105.318 114.3Z" fill="white"/>
<path d="M112.224 114.131C113.571 113.813 114.405 112.464 114.087 111.117C113.769 109.77 112.42 108.936 111.073 109.254C109.727 109.572 108.893 110.921 109.21 112.268C109.528 113.615 110.878 114.449 112.224 114.131Z" fill="white"/>
<path d="M118.621 113.292C119.516 113.292 120.241 112.566 120.241 111.672C120.241 110.778 119.516 110.053 118.621 110.053C117.727 110.053 117.002 110.778 117.002 111.672C117.002 112.566 117.727 113.292 118.621 113.292Z" fill="white"/>
<path d="M125.577 112.212C125.875 112.212 126.117 111.97 126.117 111.672C126.117 111.374 125.875 111.132 125.577 111.132C125.279 111.132 125.037 111.374 125.037 111.672C125.037 111.97 125.279 112.212 125.577 112.212Z" fill="white"/>
<path d="M132.526 111.711C132.548 111.711 132.565 111.694 132.565 111.673C132.565 111.651 132.548 111.634 132.526 111.634C132.505 111.634 132.487 111.651 132.487 111.673C132.487 111.694 132.505 111.711 132.526 111.711Z" fill="white"/>
<path d="M14.3472 118.682C14.3804 118.682 14.4053 118.657 14.4053 118.624C14.4053 118.59 14.3804 118.565 14.3472 118.565C14.314 118.565 14.2891 118.59 14.2891 118.624C14.2891 118.657 14.314 118.682 14.3472 118.682Z" fill="white"/>
<path d="M21.2972 119.222C21.6266 119.222 21.8951 118.953 21.8951 118.624C21.8951 118.294 21.6266 118.026 21.2972 118.026C20.9677 118.026 20.6992 118.294 20.6992 118.624C20.6992 118.953 20.9677 119.222 21.2972 119.222Z" fill="white"/>
<path d="M28.2479 120.186C29.1116 120.186 29.8092 119.485 29.8092 118.624C29.8092 117.763 29.1088 117.063 28.2479 117.063C27.387 117.063 26.6866 117.763 26.6866 118.624C26.6866 119.485 27.387 120.186 28.2479 120.186Z" fill="white"/>
<path d="M35.5666 120.997C36.8689 120.786 37.7529 119.558 37.541 118.256C37.3291 116.954 36.1017 116.07 34.7994 116.281C33.4971 116.493 32.6132 117.721 32.825 119.023C33.0369 120.325 34.2643 121.209 35.5666 120.997Z" fill="white"/>
<path d="M42.6206 121.22C44.0708 120.984 45.0549 119.617 44.8187 118.167C44.5825 116.717 43.2155 115.733 41.7654 115.969C40.3153 116.205 39.3312 117.572 39.5673 119.022C39.8035 120.472 41.1705 121.456 42.6206 121.22Z" fill="white"/>
<path d="M49.5598 121.261C51.0191 121.015 52.0027 119.633 51.7567 118.173C51.5106 116.714 50.1281 115.73 48.6688 115.976C47.2095 116.222 46.2259 117.605 46.4719 119.064C46.718 120.524 48.1005 121.507 49.5598 121.261Z" fill="white"/>
<path d="M56.6815 121.158C58.0903 120.824 58.9615 119.411 58.6274 118.003C58.2934 116.594 56.8806 115.723 55.4718 116.057C54.063 116.391 53.1918 117.804 53.5259 119.212C53.8599 120.621 55.2728 121.492 56.6815 121.158Z" fill="white"/>
<path d="M65.3479 119.602C65.8786 118.312 65.2635 116.837 63.9741 116.306C62.6847 115.775 61.2093 116.391 60.6786 117.68C60.148 118.969 60.763 120.445 62.0524 120.976C63.3418 121.506 64.8172 120.891 65.3479 119.602Z" fill="white"/>
<path d="M69.9616 121.109C71.3345 121.109 72.4475 119.996 72.4475 118.623C72.4475 117.25 71.3345 116.137 69.9616 116.137C68.5887 116.137 67.4757 117.25 67.4757 118.623C67.4757 119.996 68.5887 121.109 69.9616 121.109Z" fill="white"/>
<path d="M79.2445 119.591C79.778 118.302 79.1663 116.825 77.8781 116.292C76.59 115.758 75.1131 116.37 74.5795 117.658C74.046 118.946 74.6577 120.423 75.9459 120.957C77.234 121.49 78.7109 120.879 79.2445 119.591Z" fill="white"/>
<path d="M83.8629 121.225C85.3 121.225 86.465 120.06 86.465 118.623C86.465 117.186 85.3 116.021 83.8629 116.021C82.4258 116.021 81.2607 117.186 81.2607 118.623C81.2607 120.06 82.4258 121.225 83.8629 121.225Z" fill="white"/>
<path d="M91.2616 121.232C92.7119 120.996 93.6967 119.63 93.4613 118.18C93.2259 116.729 91.8594 115.745 90.4091 115.98C88.9589 116.215 87.974 117.582 88.2094 119.032C88.4449 120.482 89.8113 121.467 91.2616 121.232Z" fill="white"/>
<path d="M98.2168 121.231C99.6671 120.995 100.652 119.629 100.416 118.179C100.181 116.728 98.8146 115.744 97.3643 115.979C95.9141 116.214 94.9292 117.581 95.1646 119.031C95.4001 120.481 96.7666 121.466 98.2168 121.231Z" fill="white"/>
<path d="M105.253 120.986C106.548 120.681 107.349 119.384 107.044 118.089C106.738 116.795 105.441 115.993 104.147 116.298C102.852 116.604 102.05 117.901 102.356 119.196C102.662 120.49 103.959 121.292 105.253 120.986Z" fill="white"/>
<path d="M111.668 120.243C112.563 120.243 113.288 119.518 113.288 118.624C113.288 117.73 112.563 117.004 111.668 117.004C110.774 117.004 110.049 117.73 110.049 118.624C110.049 119.518 110.774 120.243 111.668 120.243Z" fill="white"/>
<path d="M118.619 119.279C118.982 119.279 119.275 118.986 119.275 118.623C119.275 118.261 118.982 117.967 118.619 117.967C118.256 117.967 117.963 118.261 117.963 118.623C117.963 118.986 118.256 119.279 118.619 119.279Z" fill="white"/>
<path d="M125.576 118.701C125.617 118.701 125.653 118.668 125.653 118.624C125.653 118.58 125.62 118.546 125.576 118.546C125.531 118.546 125.498 118.58 125.498 118.624C125.498 118.668 125.531 118.701 125.576 118.701Z" fill="white"/>
<path d="M21.2994 125.632C21.3315 125.632 21.3575 125.606 21.3575 125.574C21.3575 125.542 21.3315 125.516 21.2994 125.516C21.2673 125.516 21.2413 125.542 21.2413 125.574C21.2413 125.606 21.2673 125.632 21.2994 125.632Z" fill="white"/>
<path d="M28.2464 126.057C28.5124 126.057 28.7281 125.841 28.7281 125.575C28.7281 125.309 28.5124 125.093 28.2464 125.093C27.9804 125.093 27.7647 125.309 27.7647 125.575C27.7647 125.841 27.9804 126.057 28.2464 126.057Z" fill="white"/>
<path d="M35.1993 126.83C35.8914 126.83 36.4533 126.268 36.4533 125.576C36.4533 124.884 35.8914 124.322 35.1993 124.322C34.5073 124.322 33.9453 124.884 33.9453 125.576C33.9453 126.268 34.5073 126.83 35.1993 126.83Z" fill="white"/>
<path d="M42.1519 127.562C43.2481 127.562 44.1367 126.673 44.1367 125.577C44.1367 124.48 43.2481 123.592 42.1519 123.592C41.0557 123.592 40.1671 124.48 40.1671 125.577C40.1671 126.673 41.0557 127.562 42.1519 127.562Z" fill="white"/>
<path d="M49.323 128.032C50.6674 127.893 51.6446 126.691 51.5057 125.347C51.3667 124.002 50.1643 123.025 48.82 123.164C47.4756 123.303 46.4984 124.505 46.6373 125.85C46.7763 127.194 47.9787 128.171 49.323 128.032Z" fill="white"/>
<path d="M56.6815 128.107C58.0903 127.773 58.9615 126.36 58.6274 124.951C58.2934 123.543 56.8806 122.671 55.4718 123.005C54.063 123.34 53.1918 124.752 53.5259 126.161C53.8599 127.57 55.2728 128.441 56.6815 128.107Z" fill="white"/>
<path d="M63.4721 128.171C64.9223 127.935 65.9064 126.568 65.6702 125.118C65.434 123.667 64.067 122.683 62.6169 122.92C61.1668 123.156 60.1827 124.523 60.4188 125.973C60.655 127.423 62.022 128.407 63.4721 128.171Z" fill="white"/>
<path d="M70.411 128.185C71.8613 127.949 72.8461 126.583 72.6107 125.132C72.3753 123.682 71.0088 122.697 69.5585 122.933C68.1083 123.168 67.1235 124.535 67.3589 125.985C67.5943 127.435 68.9608 128.42 70.411 128.185Z" fill="white"/>
<path d="M77.3602 128.184C78.8105 127.948 79.7953 126.582 79.5599 125.131C79.3245 123.681 77.958 122.696 76.5077 122.932C75.0575 123.167 74.0727 124.534 74.3081 125.984C74.5435 127.434 75.91 128.419 77.3602 128.184Z" fill="white"/>
<path d="M84.4463 128.143C85.8554 127.811 86.7281 126.399 86.3955 124.99C86.0629 123.58 84.651 122.708 83.2419 123.04C81.8328 123.373 80.96 124.785 81.2926 126.194C81.6252 127.603 83.0371 128.476 84.4463 128.143Z" fill="white"/>
<path d="M91.36 127.993C92.6858 127.68 93.5069 126.352 93.194 125.026C92.881 123.7 91.5526 122.879 90.2269 123.192C88.9011 123.505 88.08 124.834 88.3929 126.159C88.7058 127.485 90.0342 128.306 91.36 127.993Z" fill="white"/>
<path d="M97.7688 127.598C98.8864 127.598 99.7924 126.692 99.7924 125.574C99.7924 124.457 98.8864 123.551 97.7688 123.551C96.6512 123.551 95.7452 124.457 95.7452 125.574C95.7452 126.692 96.6512 127.598 97.7688 127.598Z" fill="white"/>
<path d="M104.721 126.867C105.435 126.867 106.013 126.289 106.013 125.575C106.013 124.86 105.435 124.282 104.721 124.282C104.006 124.282 103.428 124.86 103.428 125.575C103.428 126.289 104.006 126.867 104.721 126.867Z" fill="white"/>
<path d="M111.671 126.114C111.969 126.114 112.211 125.872 112.211 125.574C112.211 125.276 111.969 125.034 111.671 125.034C111.373 125.034 111.131 125.276 111.131 125.574C111.131 125.872 111.373 126.114 111.671 126.114Z" fill="white"/>
<path d="M118.623 125.652C118.664 125.652 118.7 125.619 118.7 125.575C118.7 125.53 118.667 125.497 118.623 125.497C118.578 125.497 118.545 125.53 118.545 125.575C118.545 125.619 118.578 125.652 118.623 125.652Z" fill="white"/>
<path d="M28.2496 132.547C28.2496 132.547 28.2687 132.539 28.2687 132.528C28.2687 132.517 28.2605 132.509 28.2496 132.509C28.2387 132.509 28.2305 132.517 28.2305 132.528C28.2305 132.539 28.2387 132.547 28.2496 132.547Z" fill="white"/>
<path d="M35.2004 132.759C35.3277 132.759 35.4329 132.656 35.4329 132.526C35.4329 132.396 35.3305 132.293 35.2004 132.293C35.0703 132.293 34.9678 132.396 34.9678 132.526C34.9678 132.656 35.0703 132.759 35.2004 132.759Z" fill="white"/>
<path d="M42.155 133.202C42.5287 133.202 42.8305 132.9 42.8305 132.527C42.8305 132.153 42.5287 131.851 42.155 131.851C41.7813 131.851 41.4796 132.153 41.4796 132.527C41.4796 132.9 41.7813 133.202 42.155 133.202Z" fill="white"/>
<path d="M49.1959 133.72C49.8423 133.654 50.3122 133.076 50.2455 132.429C50.1788 131.783 49.6008 131.313 48.9545 131.38C48.3081 131.446 47.8382 132.024 47.9049 132.671C47.9716 133.317 48.5496 133.787 49.1959 133.72Z" fill="white"/>
<path d="M56.0562 134.109C56.9292 134.109 57.6369 133.401 57.6369 132.528C57.6369 131.655 56.9292 130.947 56.0562 130.947C55.1833 130.947 54.4756 131.655 54.4756 132.528C54.4756 133.401 55.1833 134.109 56.0562 134.109Z" fill="white"/>
<path d="M63.0074 134.359C64.0178 134.359 64.84 133.539 64.84 132.526C64.84 131.513 64.0206 130.693 63.0074 130.693C61.9942 130.693 61.1748 131.513 61.1748 132.526C61.1748 133.539 61.9942 134.359 63.0074 134.359Z" fill="white"/>
<path d="M69.9608 134.473C71.0349 134.473 71.9069 133.601 71.9069 132.527C71.9069 131.453 71.0349 130.581 69.9608 130.581C68.8867 130.581 68.0148 131.453 68.0148 132.527C68.0148 133.601 68.8867 134.473 69.9608 134.473Z" fill="white"/>
<path d="M76.9146 134.381C77.9374 134.381 78.7665 133.552 78.7665 132.529C78.7665 131.506 77.9374 130.677 76.9146 130.677C75.8918 130.677 75.0626 131.506 75.0626 132.529C75.0626 133.552 75.8918 134.381 76.9146 134.381Z" fill="white"/>
<path d="M83.8646 134.148C84.7587 134.148 85.484 133.423 85.484 132.529C85.484 131.634 84.7587 130.909 83.8646 130.909C82.9704 130.909 82.2451 131.634 82.2451 132.529C82.2451 133.423 82.9704 134.148 83.8646 134.148Z" fill="white"/>
<path d="M90.8158 133.743C91.487 133.743 92.0311 133.199 92.0311 132.528C92.0311 131.857 91.487 131.312 90.8158 131.312C90.1447 131.312 89.6006 131.857 89.6006 132.528C89.6006 133.199 90.1447 133.743 90.8158 133.743Z" fill="white"/>
<path d="M97.7672 133.24C98.1603 133.24 98.4814 132.922 98.4814 132.526C98.4814 132.13 98.1631 131.812 97.7672 131.812C97.3713 131.812 97.053 132.13 97.053 132.526C97.053 132.922 97.3713 133.24 97.7672 133.24Z" fill="white"/>
<path d="M104.72 132.78C104.859 132.78 104.972 132.667 104.972 132.528C104.972 132.389 104.859 132.276 104.72 132.276C104.581 132.276 104.468 132.389 104.468 132.528C104.468 132.667 104.581 132.78 104.72 132.78Z" fill="white"/>
<path d="M111.67 132.567C111.691 132.567 111.709 132.55 111.709 132.529C111.709 132.507 111.691 132.49 111.67 132.49C111.648 132.49 111.631 132.507 111.631 132.529C111.631 132.55 111.648 132.567 111.67 132.567Z" fill="white"/>
<path d="M42.155 139.518C42.1772 139.518 42.1938 139.501 42.1938 139.479C42.1938 139.457 42.1772 139.44 42.155 139.44C42.1329 139.44 42.1163 139.457 42.1163 139.479C42.1163 139.501 42.1329 139.518 42.155 139.518Z" fill="white"/>
<path d="M49.1072 139.634C49.193 139.634 49.2622 139.565 49.2622 139.479C49.2622 139.393 49.193 139.324 49.1072 139.324C49.0214 139.324 48.9521 139.393 48.9521 139.479C48.9521 139.565 49.0214 139.634 49.1072 139.634Z" fill="white"/>
<path d="M56.0563 139.787C56.226 139.787 56.3636 139.65 56.3636 139.48C56.3636 139.31 56.226 139.173 56.0563 139.173C55.8866 139.173 55.749 139.31 55.749 139.48C55.749 139.65 55.8866 139.787 56.0563 139.787Z" fill="white"/>
<path d="M63.0083 139.941C63.263 139.941 63.4706 139.734 63.4706 139.479C63.4706 139.224 63.263 139.017 63.0083 139.017C62.7536 139.017 62.546 139.224 62.546 139.479C62.546 139.734 62.7536 139.941 63.0083 139.941Z" fill="white"/>
<path d="M69.961 140C70.2484 140 70.4814 139.767 70.4814 139.479C70.4814 139.192 70.2484 138.959 69.961 138.959C69.6736 138.959 69.4406 139.192 69.4406 139.479C69.4406 139.767 69.6736 140 69.961 140Z" fill="white"/>
<path d="M76.9144 139.941C77.1691 139.941 77.3767 139.734 77.3767 139.479C77.3767 139.224 77.1691 139.017 76.9144 139.017C76.6597 139.017 76.4521 139.224 76.4521 139.479C76.4521 139.734 76.6597 139.941 76.9144 139.941Z" fill="white"/>
<path d="M83.8648 139.807C84.0452 139.807 84.1914 139.66 84.1914 139.48C84.1914 139.3 84.0452 139.153 83.8648 139.153C83.6843 139.153 83.5381 139.3 83.5381 139.48C83.5381 139.66 83.6843 139.807 83.8648 139.807Z" fill="white"/>
<path d="M90.8134 139.634C90.899 139.634 90.9684 139.565 90.9684 139.479C90.9684 139.394 90.899 139.324 90.8134 139.324C90.7277 139.324 90.6583 139.394 90.6583 139.479C90.6583 139.565 90.7277 139.634 90.8134 139.634Z" fill="white"/>
<path d="M97.7673 139.518C97.7894 139.518 97.806 139.501 97.806 139.479C97.806 139.457 97.7894 139.44 97.7673 139.44C97.7451 139.44 97.7285 139.457 97.7285 139.479C97.7285 139.501 97.7451 139.518 97.7673 139.518Z" fill="white"/>
</svg>
