<svg width="120" height="117" viewBox="0 0 120 117" fill="none" xmlns="http://www.w3.org/2000/svg">
<g clip-path="url(#clip0_379_27084)">
<g opacity="0.9">
<path d="M109.555 111.833C109.555 108.977 111.89 106.666 114.773 106.666C117.656 106.666 119.99 108.977 119.99 111.833C119.99 114.688 117.656 117 114.773 117C111.89 117 109.555 114.688 109.555 111.833Z" fill="white"/>
<path d="M110.084 97.9807C110.084 95.4118 112.189 93.3271 114.783 93.3271C117.376 93.3271 119.481 95.4118 119.481 97.9807C119.481 100.549 117.376 102.634 114.783 102.634C112.189 102.634 110.084 100.549 110.084 97.9807Z" fill="white"/>
<path d="M114.783 88.2785C117.091 88.2785 118.963 86.4251 118.963 84.1388C118.963 81.8525 117.091 79.999 114.783 79.999C112.474 79.999 110.603 81.8525 110.603 84.1388C110.603 86.4251 112.474 88.2785 114.783 88.2785Z" fill="white"/>
<path d="M111.121 70.2871C111.121 68.2815 112.758 66.6611 114.783 66.6611C116.808 66.6611 118.444 68.2815 118.444 70.2871C118.444 72.2928 116.808 73.9131 114.783 73.9131C112.758 73.9131 111.121 72.2928 111.121 70.2871Z" fill="white"/>
<path d="M111.64 56.4447C111.64 54.7256 113.047 53.3325 114.783 53.3325C116.518 53.3325 117.925 54.7256 117.925 56.4447C117.925 58.1639 116.518 59.557 114.783 59.557C113.047 59.557 111.64 58.1639 111.64 56.4447Z" fill="white"/>
<path d="M112.159 42.593C112.159 41.1604 113.326 40.0044 114.773 40.0044C116.219 40.0044 117.386 41.1604 117.386 42.593C117.386 44.0256 116.219 45.1816 114.773 45.1816C113.326 45.1816 112.159 44.0256 112.159 42.593Z" fill="white"/>
<path d="M112.678 28.7413C112.678 27.5952 113.615 26.6665 114.773 26.6665C115.93 26.6665 116.868 27.5952 116.868 28.7413C116.868 29.8874 115.93 30.8161 114.773 30.8161C113.615 30.8161 112.678 29.8874 112.678 28.7413Z" fill="white"/>
<path d="M113.197 14.8989C113.197 14.0394 113.905 13.3379 114.773 13.3379C115.641 13.3379 116.349 14.0394 116.349 14.8989C116.349 15.7585 115.641 16.46 114.773 16.46C113.905 16.46 113.197 15.7585 113.197 14.8989Z" fill="white"/>
<path d="M113.725 1.04729C113.725 0.464364 114.194 0 114.783 0C115.371 0 115.84 0.464364 115.84 1.04729C115.84 1.63021 115.371 2.09458 114.783 2.09458C114.194 2.09458 113.725 1.63021 113.725 1.04729Z" fill="white"/>
<path d="M104.317 112.415C104.638 109.579 102.577 107.022 99.7133 106.704C96.8497 106.386 94.268 108.427 93.9468 111.263C93.6256 114.099 95.6866 116.656 98.5501 116.974C101.414 117.292 103.995 115.251 104.317 112.415Z" fill="white"/>
<path d="M94.4318 97.9807C94.4318 95.4118 96.5367 93.3271 99.1304 93.3271C101.724 93.3271 103.829 95.4118 103.829 97.9807C103.829 100.549 101.724 102.634 99.1304 102.634C96.5367 102.634 94.4318 100.549 94.4318 97.9807Z" fill="white"/>
<path d="M99.1305 88.2785C101.439 88.2785 103.31 86.4251 103.31 84.1388C103.31 81.8525 101.439 79.999 99.1305 79.999C96.822 79.999 94.9506 81.8525 94.9506 84.1388C94.9506 86.4251 96.822 88.2785 99.1305 88.2785Z" fill="white"/>
<path d="M95.4692 70.2871C95.4692 68.2815 97.1053 66.6611 99.1304 66.6611C101.156 66.6611 102.792 68.2815 102.792 70.2871C102.792 72.2928 101.156 73.9131 99.1304 73.9131C97.1053 73.9131 95.4692 72.2928 95.4692 70.2871Z" fill="white"/>
<path d="M95.988 56.4447C95.988 54.7256 97.3946 53.3325 99.1304 53.3325C100.866 53.3325 102.273 54.7256 102.273 56.4447C102.273 58.1639 100.866 59.557 99.1304 59.557C97.3946 59.557 95.988 58.1639 95.988 56.4447Z" fill="white"/>
<path d="M99.1304 45.1816C100.574 45.1816 101.744 44.0226 101.744 42.593C101.744 41.1633 100.574 40.0044 99.1304 40.0044C97.6869 40.0044 96.5167 41.1633 96.5167 42.593C96.5167 44.0226 97.6869 45.1816 99.1304 45.1816Z" fill="white"/>
<path d="M99.1305 30.8161C100.287 30.8161 101.225 29.8872 101.225 28.7413C101.225 27.5954 100.287 26.6665 99.1305 26.6665C97.9735 26.6665 97.0355 27.5954 97.0355 28.7413C97.0355 29.8872 97.9735 30.8161 99.1305 30.8161Z" fill="white"/>
<path d="M97.5443 14.8989C97.5443 14.0394 98.2526 13.3379 99.1205 13.3379C99.9884 13.3379 100.697 14.0394 100.697 14.8989C100.697 15.7585 99.9884 16.46 99.1205 16.46C98.2526 16.46 97.5443 15.7585 97.5443 14.8989Z" fill="white"/>
<path d="M99.1304 2.09458C99.7145 2.09458 100.188 1.62569 100.188 1.04729C100.188 0.468887 99.7145 0 99.1304 0C98.5464 0 98.073 0.468887 98.073 1.04729C98.073 1.62569 98.5464 2.09458 99.1304 2.09458Z" fill="white"/>
<path d="M78.2609 111.833C78.2609 108.977 80.5952 106.666 83.4783 106.666C86.3613 106.666 88.6957 108.977 88.6957 111.833C88.6957 114.688 86.3613 117 83.4783 117C80.5952 117 78.2609 114.688 78.2609 111.833Z" fill="white"/>
<path d="M78.7797 97.9807C78.7797 95.4118 80.8846 93.3271 83.4783 93.3271C86.072 93.3271 88.177 95.4118 88.177 97.9807C88.177 100.549 86.072 102.634 83.4783 102.634C80.8846 102.634 78.7797 100.549 78.7797 97.9807Z" fill="white"/>
<path d="M83.4782 88.2785C85.7867 88.2785 87.6581 86.4251 87.6581 84.1388C87.6581 81.8525 85.7867 79.999 83.4782 79.999C81.1697 79.999 79.2983 81.8525 79.2983 84.1388C79.2983 86.4251 81.1697 88.2785 83.4782 88.2785Z" fill="white"/>
<path d="M79.8171 70.2871C79.8171 68.2815 81.4532 66.6611 83.4783 66.6611C85.5034 66.6611 87.1394 68.2815 87.1394 70.2871C87.1394 72.2928 85.5034 73.9131 83.4783 73.9131C81.4532 73.9131 79.8171 72.2928 79.8171 70.2871Z" fill="white"/>
<path d="M80.3358 56.4447C80.3358 54.7256 81.7424 53.3325 83.4782 53.3325C85.214 53.3325 86.6206 54.7256 86.6206 56.4447C86.6206 58.1639 85.214 59.557 83.4782 59.557C81.7424 59.557 80.3358 58.1639 80.3358 56.4447Z" fill="white"/>
<path d="M80.8546 42.593C80.8546 41.1604 82.0218 40.0044 83.4683 40.0044C84.9148 40.0044 86.082 41.1604 86.082 42.593C86.082 44.0256 84.9148 45.1816 83.4683 45.1816C82.0218 45.1816 80.8546 44.0256 80.8546 42.593Z" fill="white"/>
<path d="M81.3733 28.7413C81.3733 27.5952 82.311 26.6665 83.4682 26.6665C84.6254 26.6665 85.5632 27.5952 85.5632 28.7413C85.5632 29.8874 84.6254 30.8161 83.4682 30.8161C82.311 30.8161 81.3733 29.8874 81.3733 28.7413Z" fill="white"/>
<path d="M81.9021 14.8989C81.9021 14.0394 82.6104 13.3379 83.4783 13.3379C84.3462 13.3379 85.0545 14.0394 85.0545 14.8989C85.0545 15.7585 84.3462 16.46 83.4783 16.46C82.6104 16.46 81.9021 15.7585 81.9021 14.8989Z" fill="white"/>
<path d="M82.4208 1.04729C82.4208 0.464364 82.8896 0 83.4782 0C84.0668 0 84.5357 0.464364 84.5357 1.04729C84.5357 1.63021 84.0668 2.09458 83.4782 2.09458C82.8896 2.09458 82.4208 1.63021 82.4208 1.04729Z" fill="white"/>
<path d="M73.0143 112.409C73.3355 109.573 71.2745 107.017 68.411 106.698C65.5475 106.38 62.9658 108.421 62.6446 111.257C62.3234 114.094 64.3843 116.65 67.2479 116.969C70.1114 117.287 72.6931 115.246 73.0143 112.409Z" fill="white"/>
<path d="M63.1274 97.9807C63.1274 95.4118 65.2324 93.3271 67.8261 93.3271C70.4198 93.3271 72.5247 95.4118 72.5247 97.9807C72.5247 100.549 70.4198 102.634 67.8261 102.634C65.2324 102.634 63.1274 100.549 63.1274 97.9807Z" fill="white"/>
<path d="M67.8261 88.2785C70.1346 88.2785 72.006 86.4251 72.006 84.1388C72.006 81.8525 70.1346 79.999 67.8261 79.999C65.5176 79.999 63.6462 81.8525 63.6462 84.1388C63.6462 86.4251 65.5176 88.2785 67.8261 88.2785Z" fill="white"/>
<path d="M64.1649 70.2871C64.1649 68.2815 65.801 66.6611 67.8261 66.6611C69.8512 66.6611 71.4872 68.2815 71.4872 70.2871C71.4872 72.2928 69.8512 73.9131 67.8261 73.9131C65.801 73.9131 64.1649 72.2928 64.1649 70.2871Z" fill="white"/>
<path d="M64.6837 56.4447C64.6837 54.7256 66.0903 53.3325 67.8261 53.3325C69.5619 53.3325 70.9685 54.7256 70.9685 56.4447C70.9685 58.1639 69.5619 59.557 67.8261 59.557C66.0903 59.557 64.6837 58.1639 64.6837 56.4447Z" fill="white"/>
<path d="M67.8261 45.1816C69.2696 45.1816 70.4398 44.0226 70.4398 42.593C70.4398 41.1633 69.2696 40.0044 67.8261 40.0044C66.3826 40.0044 65.2124 41.1633 65.2124 42.593C65.2124 44.0226 66.3826 45.1816 67.8261 45.1816Z" fill="white"/>
<path d="M67.8261 30.8161C68.9831 30.8161 69.9211 29.8872 69.9211 28.7413C69.9211 27.5954 68.9831 26.6665 67.8261 26.6665C66.6691 26.6665 65.7312 27.5954 65.7312 28.7413C65.7312 29.8872 66.6691 30.8161 67.8261 30.8161Z" fill="white"/>
<path d="M66.2499 14.8989C66.2499 14.0394 66.9582 13.3379 67.8261 13.3379C68.694 13.3379 69.4023 14.0394 69.4023 14.8989C69.4023 15.7585 68.694 16.46 67.8261 16.46C66.9582 16.46 66.2499 15.7585 66.2499 14.8989Z" fill="white"/>
<path d="M66.7687 1.04729C66.7687 0.464364 67.2375 0 67.8261 0C68.4147 0 68.8836 0.464364 68.8836 1.04729C68.8836 1.63021 68.4147 2.09458 67.8261 2.09458C67.2375 2.09458 66.7687 1.63021 66.7687 1.04729Z" fill="white"/>
<path d="M46.9565 111.833C46.9565 108.977 49.2909 106.666 52.1739 106.666C55.057 106.666 57.3913 108.977 57.3913 111.833C57.3913 114.688 55.057 117 52.1739 117C49.2909 117 46.9565 114.688 46.9565 111.833Z" fill="white"/>
<path d="M52.3527 102.63C54.9458 102.532 56.9671 100.37 56.8675 97.8016C56.7679 95.2334 54.585 93.2315 51.9919 93.3302C49.3989 93.4288 47.3775 95.5907 47.4771 98.1589C47.5767 100.727 49.7596 102.729 52.3527 102.63Z" fill="white"/>
<path d="M52.1739 88.2785C54.4824 88.2785 56.3538 86.4251 56.3538 84.1388C56.3538 81.8525 54.4824 79.999 52.1739 79.999C49.8654 79.999 47.994 81.8525 47.994 84.1388C47.994 86.4251 49.8654 88.2785 52.1739 88.2785Z" fill="white"/>
<path d="M48.5128 70.2871C48.5128 68.2815 50.1489 66.6611 52.174 66.6611C54.1991 66.6611 55.8351 68.2815 55.8351 70.2871C55.8351 72.2928 54.1991 73.9131 52.174 73.9131C50.1489 73.9131 48.5128 72.2928 48.5128 70.2871Z" fill="white"/>
<path d="M49.0315 56.4447C49.0315 54.7256 50.4381 53.3325 52.1739 53.3325C53.9097 53.3325 55.3163 54.7256 55.3163 56.4447C55.3163 58.1639 53.9097 59.557 52.1739 59.557C50.4381 59.557 49.0315 58.1639 49.0315 56.4447Z" fill="white"/>
<path d="M52.174 45.1816C53.6175 45.1816 54.7877 44.0226 54.7877 42.593C54.7877 41.1633 53.6175 40.0044 52.174 40.0044C50.7305 40.0044 49.5603 41.1633 49.5603 42.593C49.5603 44.0226 50.7305 45.1816 52.174 45.1816Z" fill="white"/>
<path d="M52.1739 30.8161C53.3309 30.8161 54.2689 29.8872 54.2689 28.7413C54.2689 27.5954 53.3309 26.6665 52.1739 26.6665C51.0169 26.6665 50.079 27.5954 50.079 28.7413C50.079 29.8872 51.0169 30.8161 52.1739 30.8161Z" fill="white"/>
<path d="M50.5978 14.8989C50.5978 14.0394 51.3061 13.3379 52.174 13.3379C53.0419 13.3379 53.7502 14.0394 53.7502 14.8989C53.7502 15.7585 53.0419 16.46 52.174 16.46C51.3061 16.46 50.5978 15.7585 50.5978 14.8989Z" fill="white"/>
<path d="M51.1165 1.04729C51.1165 0.464364 51.5853 0 52.1739 0C52.7625 0 53.2313 0.464364 53.2313 1.04729C53.2313 1.63021 52.7625 2.09458 52.1739 2.09458C51.5853 2.09458 51.1165 1.63021 51.1165 1.04729Z" fill="white"/>
<path d="M31.3043 111.833C31.3043 108.977 33.6387 106.666 36.5217 106.666C39.4047 106.666 41.7391 108.977 41.7391 111.833C41.7391 114.688 39.4047 117 36.5217 117C33.6387 117 31.3043 114.688 31.3043 111.833Z" fill="white"/>
<path d="M31.8231 97.9807C31.8231 95.4118 33.928 93.3271 36.5218 93.3271C39.1155 93.3271 41.2204 95.4118 41.2204 97.9807C41.2204 100.549 39.1155 102.634 36.5218 102.634C33.928 102.634 31.8231 100.549 31.8231 97.9807Z" fill="white"/>
<path d="M36.5217 88.2785C38.8302 88.2785 40.7016 86.4251 40.7016 84.1388C40.7016 81.8525 38.8302 79.999 36.5217 79.999C34.2132 79.999 32.3418 81.8525 32.3418 84.1388C32.3418 86.4251 34.2132 88.2785 36.5217 88.2785Z" fill="white"/>
<path d="M32.8606 70.2871C32.8606 68.2815 34.4966 66.6611 36.5217 66.6611C38.5469 66.6611 40.1829 68.2815 40.1829 70.2871C40.1829 72.2928 38.5469 73.9131 36.5217 73.9131C34.4966 73.9131 32.8606 72.2928 32.8606 70.2871Z" fill="white"/>
<path d="M33.3793 56.4447C33.3793 54.7256 34.7859 53.3325 36.5217 53.3325C38.2575 53.3325 39.6641 54.7256 39.6641 56.4447C39.6641 58.1639 38.2575 59.557 36.5217 59.557C34.7859 59.557 33.3793 58.1639 33.3793 56.4447Z" fill="white"/>
<path d="M36.5218 45.1816C37.9653 45.1816 39.1354 44.0226 39.1354 42.593C39.1354 41.1633 37.9653 40.0044 36.5218 40.0044C35.0783 40.0044 33.9081 41.1633 33.9081 42.593C33.9081 44.0226 35.0783 45.1816 36.5218 45.1816Z" fill="white"/>
<path d="M36.5217 30.8161C37.6787 30.8161 38.6166 29.8872 38.6166 28.7413C38.6166 27.5954 37.6787 26.6665 36.5217 26.6665C35.3647 26.6665 34.4268 27.5954 34.4268 28.7413C34.4268 29.8872 35.3647 30.8161 36.5217 30.8161Z" fill="white"/>
<path d="M34.9456 14.8989C34.9456 14.0394 35.6538 13.3379 36.5217 13.3379C37.3897 13.3379 38.0979 14.0394 38.0979 14.8989C38.0979 15.7585 37.3897 16.46 36.5217 16.46C35.6538 16.46 34.9456 15.7585 34.9456 14.8989Z" fill="white"/>
<path d="M35.4642 1.04729C35.4642 0.464364 35.9331 0 36.5217 0C37.1103 0 37.5791 0.464364 37.5791 1.04729C37.5791 1.63021 37.1103 2.09458 36.5217 2.09458C35.9331 2.09458 35.4642 1.63021 35.4642 1.04729Z" fill="white"/>
<path d="M26.0509 112.416C26.3721 109.58 24.3112 107.023 21.4476 106.705C18.5841 106.387 16.0024 108.428 15.6812 111.264C15.36 114.1 17.421 116.657 20.2845 116.975C23.148 117.294 25.7297 115.252 26.0509 112.416Z" fill="white"/>
<path d="M21.0514 102.635C23.6445 102.536 25.6658 100.374 25.5662 97.806C25.4666 95.2378 23.2837 93.2359 20.6907 93.3345C18.0976 93.4332 16.0762 95.5951 16.1759 98.1633C16.2755 100.731 18.4583 102.733 21.0514 102.635Z" fill="white"/>
<path d="M20.8696 88.2785C23.1781 88.2785 25.0495 86.4251 25.0495 84.1388C25.0495 81.8525 23.1781 79.999 20.8696 79.999C18.5611 79.999 16.6897 81.8525 16.6897 84.1388C16.6897 86.4251 18.5611 88.2785 20.8696 88.2785Z" fill="white"/>
<path d="M17.2084 70.2871C17.2084 68.2815 18.8444 66.6611 20.8695 66.6611C22.8946 66.6611 24.5307 68.2815 24.5307 70.2871C24.5307 72.2928 22.8946 73.9131 20.8695 73.9131C18.8444 73.9131 17.2084 72.2928 17.2084 70.2871Z" fill="white"/>
<path d="M17.7272 56.4447C17.7272 54.7256 19.1338 53.3325 20.8696 53.3325C22.6054 53.3325 24.012 54.7256 24.012 56.4447C24.012 58.1639 22.6054 59.557 20.8696 59.557C19.1338 59.557 17.7272 58.1639 17.7272 56.4447Z" fill="white"/>
<path d="M20.8695 45.1816C22.313 45.1816 23.4832 44.0226 23.4832 42.593C23.4832 41.1633 22.313 40.0044 20.8695 40.0044C19.426 40.0044 18.2559 41.1633 18.2559 42.593C18.2559 44.0226 19.426 45.1816 20.8695 45.1816Z" fill="white"/>
<path d="M20.8696 30.8161C22.0266 30.8161 22.9645 29.8872 22.9645 28.7413C22.9645 27.5954 22.0266 26.6665 20.8696 26.6665C19.7126 26.6665 18.7747 27.5954 18.7747 28.7413C18.7747 29.8872 19.7126 30.8161 20.8696 30.8161Z" fill="white"/>
<path d="M19.2933 14.8989C19.2933 14.0394 20.0016 13.3379 20.8695 13.3379C21.7374 13.3379 22.4457 14.0394 22.4457 14.8989C22.4457 15.7585 21.7374 16.46 20.8695 16.46C20.0016 16.46 19.2933 15.7585 19.2933 14.8989Z" fill="white"/>
<path d="M20.8696 2.09458C21.4536 2.09458 21.927 1.62569 21.927 1.04729C21.927 0.468887 21.4536 0 20.8696 0C20.2856 0 19.8121 0.468887 19.8121 1.04729C19.8121 1.62569 20.2856 2.09458 20.8696 2.09458Z" fill="white"/>
<path d="M0 111.833C0 108.977 2.33436 106.666 5.21739 106.666C8.10042 106.666 10.4348 108.977 10.4348 111.833C10.4348 114.688 8.10042 117 5.21739 117C2.33436 117 0 114.688 0 111.833Z" fill="white"/>
<path d="M0.518799 97.9807C0.518799 95.4118 2.62371 93.3271 5.21744 93.3271C7.81118 93.3271 9.91609 95.4118 9.91609 97.9807C9.91609 100.549 7.81118 102.634 5.21744 102.634C2.62371 102.634 0.518799 100.549 0.518799 97.9807Z" fill="white"/>
<path d="M5.21737 88.2785C7.52587 88.2785 9.39727 86.4251 9.39727 84.1388C9.39727 81.8525 7.52587 79.999 5.21737 79.999C2.90888 79.999 1.03748 81.8525 1.03748 84.1388C1.03748 86.4251 2.90888 88.2785 5.21737 88.2785Z" fill="white"/>
<path d="M1.55627 70.2871C1.55627 68.2815 3.19232 66.6611 5.21743 66.6611C7.24253 66.6611 8.87858 68.2815 8.87858 70.2871C8.87858 72.2928 7.24253 73.9131 5.21743 73.9131C3.19232 73.9131 1.55627 72.2928 1.55627 70.2871Z" fill="white"/>
<path d="M2.08496 56.4447C2.08496 54.7256 3.49156 53.3325 5.22737 53.3325C6.96317 53.3325 8.36977 54.7256 8.36977 56.4447C8.36977 58.1639 6.96317 59.557 5.22737 59.557C3.49156 59.557 2.08496 58.1639 2.08496 56.4447Z" fill="white"/>
<path d="M2.60376 42.593C2.60376 41.1604 3.77094 40.0044 5.21744 40.0044C6.66395 40.0044 7.83113 41.1604 7.83113 42.593C7.83113 44.0256 6.66395 45.1816 5.21744 45.1816C3.77094 45.1816 2.60376 44.0256 2.60376 42.593Z" fill="white"/>
<path d="M5.21737 30.8161C6.37438 30.8161 7.31231 29.8872 7.31231 28.7413C7.31231 27.5954 6.37438 26.6665 5.21737 26.6665C4.06037 26.6665 3.12244 27.5954 3.12244 28.7413C3.12244 29.8872 4.06037 30.8161 5.21737 30.8161Z" fill="white"/>
<path d="M3.64124 14.8989C3.64124 14.0394 4.34952 13.3379 5.21743 13.3379C6.08533 13.3379 6.79362 14.0394 6.79362 14.8989C6.79362 15.7585 6.08533 16.46 5.21743 16.46C4.34952 16.46 3.64124 15.7585 3.64124 14.8989Z" fill="white"/>
<path d="M4.15991 1.04729C4.15991 0.464364 4.62878 0 5.21736 0C5.80593 0 6.2748 0.464364 6.2748 1.04729C6.2748 1.63021 5.80593 2.09458 5.21736 2.09458C4.62878 2.09458 4.15991 1.63021 4.15991 1.04729Z" fill="white"/>
</g>
</g>
<defs>
<clipPath id="clip0_379_27084">
<rect width="120" height="117" fill="white"/>
</clipPath>
</defs>
</svg>
