<svg width="60" height="60" viewBox="0 0 60 60" fill="none" xmlns="http://www.w3.org/2000/svg">
<path d="M15 55C13.625 55 12.4483 54.5108 11.47 53.5325C10.4917 52.5542 10.0017 51.3767 10 50V25C10 23.625 10.49 22.4483 11.47 21.47C12.45 20.4917 13.6267 20.0017 15 20H17.5V15C17.5 11.5417 18.7192 8.59417 21.1575 6.1575C23.5958 3.72084 26.5433 2.50167 30 2.5C33.4567 2.49834 36.405 3.7175 38.845 6.1575C41.285 8.5975 42.5033 11.545 42.5 15V20H45C46.375 20 47.5525 20.49 48.5325 21.47C49.5125 22.45 50.0017 23.6267 50 25V50C50 51.375 49.5108 52.5525 48.5325 53.5325C47.5542 54.5125 46.3767 55.0017 45 55H15ZM33.5325 41.0325C34.5108 40.0525 35 38.875 35 37.5C35 36.125 34.5108 34.9483 33.5325 33.97C32.5542 32.9917 31.3767 32.5017 30 32.5C28.6233 32.4983 27.4467 32.9883 26.47 33.97C25.4933 34.9517 25.0033 36.1283 25 37.5C24.9967 38.8717 25.4867 40.0492 26.47 41.0325C27.4533 42.0158 28.63 42.505 30 42.5C31.37 42.495 32.5475 42.0058 33.5325 41.0325ZM22.5 20H37.5V15C37.5 12.9167 36.7708 11.1458 35.3125 9.6875C33.8542 8.22917 32.0833 7.5 30 7.5C27.9167 7.5 26.1458 8.22917 24.6875 9.6875C23.2292 11.1458 22.5 12.9167 22.5 15V20Z" fill="white"/>
</svg>
