<svg width="200" height="80" viewBox="0 0 200 80" fill="none" xmlns="http://www.w3.org/2000/svg">
<path d="M44.1494 35.6073C45.2333 32.3432 44.8579 28.7702 43.1205 25.8032C40.5072 21.2542 35.2553 18.9139 30.1267 20.0134C25.6562 15.0402 18.0025 14.6332 13.0297 19.1039C11.4516 20.523 10.2741 22.3311 9.61607 24.349C6.24654 25.0405 3.33882 27.1503 1.6365 30.1389C-1.00475 34.6807 -0.405181 40.4102 3.11918 44.3074C2.03172 47.5697 2.40351 51.1435 4.13914 54.1114C6.75518 58.6623 12.0107 61.0025 17.1419 59.9013C19.4249 62.472 22.7035 63.9352 26.1414 63.9154C31.3987 63.9199 36.0565 60.5253 37.6615 55.5188C41.0302 54.8263 43.9379 52.7166 45.6411 49.7289C48.2509 45.1952 47.6486 39.4963 44.1494 35.6082V35.6073ZM26.1414 60.7801C24.043 60.7837 22.0103 60.048 20.3998 58.7019L20.6834 58.5416L30.2212 53.0345C30.7038 52.7508 31.0017 52.234 31.0053 51.6739V38.2231L35.0374 40.5561C35.0779 40.5768 35.1058 40.6155 35.113 40.6597V51.8054C35.1022 56.7569 31.0918 60.7684 26.1414 60.7792V60.7801ZM6.8587 52.5437C5.80634 50.7266 5.42824 48.5962 5.79193 46.527L6.07549 46.6971L15.6224 52.2034C16.1031 52.4861 16.6999 52.4861 17.1806 52.2034L28.843 45.4788V50.1359C28.8403 50.1846 28.816 50.2296 28.7773 50.2584L19.117 55.8312C14.8238 58.3048 9.33969 56.8343 6.85958 52.5437H6.8587ZM4.3471 31.7633C5.40666 29.9336 7.07924 28.5388 9.06873 27.8247V39.1595C9.06153 39.7169 9.35771 40.2346 9.84293 40.5102L21.4486 47.2068L17.4165 49.5398C17.3724 49.5633 17.3193 49.5633 17.2752 49.5398L7.63378 43.976C3.34963 41.4926 1.88049 36.0107 4.3471 31.7155V31.7633ZM37.4734 39.4612L25.8299 32.6979L29.8521 30.3748C29.8962 30.3514 29.9493 30.3514 29.9935 30.3748L39.6348 35.9476C43.9262 38.4248 45.3971 43.913 42.9206 48.2045C41.8782 50.0117 40.2389 51.3984 38.2845 52.1277V40.7929C38.2674 40.2365 37.9586 39.7304 37.4725 39.4612H37.4734ZM41.4866 33.4255L41.203 33.2553L31.6751 27.7014C31.1908 27.4177 30.5912 27.4177 30.1078 27.7014L18.4553 34.4259V29.7688C18.4508 29.7211 18.4725 29.6733 18.5121 29.6463L28.1534 24.0825C32.4511 21.6063 37.9424 23.083 40.418 27.3817C41.4641 29.197 41.8422 31.3211 41.4875 33.3859V33.4237L41.4866 33.4255ZM16.2552 41.6808L12.2231 39.3576C12.1826 39.3333 12.1547 39.291 12.1475 39.2442V28.1264C12.1538 23.1649 16.1805 19.1489 21.1398 19.1552C23.2328 19.1579 25.2601 19.8918 26.8697 21.2308L26.5862 21.391L17.0483 26.8982C16.5658 27.1818 16.2678 27.6987 16.2642 28.2587L16.2552 41.6808ZM18.4454 36.9579L23.6388 33.964L28.8421 36.9579V42.9459L23.6577 45.9408L18.4553 42.9459L18.4464 36.9579H18.4454Z" fill="#CCCCCC"/>
<path d="M61.7427 26.8071C62.7646 26.6935 63.741 26.5345 64.7175 26.4663C67.2153 26.2619 69.7132 26.1483 72.2338 26.4436C74.2775 26.6935 76.253 27.1478 78.0469 28.17C80.999 29.8737 82.7929 32.4406 83.4968 35.7571C84.1553 38.8692 83.9964 41.9586 82.9745 44.9571C81.4758 49.3412 78.3194 51.8854 73.8914 52.9985C71.3254 53.6345 68.6913 53.7254 66.0799 53.6118C64.8083 53.5664 63.5367 53.4528 62.2423 53.3847C61.9244 53.362 61.7427 53.2938 61.7427 52.8849C61.7654 44.2983 61.7427 35.7344 61.7427 27.1478C61.72 27.0796 61.72 26.9888 61.7427 26.8071ZM65.217 29.4194C65.217 29.6465 65.217 29.851 65.217 30.0327C65.217 34.2124 65.217 38.4149 65.217 42.5946C65.217 45.1161 65.217 47.6375 65.217 50.159C65.217 50.4089 65.1943 50.636 65.5804 50.6815C67.8057 50.8859 70.0084 50.9541 72.211 50.4543C75.867 49.6365 78.4103 47.524 79.5457 43.9121C80.3404 41.368 80.4313 38.7556 79.8409 36.1433C79.2505 33.531 77.7745 31.532 75.3674 30.3053C73.9595 29.5784 72.4381 29.2377 70.8713 29.1241C68.9638 28.9878 67.1018 29.0559 65.217 29.4194Z" fill="#CCCCCC"/>
<path d="M108.271 53.4075C107.068 53.4075 105.955 53.3847 104.82 53.4075C104.479 53.4075 104.456 53.1803 104.388 52.9531C103.548 50.4771 102.685 48.0011 101.868 45.5023C101.709 45.0253 101.504 44.9117 101.027 44.9117C98.2344 44.9344 95.4414 44.9344 92.6483 44.9117C92.2623 44.9117 92.1033 45.0253 91.9671 45.3887C91.1723 47.8648 90.3548 50.3408 89.5373 52.7941C89.4692 52.9759 89.4011 53.1803 89.333 53.3393C88.1294 53.3393 86.9486 53.3393 85.7224 53.3393C86.0403 52.408 86.3355 51.4993 86.6534 50.5907C89.333 42.731 92.0125 34.8486 94.6693 26.9889C94.8282 26.5345 95.0099 26.3982 95.4868 26.421C96.554 26.4664 97.5986 26.4437 98.6659 26.421C98.9838 26.421 99.12 26.5345 99.2336 26.8298C101.436 33.2812 103.639 39.7325 105.842 46.1838C106.614 48.4327 107.386 50.6588 108.135 52.9077C108.18 53.0667 108.226 53.203 108.271 53.4075ZM92.9435 42.1631C95.5776 42.1631 98.2344 42.1631 100.869 42.1631C99.5061 37.9834 98.1436 33.8263 96.8719 29.9419C95.623 33.8491 94.2833 38.0061 92.9435 42.1631Z" fill="#CCCCCC"/>
<path d="M158.455 26.4891C163.292 26.4891 168.129 26.4891 172.966 26.4891C172.966 27.4659 172.966 28.3973 172.966 29.3968C172.784 29.3968 172.58 29.4195 172.398 29.4195C169.105 29.4195 165.79 29.4195 162.497 29.4195C162.043 29.4195 161.907 29.5331 161.907 30.0101C161.93 32.4407 161.907 34.894 161.93 37.3246C161.93 37.4836 161.952 37.6426 161.952 37.8698C165.427 37.8698 168.878 37.8698 172.353 37.8698C172.353 38.8466 172.353 39.7779 172.353 40.7774C168.924 40.7774 165.449 40.7774 161.952 40.7774C161.952 44.0258 161.952 47.2288 161.952 50.4998C165.813 50.4998 169.673 50.4998 173.579 50.4998C173.579 51.4993 173.579 52.4307 173.579 53.3848C168.538 53.3848 163.519 53.3848 158.455 53.3848C158.455 44.4347 158.455 35.4619 158.455 26.4891Z" fill="#CCCCCC"/>
<path d="M187.135 50.2953C191.404 50.2953 195.674 50.2953 199.988 50.2953C199.988 51.3403 199.988 52.3625 199.988 53.4074C194.152 53.4074 188.339 53.4074 182.367 53.4074C182.48 52.7713 182.526 52.1353 182.707 51.5447C183.275 49.682 184.365 48.1146 185.75 46.7971C187.726 44.9571 189.815 43.208 191.813 41.3907C193.176 40.164 194.515 38.9147 195.515 37.3473C196.219 36.2342 196.718 35.0529 196.582 33.69C196.377 31.7137 195.31 30.4416 193.471 29.8056C191.087 28.9651 188.475 29.7828 187.272 31.6683C186.772 32.4406 186.545 33.2811 186.454 34.1897C186.431 34.3942 186.431 34.5986 186.409 34.8485C185.296 34.7349 184.183 34.6213 183.048 34.5078C183.32 31.7591 184.229 29.374 186.727 28.011C189.815 26.33 193.085 26.2619 196.219 27.852C199.852 29.6693 201.033 34.1897 199.034 37.9606C197.99 39.9141 196.446 41.4361 194.811 42.8672C192.835 44.6163 190.814 46.32 188.861 48.0919C188.18 48.7052 187.612 49.4775 186.999 50.159C187.045 50.1817 187.09 50.2272 187.135 50.2953Z" fill="#CCCCCC"/>
<path d="M131.115 26.4891C132.273 26.4891 133.409 26.4891 134.59 26.4891C134.59 34.4851 134.59 42.4357 134.59 50.4544C138.427 50.4544 142.242 50.4544 146.057 50.4544C146.057 51.4539 146.057 52.408 146.057 53.3848C141.061 53.3848 136.111 53.3848 131.115 53.3848C131.115 44.412 131.115 35.4619 131.115 26.4891Z" fill="#CCCCCC"/>
<path d="M112.268 26.4891C113.403 26.4891 114.539 26.4891 115.697 26.4891C115.697 34.4624 115.697 42.4357 115.697 50.4544C119.557 50.4544 123.372 50.4544 127.21 50.4544C127.21 51.4539 127.21 52.408 127.21 53.3848C122.236 53.3848 117.263 53.3848 112.268 53.3848C112.268 44.4347 112.268 35.4619 112.268 26.4891Z" fill="#CCCCCC"/>
<path d="M150.167 40.3912C150.712 40.3912 151.234 40.3912 151.779 40.3912C152.188 40.3912 152.415 40.5957 152.415 41.0045C152.415 42.1176 152.415 43.2306 152.415 44.3209C152.415 44.7071 152.188 44.9115 151.825 44.9342C150.712 44.9569 149.599 44.9342 148.487 44.9342C148.078 44.9342 147.874 44.6844 147.874 44.2982C147.874 43.2079 147.874 42.1176 147.874 41.0272C147.874 40.6184 148.078 40.414 148.51 40.414C149.055 40.3912 149.622 40.3912 150.167 40.3912Z" fill="#CCCCCC"/>
</svg>
