<svg width="200" height="80" viewBox="0 0 200 80" fill="none" xmlns="http://www.w3.org/2000/svg">
<path d="M27.6063 38.5092C29.4113 38.5092 30.8744 37.0479 30.8744 35.2453C30.8744 33.4427 29.4113 31.9814 27.6063 31.9814C25.8014 31.9814 24.3383 33.4427 24.3383 35.2453C24.3383 37.0479 25.8014 38.5092 27.6063 38.5092Z" fill="#CCCCCC"/>
<path d="M10.5623 37.7749C11.9612 37.7749 13.0953 36.6423 13.0953 35.2452C13.0953 33.848 11.9612 32.7155 10.5623 32.7155C9.16335 32.7155 8.0293 33.848 8.0293 35.2452C8.0293 36.6423 9.16335 37.7749 10.5623 37.7749Z" fill="#CCCCCC"/>
<path d="M22.0733 40.7066C22.3211 39.1817 21.2843 37.7449 19.7574 37.4974C18.2306 37.2499 16.7919 38.2854 16.544 39.8102C16.2962 41.3351 17.333 42.7719 18.8599 43.0195C20.3868 43.267 21.8254 42.2315 22.0733 40.7066Z" fill="#CCCCCC"/>
<path d="M2.03721 42.2908C3.16233 42.2908 4.07442 41.3799 4.07442 40.2563C4.07442 39.1326 3.16233 38.2217 2.03721 38.2217C0.912091 38.2217 0 39.1326 0 40.2563C0 41.3799 0.912091 42.2908 2.03721 42.2908Z" fill="#CCCCCC"/>
<path d="M27.6063 28.4841C29.4113 28.4841 30.8744 27.0229 30.8744 25.2203C30.8744 23.4177 29.4113 21.9564 27.6063 21.9564C25.8014 21.9564 24.3383 23.4177 24.3383 25.2203C24.3383 27.0229 25.8014 28.4841 27.6063 28.4841Z" fill="#CCCCCC"/>
<path d="M10.5623 27.75C11.9612 27.75 13.0953 26.6174 13.0953 25.2203C13.0953 23.8231 11.9612 22.6906 10.5623 22.6906C9.16335 22.6906 8.0293 23.8231 8.0293 25.2203C8.0293 26.6174 9.16335 27.75 10.5623 27.75Z" fill="#CCCCCC"/>
<path d="M22.0718 30.6832C22.3197 29.1583 21.2828 27.7215 19.756 27.4739C18.2291 27.2264 16.7904 28.2619 16.5426 29.7868C16.2947 31.3117 17.3316 32.7485 18.8584 32.996C20.3853 33.2436 21.824 32.2081 22.0718 30.6832Z" fill="#CCCCCC"/>
<path d="M22.0733 20.6573C22.3211 19.1324 21.2843 17.6956 19.7574 17.4481C18.2306 17.2005 16.7919 18.236 16.544 19.7609C16.2962 21.2858 17.333 22.7226 18.8599 22.9702C20.3868 23.2177 21.8254 22.1822 22.0733 20.6573Z" fill="#CCCCCC"/>
<path d="M2.03721 32.2659C3.16233 32.2659 4.07442 31.355 4.07442 30.2314C4.07442 29.1077 3.16233 28.1968 2.03721 28.1968C0.912091 28.1968 0 29.1077 0 30.2314C0 31.355 0.912091 32.2659 2.03721 32.2659Z" fill="#CCCCCC"/>
<path d="M36.2824 44.0721C38.3926 44.0721 40.1032 42.3637 40.1032 40.2562C40.1032 38.1487 38.3926 36.4403 36.2824 36.4403C34.1722 36.4403 32.4615 38.1487 32.4615 40.2562C32.4615 42.3637 34.1722 44.0721 36.2824 44.0721Z" fill="#CCCCCC"/>
<path d="M36.2824 34.0472C38.3926 34.0472 40.1032 32.3388 40.1032 30.2313C40.1032 28.1238 38.3926 26.4154 36.2824 26.4154C34.1722 26.4154 32.4615 28.1238 32.4615 30.2313C32.4615 32.3388 34.1722 34.0472 36.2824 34.0472Z" fill="#CCCCCC"/>
<path d="M29.9164 47.5755C31.1927 46.3009 31.1927 44.2343 29.9164 42.9597C28.6402 41.6851 26.5709 41.6851 25.2947 42.9597C24.0184 44.2343 24.0184 46.3009 25.2947 47.5755C26.5709 48.8501 28.6402 48.8501 29.9164 47.5755Z" fill="#CCCCCC"/>
<path d="M10.5623 47.7971C11.9612 47.7971 13.0953 46.6645 13.0953 45.2674C13.0953 43.8703 11.9612 42.7377 10.5623 42.7377C9.16335 42.7377 8.0293 43.8703 8.0293 45.2674C8.0293 46.6645 9.16335 47.7971 10.5623 47.7971Z" fill="#CCCCCC"/>
<path d="M29.9168 57.6007C31.1931 56.3261 31.1931 54.2596 29.9168 52.9849C28.6406 51.7103 26.5713 51.7103 25.2951 52.9849C24.0188 54.2596 24.0188 56.3261 25.2951 57.6007C26.5713 58.8754 28.6406 58.8754 29.9168 57.6007Z" fill="#CCCCCC"/>
<path d="M10.5623 57.822C11.9612 57.822 13.0953 56.6894 13.0953 55.2923C13.0953 53.8952 11.9612 52.7626 10.5623 52.7626C9.16335 52.7626 8.0293 53.8952 8.0293 55.2923C8.0293 56.6894 9.16335 57.822 10.5623 57.822Z" fill="#CCCCCC"/>
<path d="M21.896 51.3515C22.4879 49.9243 21.8093 48.288 20.3802 47.6968C18.9511 47.1056 17.3127 47.7834 16.7207 49.2107C16.1288 50.6379 16.8074 52.2742 18.2365 52.8654C19.6656 53.4565 21.304 52.7788 21.896 51.3515Z" fill="#CCCCCC"/>
<path d="M21.8928 61.373C22.4847 59.9458 21.8061 58.3095 20.377 57.7183C18.9479 57.1271 17.3095 57.8049 16.7176 59.2321C16.1256 60.6594 16.8043 62.2957 18.2334 62.8868C19.6625 63.478 21.3008 62.8003 21.8928 61.373Z" fill="#CCCCCC"/>
<path d="M2.03721 52.3157C3.16233 52.3157 4.07442 51.4048 4.07442 50.2812C4.07442 49.1575 3.16233 48.2466 2.03721 48.2466C0.912091 48.2466 0 49.1575 0 50.2812C0 51.4048 0.912091 52.3157 2.03721 52.3157Z" fill="#CCCCCC"/>
<path d="M36.2824 54.0971C38.3926 54.0971 40.1032 52.3887 40.1032 50.2812C40.1032 48.1738 38.3926 46.4653 36.2824 46.4653C34.1722 46.4653 32.4615 48.1738 32.4615 50.2812C32.4615 52.3887 34.1722 54.0971 36.2824 54.0971Z" fill="#CCCCCC"/>
<path d="M90.5974 36.019C85.6027 36.019 81.5311 39.8122 81.5311 45.0452C81.5311 50.2782 85.6027 54.0713 90.5974 54.0713C95.5922 54.0713 99.6637 50.2412 99.6637 45.0452C99.6637 39.8492 95.5922 36.019 90.5974 36.019ZM90.5974 50.5115C87.8593 50.5115 85.5001 48.2578 85.5001 45.0423C85.5001 41.8268 87.8593 39.5732 90.5974 39.5732C93.3356 39.5732 95.6947 41.7955 95.6947 45.0423C95.6947 48.2891 93.3356 50.5115 90.5974 50.5115Z" fill="#CCCCCC"/>
<path d="M110.155 36.019C105.16 36.019 101.088 39.815 101.088 45.0452C101.088 50.2753 105.16 54.0713 110.155 54.0713C115.149 54.0713 119.221 50.2412 119.221 45.0452C119.221 39.8492 115.149 36.019 110.155 36.019ZM110.155 50.5115C107.416 50.5115 105.057 48.2578 105.057 45.0423C105.057 41.8268 107.416 39.5732 110.155 39.5732C112.893 39.5732 115.252 41.7955 115.252 45.0423C115.252 48.2891 112.893 50.5115 110.155 50.5115Z" fill="#CCCCCC"/>
<path d="M134.194 38.0365H134.054C133.162 36.9752 131.45 36.019 129.296 36.019C124.777 36.019 120.637 39.9829 120.637 45.0765C120.637 50.17 124.777 54.0656 129.296 54.0656C131.456 54.0656 133.165 53.1095 134.054 52.0139H134.194V53.3115C134.194 56.766 132.347 58.6014 129.37 58.6014C126.942 58.6014 125.435 56.8685 124.82 55.4002L121.364 56.8372C122.358 59.2303 124.993 62.1555 129.373 62.1555C134.026 62.1555 137.96 59.4323 137.96 52.768V36.5682H134.191V38.0365H134.194ZM129.652 50.5115C126.914 50.5115 124.62 48.2208 124.62 45.0765C124.62 41.9321 126.914 39.576 129.652 39.576C132.39 39.576 134.476 41.9008 134.476 45.0765C134.476 48.2521 132.353 50.5115 129.652 50.5115Z" fill="#CCCCCC"/>
<path d="M144.175 27.067H140.305V53.5165H144.175V27.067Z" fill="#CCCCCC"/>
<path d="M154.811 50.5114C152.794 50.5114 151.355 49.5866 150.432 47.7769L162.512 42.7801L162.102 41.7557C161.353 39.741 159.059 36.0133 154.369 36.0133C149.679 36.0133 145.844 39.6727 145.844 45.0394C145.844 50.1017 149.679 54.0655 154.811 54.0655C158.951 54.0655 161.347 51.5358 162.341 50.0647L159.261 48.013C158.236 49.5183 156.834 50.5114 154.811 50.5114ZM154.503 39.5048C156.076 39.5048 157.412 40.2902 157.857 41.417L149.782 44.7663C149.679 41.2833 152.489 39.5048 154.503 39.5048Z" fill="#CCCCCC"/>
<path d="M66.8803 38.8675V42.6976H76.0434C75.7614 44.8062 75.049 46.3513 73.9663 47.4355C72.63 48.77 70.5444 50.2383 66.8803 50.2383C61.2331 50.2383 56.8167 45.694 56.8167 40.0541C56.8167 34.4142 61.2331 29.8698 66.8803 29.8698C69.929 29.8698 72.1514 31.0649 73.7954 32.6044L76.5022 29.9011C74.2114 27.7157 71.1655 26.0397 66.886 26.0397C59.1531 26.0397 52.6511 32.3312 52.6511 40.0541C52.6511 47.7769 59.1531 54.0685 66.886 54.0685C71.0572 54.0685 74.2085 52.7026 76.6731 50.1387C79.2061 47.609 79.9925 44.0549 79.9925 41.1838C79.9925 40.3301 79.9269 39.539 79.8016 38.8732H66.8803V38.8675Z" fill="#CCCCCC"/>
<path d="M177.534 46.0013L174.867 54.0628H171.439L180.161 28.4299H184.158L192.917 54.0628H189.375L186.634 46.0013H177.534ZM185.948 43.4147L183.435 36.0361C182.865 34.3629 182.483 32.8406 182.101 31.358H182.024C181.642 32.8804 181.224 34.4398 180.731 35.9991L178.218 43.4147H185.948Z" fill="#CCCCCC"/>
<path d="M200 28.4299V54.0628H196.687V28.4299H200Z" fill="#CCCCCC"/>
</svg>
