<svg width="200" height="80" viewBox="0 0 200 80" fill="none" xmlns="http://www.w3.org/2000/svg">
<path d="M62.6675 23.0019C64.4344 23.022 66.2033 23.0172 67.9721 23.0048C68.0208 27.3267 67.9807 31.6525 67.9921 35.9754C69.0397 34.3727 70.6491 33.1616 72.4828 32.6143C74.8661 31.8693 77.5642 32.2647 79.6421 33.6487C81.6628 34.9553 83.0739 37.069 83.7656 39.3547C84.3953 41.455 84.4821 43.7062 84.1176 45.862C83.6349 48.6089 82.1675 51.2298 79.8749 52.8573C77.8953 54.2881 75.3116 54.8803 72.9198 54.3311C70.7445 53.8755 68.8699 52.439 67.6735 50.587C67.4884 51.7198 67.3129 52.8554 67.1449 53.9911C65.6509 54.0054 64.1577 53.9815 62.6637 54.0035C62.615 45.7454 62.6579 37.4836 62.6436 29.2236C62.6589 27.1491 62.6112 25.0726 62.6675 23M72.2969 37.1913C71.0013 37.4626 69.8325 38.2601 69.0873 39.3518C68.0856 40.796 67.7593 42.6346 67.9701 44.3615C68.1514 45.8601 68.8069 47.3367 69.9498 48.3453C71.0899 49.3768 72.7109 49.8305 74.2212 49.585C75.7305 49.3892 77.1062 48.4637 77.9172 47.181C78.9733 45.5248 79.1966 43.4216 78.7368 41.5305C78.358 39.9411 77.3543 38.4626 75.8888 37.6966C74.8003 37.1034 73.5056 36.9716 72.2978 37.1913H72.2969Z" fill="#CCCCCC"/>
<path d="M99.7775 23.0094C101.555 23.0161 103.332 23.0151 105.111 23.0094C105.112 33.3391 105.111 43.6698 105.111 53.9995C103.332 53.9938 101.555 53.9957 99.7775 53.9995C99.7775 43.6698 99.7766 33.3391 99.7775 23.0094Z" fill="#CCCCCC"/>
<path d="M90.9601 23.3227C91.9924 23.1546 93.1049 23.5386 93.7632 24.3629C94.7907 25.5616 94.6237 27.5807 93.3653 28.5521C92.2462 29.468 90.4669 29.4184 89.3974 28.446C88.596 27.7488 88.2601 26.5845 88.5234 25.5606C88.7772 24.4049 89.7924 23.4832 90.9592 23.3218L90.9601 23.3227Z" fill="#CCCCCC"/>
<path d="M112.911 23.3275C113.979 23.1403 115.137 23.5587 115.793 24.4317C116.74 25.6113 116.581 27.5292 115.404 28.4996C114.362 29.4041 112.699 29.4394 111.594 28.6276C110.92 28.1443 110.49 27.3506 110.428 26.5244C110.252 25.0191 111.412 23.5319 112.912 23.3266L112.911 23.3275Z" fill="#CCCCCC"/>
<path d="M195.999 23.4516C196.877 23.1565 197.899 23.253 198.675 23.7754C199.529 24.3323 200.046 25.3581 199.997 26.3763C199.982 27.5205 199.21 28.6046 198.141 29.0057C196.747 29.5568 194.969 28.9771 194.308 27.595C193.5 26.0639 194.334 23.9598 195.999 23.4516Z" fill="#CCCCCC"/>
<path d="M21.6105 27.8155C23.3364 27.8127 25.0614 27.8098 26.7854 27.8165C26.7911 29.4602 26.7854 31.105 26.7882 32.7507C28.7126 32.7564 30.6388 32.7163 32.5631 32.7707C32.5373 34.2445 32.5517 35.7183 32.5545 37.192C30.6331 37.193 28.7125 37.1911 26.791 37.193C26.7872 40.152 26.7825 43.111 26.793 46.0709C26.7997 47.2639 27.3492 48.5179 28.4235 49.113C29.7887 49.8981 31.4449 49.7892 32.9409 49.5342C32.9476 51.0519 32.9237 52.5686 32.9524 54.0873C30.5968 54.6021 28.0227 54.5964 25.7893 53.6021C24.1063 52.8561 22.7993 51.3824 22.182 49.6555C21.726 48.4186 21.5676 47.0891 21.5867 45.7758C21.5895 42.919 21.5847 40.0612 21.5876 37.2054C20.5658 37.1815 19.544 37.1968 18.5222 37.1958C18.5251 35.7135 18.526 34.2311 18.5222 32.7497C19.5516 32.7469 20.582 32.743 21.6105 32.7507V27.8155Z" fill="#CCCCCC"/>
<path d="M122.905 27.8042C124.624 27.8223 126.342 27.8109 128.062 27.8099C128.062 29.4575 128.043 31.1061 128.071 32.7556C129.994 32.7384 131.916 32.7489 133.839 32.7499C133.839 34.2313 133.84 35.7136 133.839 37.196C131.912 37.1922 129.987 37.1931 128.062 37.195C128.053 40.1024 128.062 43.0108 128.058 45.9173C128.051 47.1389 128.555 48.4388 129.644 49.0807C131.017 49.9154 132.703 49.7741 134.224 49.5496C134.19 51.0731 134.227 52.5984 134.206 54.1237C131.726 54.587 129.018 54.6175 126.726 53.4332C124.91 52.5057 123.638 50.7063 123.182 48.7358C122.774 47.2105 122.892 45.624 122.876 44.0643C122.873 41.7739 122.88 39.4845 122.873 37.196C121.846 37.1931 120.818 37.1903 119.791 37.1969C119.788 35.7127 119.79 34.2303 119.791 32.7479C120.829 32.7479 121.868 32.7422 122.905 32.7508C122.901 31.1013 122.901 29.4518 122.906 27.8042H122.905Z" fill="#CCCCCC"/>
<path d="M5.97059 32.4517C8.09242 32.0783 10.3029 32.2148 12.3723 32.8099C13.2758 33.0725 14.1535 33.4336 14.9492 33.9398C14.9616 35.5024 14.9578 37.0659 14.9521 38.6285C12.8388 37.1806 10.2114 36.4986 7.66311 36.7078C6.80542 36.8176 5.82556 37.1061 5.38287 37.9189C4.96404 38.6476 5.2178 39.6553 5.93621 40.0947C7.1431 40.8769 8.59039 41.1262 9.94801 41.5254C11.7436 42.0317 13.6365 42.6515 14.9378 44.0623C16.0684 45.2695 16.4013 47.0318 16.1952 48.6325C16.0311 50.3785 15.037 52.0099 13.5745 52.9717C11.6444 54.2697 9.23726 54.5925 6.96182 54.5228C4.5347 54.4197 2.06366 53.7893 0.069677 52.3556C0.0878041 50.6737 0.0611277 48.9898 0.0840251 47.3078C2.23066 49.1923 5.10334 50.261 7.96648 50.0528C8.88333 49.9688 9.8803 49.7758 10.5472 49.0853C11.0862 48.559 11.2303 47.666 10.8611 47.006C10.5176 46.4291 9.8889 46.1167 9.29452 45.8617C7.00668 44.9305 4.45835 44.6229 2.36324 43.2437C1.28134 42.556 0.427501 41.4748 0.147008 40.2073C-0.20504 38.5808 0.0715777 36.7928 1.0161 35.4088C2.13902 33.7535 4.04434 32.8003 5.97059 32.4508V32.4517Z" fill="#CCCCCC"/>
<path d="M38.7969 34.8453C40.4331 33.2302 42.699 32.1958 45.0164 32.2502C47.2117 32.2321 49.4127 33.1175 50.9364 34.7068C51.3829 35.1309 51.7034 35.661 52.1051 36.1223C52.2635 35.0019 52.4638 33.8883 52.6098 32.766C54.1067 32.723 55.6027 32.7536 57.0996 32.7507C57.093 39.833 57.0996 46.9162 57.0967 53.9985C55.6056 53.9928 54.1153 53.9928 52.6241 53.9985C52.4562 52.8609 52.2663 51.7272 52.1041 50.5887C51.3027 51.7262 50.3401 52.7788 49.1065 53.4522C46.957 54.6719 44.2551 54.8791 41.9549 53.966C39.7987 53.137 38.0213 51.4617 36.9193 49.4464C35.5016 46.878 35.1305 43.8044 35.6476 40.9352C36.0578 38.6553 37.1187 36.4604 38.796 34.8453M45.3599 37.1758C44.0146 37.427 42.7878 38.2274 42.0064 39.3506C40.9703 40.8187 40.6335 42.707 40.8816 44.4682C41.0857 45.9305 41.7469 47.3642 42.8707 48.3432C44.0538 49.3957 45.7301 49.8475 47.2833 49.5705C48.7773 49.3422 50.112 48.3823 50.8772 47.091C51.9009 45.3918 52.0841 43.2676 51.6023 41.365C51.1921 39.7317 50.0949 38.2274 48.5321 37.5369C47.5475 37.0746 46.4218 37.0106 45.358 37.1758H45.3599Z" fill="#CCCCCC"/>
<path d="M172.053 33.5598C174.016 32.3038 176.49 31.9294 178.743 32.5082C180.331 32.9065 181.796 33.7967 182.87 35.0364C183.175 35.3831 183.418 35.7786 183.721 36.131C183.896 35.0039 184.081 33.8769 184.243 32.7479C185.741 32.7451 187.238 32.747 188.736 32.7479C188.751 39.8207 188.713 46.8963 188.756 53.969C187.259 54.0349 185.758 53.9709 184.263 54.0015C184.064 52.8658 183.902 51.7244 183.721 50.5869C183.173 51.3376 182.61 52.0883 181.875 52.6671C179.653 54.5096 176.44 55.0359 173.739 54.0272C171.429 53.1886 169.535 51.3834 168.417 49.2105C167.052 46.6049 166.762 43.5208 167.326 40.6583C167.897 37.8015 169.549 35.1023 172.053 33.5598ZM176.908 37.1912C175.22 37.5198 173.778 38.7433 173.08 40.302C172.456 41.6048 172.346 43.091 172.511 44.5113C172.741 46.1417 173.568 47.7301 174.933 48.6871C176.838 50.0587 179.68 49.9651 181.429 48.3719C183.313 46.7138 183.818 43.9334 183.278 41.5647C182.908 39.9066 181.854 38.3545 180.303 37.6038C179.259 37.0785 178.044 36.9906 176.909 37.1912H176.908Z" fill="#CCCCCC"/>
<path d="M88.7964 32.7537C90.5767 32.7508 92.3579 32.7241 94.1382 32.768C94.1153 39.8446 94.1344 46.9221 94.1296 53.9986C92.3541 53.9948 90.5766 53.9929 88.8011 53.9986C88.7983 46.9173 88.8069 39.836 88.7973 32.7537H88.7964Z" fill="#CCCCCC"/>
<path d="M110.764 32.7727C112.542 32.7154 114.324 32.7584 116.103 32.7517C116.095 39.834 116.102 46.9172 116.099 54.0014C114.323 53.9928 112.547 53.9985 110.771 53.9985C110.77 46.9229 110.788 39.8473 110.763 32.7736L110.764 32.7727Z" fill="#CCCCCC"/>
<path d="M135.789 32.7527C137.702 32.7346 139.616 32.7623 141.531 32.7384C143.227 37.6277 144.813 42.5562 146.513 47.4445C147.027 46.3098 147.336 45.092 147.766 43.922C148.977 40.3298 150.207 36.7413 151.414 33.1453C151.483 32.9925 151.506 32.6887 151.752 32.747C153.516 32.748 155.281 32.7413 157.047 32.7508C153.205 42.5361 149.368 52.3224 145.509 62.0991C143.72 62.0847 141.93 62.1057 140.141 62.0876C141.331 59.1611 142.58 56.2565 143.745 53.3214C141.126 46.4541 138.427 39.6144 135.789 32.7527Z" fill="#CCCCCC"/>
<path d="M194.342 32.75C196.125 32.7442 197.906 32.7471 199.69 32.749C199.677 39.8342 199.718 46.9212 199.669 54.0073C197.898 53.9873 196.126 53.9959 194.356 54.0035C194.321 46.9193 194.348 39.8351 194.342 32.7509V32.75Z" fill="#CCCCCC"/>
<path d="M157.471 49.9375C157.849 48.6318 159.286 47.8333 160.601 47.9604C161.746 48.0119 162.814 48.7789 163.256 49.8334C163.62 50.7092 163.588 51.7522 163.126 52.587C162.66 53.4705 161.741 54.0923 160.751 54.2012C159.72 54.3339 158.627 53.929 157.963 53.1228C157.288 52.3368 157.076 51.204 157.35 50.2135C157.38 50.1438 157.442 50.0062 157.471 49.9384V49.9375Z" fill="#CCCCCC"/>
</svg>
