<svg width="200" height="80" viewBox="0 0 200 80" fill="none" xmlns="http://www.w3.org/2000/svg">
<path d="M76.9606 29.9087C76.0721 30.4529 74.9114 31.0258 73.4783 31.6274L73.3063 56.8065L67.2445 57.3652L53.6589 36.5257L54.3038 41.8107V54.0566L58.0871 54.6152L58.0441 56.8065H46.2213L45.9634 55.4316C46.7946 54.8873 48.0126 54.3001 49.6177 53.6699V31.1977L46.6083 30.7251L46.6513 28.5337H56.1954L56.1524 28.5767L69.437 49.3301L68.7921 43.8732V31.3266L64.6219 30.7251L64.6649 28.5337H76.7027L76.9606 29.9087Z" fill="#CCCCCC"/>
<path d="M77.1876 46.4514C77.1876 43.2145 78.1765 40.5791 80.1541 38.5453C82.1604 36.5115 84.6539 35.4946 87.6348 35.4946C90.6155 35.4946 93.066 36.5401 94.9863 38.6313C96.9357 40.6937 97.9098 43.372 97.9098 46.6663C97.9098 49.9891 96.9501 52.653 95.0295 54.6583C93.1377 56.6634 90.7158 57.666 87.7637 57.666C84.7542 57.666 82.2321 56.6061 80.197 54.4864C78.1908 52.3666 77.1876 49.6883 77.1876 46.4514ZM89.5264 53.9278C90.8735 52.9826 91.547 50.7339 91.547 47.1819C91.547 44.8329 91.1888 42.9137 90.4722 41.4241C89.7843 39.9059 88.7238 39.1469 87.2908 39.1469C86.431 39.1469 85.7001 39.3474 85.0982 39.7484C84.0663 41.1234 83.5505 43.329 83.5505 46.3654C83.5505 48.6571 83.9231 50.5333 84.6682 51.9942C85.4135 53.4265 86.5456 54.1427 88.0647 54.1427C88.5805 54.1427 89.0678 54.071 89.5264 53.9278Z" fill="#CCCCCC"/>
<path d="M121.087 38.2873L118.852 39.4045C115.843 47.3106 113.579 53.0682 112.059 56.6776C111.056 56.9926 109.824 57.1502 108.362 57.1502C107.387 57.1502 106.499 57.0786 105.696 56.9354L99.5485 39.7912L96.9264 38.6311V36.3967H108.104L108.233 38.2873L106.126 39.3615L108.749 47.6543L109.351 51.3925H110.124C110.984 47.9265 111.888 43.9448 112.833 39.4474L110.641 38.6311L110.683 36.3967H120.959L121.087 38.2873Z" fill="#CCCCCC"/>
<path d="M137.497 46.5803L126.533 46.4514C126.648 48.5711 127.308 50.2183 128.511 51.3927C129.715 52.5672 131.249 53.1544 133.111 53.1544C134.659 53.1544 136.494 52.6388 138.614 51.6076L139.517 53.8848L132.767 57.3653L131.392 57.4511C128.239 57.4511 125.645 56.4629 123.609 54.4864C121.575 52.4812 120.557 49.9461 120.557 46.881C120.557 43.6728 121.589 40.9801 123.653 38.8031C125.716 36.5974 128.224 35.4946 131.177 35.4946C133.756 35.4946 135.863 36.2967 137.497 37.9008C139.159 39.4763 139.99 41.5388 139.99 44.0882L137.497 46.5803ZM129.672 38.7601C128.182 39.6195 127.221 41.195 126.791 43.4866L134.229 43.0999C134.028 41.8682 133.498 40.8369 132.638 40.0062C131.807 39.1755 130.819 38.7601 129.672 38.7601Z" fill="#CCCCCC"/>
<path d="M150.926 53.4122C152.273 53.8418 153.319 54.2716 154.065 54.7012L153.893 56.8066H141.554L141.425 55.3457C142.284 54.8587 143.374 54.3861 144.693 53.9278V29.0923L141.468 28.7486L141.167 26.6861C143.632 25.7408 146.183 25.2395 148.82 25.1823L150.926 27.0728V53.4122Z" fill="#CCCCCC"/>
<path d="M186.351 54.6152L186.308 56.8065H172.765L172.507 55.4316C173.31 54.9446 174.556 54.343 176.248 53.627L174.442 48.9864H164.21L162.318 54.0566L166.273 54.6152L166.231 56.8065H154.537L154.279 55.4316C155.139 54.8873 156.328 54.3144 157.847 53.7128L167.348 30.3813L166.833 29.0493L172.465 27.5024L183.298 54.1855L186.351 54.6152ZM173.195 45.7208L169.327 35.5804L165.457 45.7208H173.195Z" fill="#CCCCCC"/>
<path d="M200 54.6152L199.957 56.8065H186.114L185.856 55.4316C186.687 54.8873 187.905 54.3001 189.511 53.6699V31.1977L186.199 30.7251L186.242 28.5337H199.398L199.656 29.9087C198.596 30.5389 197.392 31.1261 196.045 31.6704V54.0566L200 54.6152Z" fill="#CCCCCC"/>
<path fill-rule="evenodd" clip-rule="evenodd" d="M5.75361 52.992C4.3381 50.6822 2.60371 48.7589 0.550457 47.4326C-0.0340446 47.055 -0.181639 46.2165 0.246281 45.6679C3.96549 40.9001 9.76422 28.4101 12.7974 21.6076C13.2495 20.5938 14.8 20.9254 14.8 22.0353V40.1525C13.191 40.8651 12.0687 42.4751 12.0687 44.3472C12.0687 45.0309 12.2184 45.6796 12.4869 46.2626L5.75361 52.992ZM7.24785 55.8223C7.95866 57.3879 8.55173 59.0664 9.02707 60.8106C9.15003 61.2619 9.5565 61.5808 10.0244 61.5808H16.6572H23.2901C23.7579 61.5808 24.1645 61.2619 24.2874 60.8106C24.7628 59.0664 25.3558 57.3879 26.0666 55.8223L22.5385 52.2961L19.6007 55.2323C19.6758 55.4976 19.716 55.7774 19.716 56.0667C19.716 57.7552 18.3464 59.124 16.657 59.124C14.9676 59.124 13.598 57.7552 13.598 56.0667C13.598 54.3783 14.9676 53.0094 16.657 53.0094C16.9155 53.0094 17.1665 53.0415 17.4063 53.1019L20.3755 50.1343L18.6966 48.4564C18.0823 48.7615 17.3897 48.9331 16.6572 48.9331C15.9247 48.9331 15.2322 48.7615 14.6178 48.4564L7.24785 55.8223ZM27.5609 52.992C28.9764 50.6822 30.7107 48.7589 32.764 47.4326C33.3485 47.055 33.4961 46.2165 33.0682 45.6679C29.349 40.9001 23.5502 28.4101 20.5171 21.6076C20.065 20.5938 18.5145 20.9254 18.5145 22.0353V40.1525C20.1234 40.8651 21.2457 42.4751 21.2457 44.3472C21.2457 45.0309 21.096 45.6796 20.8276 46.2625L27.5609 52.992Z" fill="#CCCCCC"/>
</svg>
