<svg width="160" height="80" viewBox="0 0 160 80" fill="none" xmlns="http://www.w3.org/2000/svg">
<path d="M0 39.9578C0 26.7263 10.7263 16 23.9578 16C37.1893 16 47.9156 26.7263 47.9156 39.9578V63.9156H23.9578C10.7263 63.9156 0 53.1894 0 39.9578Z" fill="#CCCCCC"/>
<path d="M23.465 22.3186C19.2653 22.3186 15.5344 25.0164 14.2342 29.0009C11.5341 29.5564 9.20311 31.2429 7.83715 33.6336C5.73109 37.266 6.21221 41.833 9.03344 44.9465C8.1618 47.5551 8.46089 50.4079 9.85247 52.771C11.9461 56.4165 16.1582 58.2856 20.2796 57.4168C22.106 59.4727 24.7299 60.6445 27.4826 60.6341C31.6822 60.6341 35.4131 57.9363 36.7154 53.9518C39.4196 53.3942 41.7466 51.7077 43.1001 49.3212C45.2193 45.6888 44.7374 41.1218 41.9161 38.0062V37.9937C42.7878 35.3851 42.4887 32.5303 41.0971 30.1569C39.0035 26.5245 34.7914 24.6553 30.6825 25.5242C28.8457 23.4724 26.2177 22.3068 23.4643 22.32L23.465 22.3186ZM23.465 24.8082L23.4525 24.8207C25.1432 24.8207 26.7681 25.4038 28.0683 26.4823C28.015 26.5079 27.9111 26.5736 27.835 26.6116L20.1882 31.0112C19.7977 31.2318 19.5644 31.6469 19.5644 32.1007V42.4279L16.2745 40.5332V31.9962C16.2724 28.0311 19.4903 24.8138 23.465 24.8075V24.8082ZM32.675 27.816C35.2539 27.8118 37.6383 29.1829 38.926 31.4145C39.7575 32.8685 40.0691 34.5682 39.7831 36.2145C39.7298 36.1765 39.628 36.1232 39.5622 36.0852L31.9176 31.6725C31.5271 31.4518 31.048 31.4518 30.6575 31.6725L21.6982 36.8371V33.0477L29.0943 28.7796C30.1827 28.1501 31.4171 27.8173 32.6743 27.8153L32.675 27.816ZM13.7655 31.7368V40.805C13.7655 41.2588 13.9988 41.6614 14.3893 41.8945L23.3342 47.0446L20.0318 48.9518L12.646 44.6961C9.21003 42.708 8.03511 38.3189 10.02 34.8878C10.8619 33.4337 12.1856 32.3193 13.7655 31.7361V31.7368ZM30.9019 33.9829L38.3002 38.2386C41.7466 40.2246 42.9159 44.609 40.9261 48.047L40.9386 48.0594C40.0946 49.5135 38.7668 50.6279 37.1952 51.2V42.129C37.1952 41.6752 36.9619 41.2602 36.5714 41.0395L27.6141 35.8749L30.9019 33.9822V33.9829ZM25.4679 37.109L29.239 39.2873V43.6343L25.4679 45.8126L21.6968 43.6343V39.2873L25.4679 37.109ZM31.3963 40.5339L34.6862 42.4286V50.9523C34.6862 54.9216 31.462 58.141 27.4957 58.141V58.1286C25.8182 58.1286 24.1802 57.5434 22.8931 56.467C22.9465 56.4414 23.0628 56.3757 23.1265 56.3377L30.7711 51.9402C31.1616 51.7195 31.4074 51.3045 31.3949 50.8507L31.397 40.5339H31.3963ZM29.2494 46.1142V49.9037L21.8512 54.1593C18.4048 56.1322 14.012 54.9645 12.0222 51.5376H12.0347C11.1908 50.0966 10.8896 48.3839 11.1755 46.7375C11.2288 46.7755 11.3326 46.8288 11.3963 46.8668L19.041 51.2795C19.4315 51.5002 19.9106 51.5002 20.301 51.2795L29.2501 46.1149L29.2494 46.1142Z" fill="white"/>
<path d="M86.4387 28.7126C87.4488 28.6787 88.461 28.6787 89.4731 28.7085C89.5112 32.1845 89.4794 35.6606 89.4849 39.1346C90.3455 37.9461 91.4138 36.8234 92.8503 36.3572C95.0962 35.6108 97.806 35.929 99.6129 37.5359C101.054 38.8281 101.705 40.8052 101.721 42.7026C101.729 46.4817 101.711 50.26 101.729 54.037C100.679 54.0751 99.6296 54.0771 98.5793 54.0432C98.5253 51.0645 98.5675 48.0845 98.5572 45.1044C98.535 43.687 98.7185 42.1817 98.0691 40.866C97.6267 39.8789 96.6962 39.1616 95.648 38.925C93.9345 38.539 91.942 38.8752 90.7027 40.1971C89.802 41.1192 89.5016 42.4467 89.4891 43.6974C89.4732 47.1499 89.5133 50.6038 89.4731 54.0557C88.461 54.0716 87.4468 54.0716 86.4366 54.0536C86.4228 45.608 86.4186 37.161 86.4387 28.7133V28.7126Z" fill="#CCCCCC"/>
<path d="M69.2337 29.903C72.1525 29.2278 75.4203 29.4174 78.0027 31.052C80.412 32.5054 81.9323 35.179 82.167 37.9564C81.1589 37.9979 80.1502 37.9965 79.1464 37.9467C78.8514 36.4996 78.3232 35.0441 77.2577 33.983C76.1057 32.7309 74.3784 32.1775 72.7147 32.1256C71.0171 32.0661 69.2177 32.4161 67.8691 33.505C66.8029 34.3731 66.1292 35.6369 65.727 36.9354C65.2368 38.4821 65.412 40.123 65.3844 41.7195C65.4141 43.1189 65.293 44.5308 65.5 45.9205C65.8171 47.6728 66.6457 49.4243 68.11 50.4993C69.4849 51.4988 71.2545 51.7638 72.9182 51.6856C74.5639 51.6137 76.24 51.0008 77.3498 49.7466C78.3682 48.6993 78.8563 47.2819 79.145 45.8804C80.151 45.8306 81.1597 45.8265 82.1677 45.8707C81.9365 48.4074 80.6771 50.8839 78.5794 52.3753C75.9472 54.3641 72.3803 54.6429 69.2461 53.9283C66.4145 53.2933 63.9741 51.1869 62.9619 48.4655C61.8597 45.8915 62.2329 43.0463 62.165 40.327C62.109 38.4434 62.39 36.5286 63.2014 34.8144C64.2974 32.356 66.6083 30.4903 69.235 29.9051L69.2337 29.903Z" fill="#CCCCCC"/>
<path d="M143.703 30.2255C146.048 29.3913 148.645 29.3477 151.058 29.9246C153.329 30.4739 155.461 31.8719 156.593 33.9541C157.26 35.0906 157.528 36.407 157.605 37.711C156.605 37.7228 155.603 37.7193 154.602 37.729C154.369 36.3794 153.959 34.9896 152.969 33.9921C151.594 32.5803 149.537 32.0808 147.62 32.123C145.803 32.1507 143.871 32.7421 142.681 34.1879C141.288 35.8938 140.845 38.1738 140.929 40.3279C141.019 42.6051 140.662 44.9564 141.385 47.1666C141.832 48.5881 142.627 49.9875 143.924 50.792C145.482 51.7875 147.425 51.8989 149.218 51.7218C151.023 51.5564 152.801 50.6046 153.725 49.0122C154.598 47.6342 154.762 45.9678 154.763 44.3753C152.566 44.3712 150.365 44.4092 148.168 44.3574C148.148 43.503 148.152 42.6494 148.198 41.7951C151.388 41.7972 154.578 41.8089 157.77 41.7889C157.813 43.7701 157.977 45.8004 157.409 47.7276C156.862 49.6368 155.714 51.407 154.058 52.5339C151.706 54.2418 148.622 54.5047 145.822 54.1187C142.863 53.7223 140.102 51.8255 138.86 49.0834C138.034 47.3513 137.655 45.4261 137.715 43.5106C137.778 41.012 137.454 38.4297 138.306 36.0231C139.087 33.3972 141.112 31.1636 143.702 30.2255H143.703Z" fill="#CCCCCC"/>
<path d="M126.989 31.1731C128.037 31.0914 129.091 31.0997 130.143 31.1454C130.221 32.818 130.181 34.4921 130.171 36.1647C131.612 36.2381 133.054 36.2083 134.499 36.2007C134.53 37.0287 134.53 37.8588 134.499 38.6896C133.072 38.6959 131.643 38.6834 130.217 38.7056C130.159 42.0322 130.223 45.3609 130.183 48.6882C130.196 49.407 130.145 50.1894 130.535 50.8306C130.824 51.3107 131.404 51.4898 131.932 51.5431C132.761 51.6227 133.594 51.5908 134.424 51.6268C134.429 52.4313 134.431 53.2351 134.431 54.0417C132.831 54.0459 131.175 54.2347 129.633 53.7173C128.659 53.3949 127.874 52.6223 127.471 51.6884C127.022 50.6867 126.994 49.5661 126.997 48.487C127.015 45.2419 126.988 41.9969 127.012 38.7512C126.038 38.6876 125.061 38.6855 124.087 38.6737C124.051 37.8533 124.049 37.0329 124.089 36.2132C125.05 36.2111 126.01 36.2111 126.971 36.191C127.015 34.5184 126.985 32.8464 126.989 31.1737V31.1731Z" fill="#CCCCCC"/>
<path d="M109.146 37.5161C110.957 36.0966 113.401 35.768 115.626 36.0986C117.807 36.4348 119.888 37.8031 120.772 39.8673C121.396 41.1913 121.299 42.6862 121.297 44.1078C121.297 47.4247 121.285 50.7417 121.304 54.0566C120.302 54.0704 119.302 54.0704 118.299 54.0545C118.291 53.3835 118.279 52.7104 118.27 52.0394C116.967 53.1663 115.381 53.9985 113.649 54.1873C111.4 54.4502 108.839 54.1534 107.154 52.4932C104.944 50.5162 105.012 46.5261 107.361 44.6847C109.114 43.2472 111.525 42.9726 113.715 43.1476C115.358 43.2694 116.873 44.0234 118.144 45.0389C118.092 43.3247 118.509 41.3518 117.371 39.8943C116.126 38.3137 113.797 38.2023 112.013 38.7792C111.057 39.0559 110.477 39.8881 109.807 40.5549C108.902 40.8378 107.903 40.6324 106.964 40.6504C107.411 39.444 108.092 38.2915 109.146 37.5147M111.448 45.2312C110.559 45.4581 109.688 45.9098 109.144 46.6686C108.463 47.6419 108.381 48.966 108.808 50.0569C109.23 51.1139 110.256 51.807 111.32 52.1114C113.029 52.5949 114.949 52.3306 116.459 51.3906C117.381 50.8095 118.162 49.8258 118.117 48.6851C118.208 47.6834 117.638 46.7558 116.855 46.1789C115.331 45.0423 113.267 44.7815 111.448 45.2312Z" fill="#CCCCCC"/>
</svg>
