<svg width="200" height="80" viewBox="0 0 200 80" fill="none" xmlns="http://www.w3.org/2000/svg">
<path d="M19.9778 27.9994C20.6531 28.6001 21.3413 29.288 22.0146 30.0122L12.7134 36.5744V33.1233L19.9778 27.9994Z" fill="#CCCCCC"/>
<path d="M22.3059 47.0447L18.3161 46.7886L17.5402 46.9582L28.503 39.2257L29.7727 41.778L22.3059 47.0447Z" fill="#CCCCCC"/>
<path d="M17.5405 46.9575L13.4818 47.8445L8.6152 49.8296L8.6348 49.7912L27.2335 36.6727L28.5033 39.225L17.5405 46.9575Z" fill="#CCCCCC"/>
<path d="M8.63596 49.7919L11.0176 45.1237L11.1773 44.5515L25.6342 34.3544C26.2147 35.1204 26.7033 35.8009 27.0583 36.3189L27.2346 36.6734L8.63596 49.7919Z" fill="#CCCCCC"/>
<path d="M11.1775 44.5512L12.3748 40.2588L23.8814 32.1427C24.5195 32.9116 25.1138 33.6672 25.6344 34.3542L11.1775 44.5512Z" fill="#CCCCCC"/>
<path d="M12.7136 36.5719V39.0409L12.3737 40.2596L23.8803 32.1434C23.2878 31.4295 22.6576 30.7042 22.0139 30.012L12.7136 36.5719Z" fill="#CCCCCC"/>
<path d="M32.8221 49.1961C32.5325 47.2153 31.9469 45.29 31.2536 43.4171C30.2088 40.6824 28.8634 38.0666 27.2678 35.6142C25.7084 33.2089 23.9316 30.9413 21.9309 28.8894C19.8729 26.7607 17.5931 24.8516 15.17 23.1531C12.9359 21.6059 10.5858 20.2117 8.0963 19.114C7.9041 19.0217 7.67838 18.9493 7.47264 19.0456C7.1147 19.1599 6.89348 19.5921 7.03602 19.9455C7.1334 20.1942 7.29141 20.4133 7.41524 20.6504C8.60194 22.8282 9.62288 25.1003 10.4291 27.4481C11.2275 29.7971 11.817 32.236 11.9408 34.7213C12.0117 36.487 11.8621 38.2546 11.6274 40.0034C11.4081 41.3207 11.1153 42.6277 10.7077 43.9004C9.95695 46.1558 8.90764 48.351 7.35204 50.1645C7.13598 50.4358 6.77481 50.6678 6.80706 51.0586C6.81222 51.5535 7.40879 51.9237 7.84219 51.6607C9.39844 50.6529 11.0875 49.8641 12.8244 49.2245C14.9501 48.4751 17.1758 47.9628 19.4331 47.8742C20.7062 47.8193 21.9832 47.8723 23.2518 47.9976C26.2134 48.3452 29.1356 49.072 31.8946 50.2104C32.2281 50.3673 32.6479 50.1793 32.8001 49.8544C32.8911 49.6444 32.8511 49.4125 32.8234 49.1941L32.8221 49.1961ZM27.778 47.3865C26.8196 47.1235 25.8374 46.9633 24.8616 46.7818C23.1602 46.5427 21.4401 46.3851 19.7188 46.442C16.8172 46.5324 13.9511 47.2101 11.2681 48.3077C10.8496 48.4454 10.4755 48.6909 10.0518 48.8155C11.7183 45.9917 12.6986 42.7944 13.1107 39.5499C13.2558 38.5007 13.3487 37.4438 13.3506 36.3836C13.3971 35.8784 13.4003 35.3706 13.3513 34.8654C13.3532 33.6263 13.132 32.402 12.9211 31.1848C12.2904 28.1142 11.1978 25.1553 9.86279 22.3256C9.70091 21.9974 9.53065 21.673 9.39135 21.3352C9.53194 21.3875 9.67124 21.445 9.8041 21.5173C15.3706 24.526 20.3728 28.6472 24.1986 33.7077C26.8706 37.2383 29.0543 41.1663 30.441 45.3818C30.7596 46.3819 31.0485 47.3929 31.2413 48.4253C30.0985 48.0429 28.9544 47.6533 27.7773 47.3871L27.778 47.3865Z" fill="#CCCCCC"/>
<path d="M42.573 48.6303C41.561 45.882 40.3415 43.21 38.9277 40.6458C37.5779 38.2244 36.0449 35.8876 34.1823 33.8267C33.1697 32.6981 32.101 31.6218 31.0227 30.5571C29.1911 28.803 27.2621 27.1265 25.106 25.7828C24.0857 25.1606 23.0177 24.5837 21.8542 24.2859C21.5459 24.2232 21.2196 24.1147 20.9075 24.2045C20.3799 24.3447 20.2432 25.1238 20.6882 25.4365C21.7388 26.1226 22.7346 26.892 23.6723 27.7248C25.6491 29.4491 27.3827 31.4557 28.7615 33.6904C31.5322 38.1087 33.6276 42.9328 35.1407 47.9197C35.2664 48.2982 35.2638 48.7686 35.605 49.0347C35.7972 49.1963 36.0642 49.1665 36.2945 49.1284C36.9684 48.9915 37.6546 48.8907 38.3447 48.9088C38.8665 48.921 39.3612 49.1097 39.8571 49.2544C40.3344 49.423 40.8078 49.6013 41.2753 49.7951C41.5662 49.9114 41.85 50.1085 42.177 50.0781C42.4872 50.0477 42.751 49.7822 42.789 49.4734C42.8251 49.1749 42.669 48.9029 42.5749 48.6303H42.573ZM39.1754 47.5811C38.3022 47.4099 37.4025 47.503 36.5305 47.6322C35.1761 43.093 33.32 38.7005 30.9627 34.591C30.3687 33.5832 29.758 32.5837 29.093 31.6198C28.3378 30.5422 27.4955 29.5279 26.5978 28.5672C28.8035 30.2838 30.7931 32.2607 32.6957 34.3042C34.526 36.2378 36.0378 38.4511 37.3612 40.7556C38.553 42.8404 39.5914 45.0105 40.5085 47.2284C40.6259 47.503 40.7387 47.7814 40.8271 48.0676C40.2718 47.921 39.7371 47.7039 39.1754 47.5805V47.5811Z" fill="#CCCCCC"/>
<path d="M50.5133 60.1313C50.2592 59.8341 49.8419 59.9213 49.5059 59.827C48.7829 59.6409 48.2276 59.1092 47.6782 58.6344C46.9777 58.0096 46.2451 57.3649 45.3344 57.0761C44.4425 56.755 43.4331 56.7802 42.5547 57.1375C41.546 57.5173 40.7644 58.2836 39.9337 58.9406C39.3706 59.3909 38.7193 59.7856 37.9853 59.8405C37.3326 59.8825 36.6374 59.7327 36.1227 59.3114C36.8405 58.9819 37.5455 58.6286 38.2407 58.2564C39.9066 57.3449 41.5873 56.4501 43.1519 55.3692C44.5766 54.4034 45.9484 53.3607 47.2996 52.294C47.475 52.1532 47.6762 52.0104 47.7375 51.7804C47.88 51.3359 47.4782 50.8204 47.0093 50.876C44.9384 50.9864 42.8695 51.1622 40.7992 51.2746C38.5367 51.4044 36.2762 51.5821 34.0144 51.7158C31.7752 51.8315 29.5398 52.0253 27.3012 52.1448C25.0639 52.274 22.8285 52.453 20.5919 52.5764C18.3765 52.7036 16.1644 52.8871 13.9477 53.0021C11.7878 53.1442 9.62722 53.2889 7.46795 53.4317C6.35607 53.4963 5.24162 53.5506 4.13232 53.6488C3.70343 53.6669 3.38741 54.1547 3.53316 54.5546C3.62023 54.7897 3.75374 55.0036 3.86725 55.2271C4.22583 55.8783 4.55798 56.5444 4.91528 57.1969C4.18391 57.664 3.47383 58.1621 2.76246 58.6589C2.18588 59.0323 1.62414 59.4529 0.968236 59.6752C0.703809 59.721 0.398103 59.7042 0.206556 59.9297C-0.162351 60.2611 -0.0127272 60.9414 0.46195 61.0842C0.916634 61.2102 1.39003 61.0383 1.81375 60.8762C3.21779 60.2075 4.39416 59.1622 5.72855 58.3753C6.08971 58.1808 6.45411 57.947 6.87332 57.9153C7.31897 57.9573 7.67111 58.2674 8.02389 58.5123C9.0042 59.2752 9.92583 60.141 11.0577 60.6778C12.0322 61.1565 13.1789 61.3323 14.2347 61.0338C15.4872 60.7192 16.4552 59.8173 17.4652 59.0672C17.9425 58.7171 18.4649 58.3779 19.0659 58.3081C19.6148 58.2267 20.1804 58.374 20.6448 58.6693C21.569 59.2429 22.2907 60.0906 23.2439 60.621C24.2003 61.196 25.3986 61.402 26.4757 61.0719C27.4566 60.8135 28.2551 60.1468 29.0051 59.4949C29.5882 59.0233 30.1809 58.4922 30.9387 58.3417C31.7133 58.1776 32.5388 58.3701 33.1766 58.8366C34.2459 59.5776 35.1269 60.641 36.4013 61.048C37.5048 61.4505 38.7638 61.3122 39.7847 60.7444C40.5973 60.3186 41.2539 59.6642 41.9769 59.1118C42.4438 58.7591 42.9533 58.4179 43.5434 58.3256C44.2148 58.2009 44.9307 58.3436 45.5047 58.7138C46.365 59.2539 47.0203 60.0576 47.8703 60.6113C48.5237 61.0564 49.3111 61.3594 50.1115 61.3084C50.6371 61.2489 50.9216 60.5002 50.5127 60.1326L50.5133 60.1313ZM34.818 58.27C34.5916 58.1492 34.4085 57.9631 34.2001 57.8171C33.4191 57.2395 32.4698 56.8371 31.4869 56.8577C30.6897 56.8551 29.9003 57.1142 29.2335 57.5464C28.3325 58.0923 27.6398 58.9225 26.7227 59.4452C26.0765 59.8386 25.2574 59.8896 24.5434 59.6739C23.3709 59.2358 22.5757 58.2086 21.5374 57.5542C20.7931 57.0645 19.8921 56.7712 18.9963 56.8745C18.1005 56.9785 17.2807 57.414 16.5752 57.9605C15.7013 58.5917 14.8964 59.3967 13.8258 59.6816C12.8513 59.9355 11.8426 59.5789 11.0338 59.0369C10.0426 58.4128 9.22477 57.5548 8.23285 56.9314C7.64015 56.5599 6.89718 56.3551 6.21548 56.5935C5.90268 56.0767 5.63826 55.5314 5.36093 54.9952C7.64274 54.822 9.92583 54.6825 12.2096 54.5507C14.4972 54.3814 16.7854 54.2438 19.0737 54.1062C20.9008 53.9731 22.7286 53.8536 24.557 53.7535C27.2754 53.5571 29.9951 53.3975 32.7155 53.2237C35.1953 53.0331 37.679 52.9265 40.1594 52.7359C41.2887 52.6752 42.4135 52.566 43.5441 52.5305C43.9207 52.4956 44.2993 52.4568 44.6779 52.4756C44.5734 52.5919 44.4573 52.6978 44.3315 52.7908C43.2248 53.5978 42.1149 54.4034 40.9417 55.1115C39.2533 56.0954 37.5538 57.0658 35.788 57.903C35.4694 58.0368 35.1547 58.1918 34.8187 58.2713L34.818 58.27Z" fill="#CCCCCC"/>
<path d="M83.4541 27.0403C84.5305 26.6332 85.9288 27.4473 85.754 28.6806C85.7469 30.0302 83.9391 30.6859 82.9833 29.8202C82.0623 29.0947 82.3184 27.4124 83.4535 27.0403H83.4541Z" fill="#CCCCCC"/>
<path d="M100.572 26.9975C101.392 26.9652 102.215 26.9678 103.034 26.9775C103.027 33.7165 103.027 40.4561 103.034 47.195C102.283 47.2047 101.53 47.2047 100.781 47.1705C100.742 46.4701 100.694 45.7692 100.621 45.0734C99.6799 46.0179 98.6506 46.9825 97.3085 47.2835C95.1215 47.7596 92.6224 47.3701 90.9578 45.7763C88.596 43.6107 88.1161 39.9276 89.2461 37.0242C90.2116 34.5473 92.7604 32.7713 95.4343 32.885C97.451 32.7274 99.4432 33.7113 100.581 35.3762C100.549 32.5839 100.569 29.7917 100.571 26.9963M95.0531 35.017C93.5362 35.2243 92.2141 36.2974 91.6498 37.7155C90.761 39.8914 91.0609 42.723 92.881 44.3388C94.6887 45.8906 97.7174 45.7175 99.2691 43.8801C100.916 41.8696 100.946 38.6607 99.38 36.5907C98.3707 35.3154 96.6365 34.7211 95.0531 35.017Z" fill="#CCCCCC"/>
<path d="M107.588 27.0448C108.669 26.6255 110.034 27.479 109.857 28.7C109.854 30.0367 108.057 30.6659 107.118 29.8196C106.185 29.1044 106.453 27.4098 107.588 27.0442V27.0448Z" fill="#CCCCCC"/>
<path d="M59.2934 27.4764C60.2415 27.4641 61.1921 27.4544 62.1428 27.4938C64.4504 32.0278 66.7405 36.5715 69.0746 41.0932C71.1629 36.9882 73.2409 32.8787 75.3144 28.7666C75.5485 28.3395 75.7007 27.8466 76.0406 27.4861C76.9738 27.4318 77.907 27.4738 78.8403 27.4835C78.8254 34.0499 78.828 40.6164 78.8403 47.1829C78.0225 47.2048 77.2028 47.2029 76.385 47.1977C76.3779 42.0965 76.3631 36.9953 76.3921 31.8941C74.2967 36.0876 72.0974 40.2268 69.9943 44.4152C69.3835 44.4352 68.7702 44.4352 68.1594 44.4275C65.9995 40.3205 63.9312 36.1664 61.7642 32.064C61.7397 37.1012 61.7642 42.1385 61.7519 47.1757C60.9322 47.2055 60.1118 47.2029 59.2895 47.1932C59.2966 40.6216 59.2966 34.048 59.2921 27.4764H59.2934Z" fill="#CCCCCC"/>
<path d="M118.423 32.9618C120.156 32.7247 122.01 32.9295 123.5 33.9115C125.574 35.1797 126.679 37.6534 126.64 40.0412C126.728 42.1674 125.936 44.3633 124.317 45.784C121.498 48.3197 116.521 48.0038 114.221 44.9183C112.918 43.2831 112.581 41.1118 112.79 39.0793C113.017 36.0726 115.413 33.3811 118.422 32.9618M118.948 35.0221C117.13 35.2786 115.739 36.8601 115.384 38.6115C115.084 40.3061 115.173 42.2133 116.239 43.641C117.308 45.1929 119.462 45.7995 121.201 45.1134C122.806 44.541 123.873 42.9401 124.07 41.2797C124.254 39.6691 124.114 37.8731 123.053 36.5681C122.119 35.3348 120.457 34.7204 118.948 35.0214V35.0221Z" fill="#CCCCCC"/>
<path d="M147.979 35.6323C149.011 33.8091 151.087 32.7263 153.17 32.8795C153.18 33.6961 153.177 34.5146 153.172 35.3312C151.919 35.368 150.562 35.4721 149.523 36.2538C148.439 37.0678 148.045 38.4962 148.03 39.7961C148.03 42.2601 148.025 44.7222 148.04 47.1862C147.22 47.2063 146.397 47.2037 145.578 47.1959C145.571 42.5114 145.571 37.8269 145.58 33.1431C146.317 33.1405 147.055 33.1379 147.796 33.1482C147.833 33.9771 147.937 34.8034 147.979 35.6323Z" fill="#CCCCCC"/>
<path d="M157.936 35.557C158.884 34.0129 160.556 32.8636 162.41 32.8855C163.934 32.777 165.555 33.2234 166.629 34.3605C167.85 35.5815 168.106 37.4047 168.143 39.0547C168.134 41.7629 168.15 44.4692 168.134 47.1775C167.324 47.2072 166.511 47.2072 165.698 47.1872C165.711 44.5603 165.713 41.9328 165.703 39.306C165.654 38.001 165.472 36.4963 164.386 35.6183C162.926 34.5601 160.687 34.7552 159.441 36.0699C158.51 36.9557 158.114 38.2801 158.104 39.5379C158.094 42.0911 158.114 44.6417 158.097 47.1949C157.277 47.202 156.457 47.2046 155.637 47.1826C155.652 42.5078 155.652 37.8311 155.637 33.1569C156.378 33.1369 157.122 33.1369 157.866 33.1394C157.896 33.9438 157.935 34.75 157.938 35.557H157.936Z" fill="#CCCCCC"/>
<path d="M171.964 36.0411C174.074 32.2274 180.147 31.7293 182.888 35.0914C184.196 36.5592 184.496 38.6162 184.393 40.5156C180.712 40.577 177.03 40.5182 173.348 40.5453C173.39 41.8723 173.843 43.229 174.811 44.1664C176.207 45.6071 178.682 45.8119 180.29 44.6077C180.884 44.1832 181.206 43.5172 181.588 42.9183C182.361 42.6863 183.235 42.8026 184.036 42.9086C183.376 44.786 182.026 46.5297 180.069 47.1389C177.758 47.8418 175.001 47.4891 173.193 45.7919C170.551 43.3795 170.265 39.0672 171.964 36.0404M174.841 35.9519C173.935 36.6232 173.508 37.7182 173.358 38.8036C176.237 38.821 179.115 38.821 181.994 38.8036C181.844 37.9553 181.664 37.0696 181.098 36.3912C179.571 34.603 176.626 34.497 174.841 35.9519Z" fill="#CCCCCC"/>
<path d="M82.84 33.1641C83.6623 33.1343 84.4852 33.1369 85.3049 33.1466C85.2927 37.8285 85.2998 42.5105 85.3023 47.1924C84.4826 47.2047 83.6623 47.2073 82.8425 47.1749C82.8303 42.5027 82.84 37.8331 82.84 33.1634V33.1641Z" fill="#CCCCCC"/>
<path d="M106.953 33.1543C107.771 33.1369 108.591 33.1343 109.409 33.1518C109.394 38.6626 109.421 44.1734 109.399 49.6842C109.402 50.858 109.025 52.2005 107.934 52.8097C106.73 53.5598 105.267 53.355 103.922 53.3498C103.929 52.6889 103.932 52.03 103.925 51.3691C104.742 51.2877 105.634 51.4207 106.375 50.9989C106.875 50.6513 106.956 50.002 106.949 49.44C106.954 44.0106 106.942 38.5837 106.954 33.1543H106.953Z" fill="#CCCCCC"/>
<path d="M129.475 33.1473C130.295 33.135 131.116 33.1324 131.938 33.1647C131.95 35.9447 131.926 38.7272 131.948 41.5072C131.953 42.7676 132.324 44.1883 133.45 44.9015C134.957 45.7724 137.06 45.4836 138.247 44.1889C139.113 43.2961 139.475 42.0208 139.473 40.7971C139.488 38.2517 139.463 35.7082 139.482 33.1628C140.3 33.1356 141.12 33.1356 141.94 33.1479C141.935 37.8298 141.935 42.5118 141.943 47.1937C141.199 47.2034 140.456 47.2008 139.712 47.1885C139.678 46.4385 139.646 45.6865 139.594 44.9364C138.796 46.0217 137.735 46.9766 136.392 47.2899C134.669 47.6795 132.694 47.4851 131.295 46.3157C129.965 45.2329 129.507 43.4272 129.49 41.7766C129.46 38.9003 129.49 36.0241 129.475 33.1479L129.475 33.1473Z" fill="#CCCCCC"/>
<path d="M185.338 33.157C186.222 33.1324 187.109 33.1324 187.995 33.157C189.51 36.7141 190.928 40.3133 192.489 43.8478C194.117 40.3126 195.676 36.7458 197.232 33.179C198.092 33.1195 198.953 33.1318 199.813 33.1492C196.765 39.8837 193.809 46.6575 190.736 53.3771C189.897 53.3648 189.059 53.3719 188.222 53.3551C189.274 50.8956 190.458 48.4981 191.488 46.0315C191.165 45.8487 190.736 45.7401 190.618 45.3409C188.845 41.2856 187.107 37.2129 185.339 33.1576L185.338 33.157Z" fill="#CCCCCC"/>
</svg>
